<svg viewBox="0 0 1000 1000" xmlns="http://www.w3.org/2000/svg">
  <defs>
    <linearGradient id="bgGrad" x1="0%" y1="0%" x2="100%" y2="100%">
      <stop offset="0%" style="stop-color:#0a0e27;stop-opacity:1"></stop>
      <stop offset="100%" style="stop-color:#1a1a3e;stop-opacity:1"></stop>
    </linearGradient>
    <radialGradient id="coreGlow" cx="50%" cy="50%" r="50%">
      <stop offset="0%" style="stop-color:#f5e6d3;stop-opacity:1"></stop>
      <stop offset="60%" style="stop-color:#d4a574;stop-opacity:0.8"></stop>
      <stop offset="100%" style="stop-color:#8b6f47;stop-opacity:0"></stop>
    </radialGradient>
    <radialGradient id="innerGlow" cx="50%" cy="50%" r="60%">
      <stop offset="0%" style="stop-color:#e8d5b7;stop-opacity:1"></stop>
      <stop offset="50%" style="stop-color:#b8956a;stop-opacity:0.6"></stop>
      <stop offset="100%" style="stop-color:#6b5344;stop-opacity:0.1"></stop>
    </radialGradient>
  </defs>
  
  <rect width="1000" height="1000" fill="url(#bgGrad)"></rect>
  
  
  <circle cx="500" cy="500" r="180" fill="url(#coreGlow)" opacity="0.95"></circle>
  
  
  <g id="petalChamber1">
    <ellipse cx="500" cy="320" rx="45" ry="85" fill="none" stroke="#c9a876" stroke-width="1.5" opacity="0.7"></ellipse>
    <ellipse cx="645" cy="360" rx="45" ry="85" fill="none" stroke="#c9a876" stroke-width="1.5" opacity="0.7" transform="rotate(60 500 500)"></ellipse>
    <ellipse cx="645" cy="640" rx="45" ry="85" fill="none" stroke="#c9a876" stroke-width="1.5" opacity="0.7" transform="rotate(120 500 500)"></ellipse>
    <ellipse cx="500" cy="680" rx="45" ry="85" fill="none" stroke="#c9a876" stroke-width="1.5" opacity="0.7" transform="rotate(180 500 500)"></ellipse>
    <ellipse cx="355" cy="640" rx="45" ry="85" fill="none" stroke="#c9a876" stroke-width="1.5" opacity="0.7" transform="rotate(240 500 500)"></ellipse>
    <ellipse cx="355" cy="360" rx="45" ry="85" fill="none" stroke="#c9a876" stroke-width="1.5" opacity="0.7" transform="rotate(300 500 500)"></ellipse>
  </g>
  
  
  <circle cx="500" cy="300" r="3" fill="#d4a574" opacity="0.6"></circle>
  <circle cx="505" cy="310" r="2.5" fill="#d4a574" opacity="0.5"></circle>
  <circle cx="495" cy="315" r="2" fill="#d4a574" opacity="0.4"></circle>
  <circle cx="510" cy="325" r="3" fill="#d4a574" opacity="0.7"></circle>
  <circle cx="490" cy="330" r="2" fill="#d4a574" opacity="0.45"></circle>
  
  <circle cx="630" cy="360" r="3" fill="#d4a574" opacity="0.6"></circle>
  <circle cx="640" cy="355" r="2.5" fill="#d4a574" opacity="0.5"></circle>
  <circle cx="650" cy="365" r="2" fill="#d4a574" opacity="0.4"></circle>
  <circle cx="635" cy="375" r="3" fill="#d4a574" opacity="0.7"></circle>
  
  <circle cx="630" cy="640" r="3" fill="#d4a574" opacity="0.6"></circle>
  <circle cx="650" cy="645" r="2.5" fill="#d4a574" opacity="0.5"></circle>
  <circle cx="640" cy="655" r="2" fill="#d4a574" opacity="0.4"></circle>
  <circle cx="620" cy="650" r="3" fill="#d4a574" opacity="0.7"></circle>
  
  <circle cx="500" cy="700" r="3" fill="#d4a574" opacity="0.6"></circle>
  <circle cx="495" cy="690" r="2.5" fill="#d4a574" opacity="0.5"></circle>
  <circle cx="510" cy="685" r="2" fill="#d4a574" opacity="0.4"></circle>
  <circle cx="490" cy="670" r="3" fill="#d4a574" opacity="0.7"></circle>
  
  <circle cx="370" cy="640" r="3" fill="#d4a574" opacity="0.6"></circle>
  <circle cx="360" cy="645" r="2.5" fill="#d4a574" opacity="0.5"></circle>
  <circle cx="350" cy="655" r="2" fill="#d4a574" opacity="0.4"></circle>
  <circle cx="380" cy="650" r="3" fill="#d4a574" opacity="0.7"></circle>
  
  <circle cx="370" cy="360" r="3" fill="#d4a574" opacity="0.6"></circle>
  <circle cx="360" cy="355" r="2.5" fill="#d4a574" opacity="0.5"></circle>
  <circle cx="350" cy="365" r="2" fill="#d4a574" opacity="0.4"></circle>
  <circle cx="365" cy="375" r="3" fill="#d4a574" opacity="0.7"></circle>
  
  
  <g id="spiralFracture" opacity="0.65">
    <circle cx="500" cy="250" r="2.5" fill="#a89968"></circle>
    <circle cx="522" cy="258" r="2.2" fill="#a89968"></circle>
    <circle cx="540" cy="275" r="2" fill="#a89968"></circle>
    <circle cx="553" cy="298" r="2.3" fill="#a89968"></circle>
    <circle cx="560" cy="325" r="2.1" fill="#a89968"></circle>
    <circle cx="558" cy="353" r="2.4" fill="#a89968"></circle>
    <circle cx="550" cy="378" r="2" fill="#a89968"></circle>
    <circle cx="535" cy="398" r="2.2" fill="#a89968"></circle>
    <circle cx="515" cy="410" r="2.3" fill="#a89968"></circle>
    <circle cx="492" cy="415" r="2" fill="#a89968"></circle>
    <circle cx="468" cy="410" r="2.2" fill="#a89968"></circle>
    <circle cx="448" cy="398" r="2.1" fill="#a89968"></circle>
  </g>
  
  
  <path d="M 500 320 Q 510 330 505 345 Q 495 340 500 320" fill="none" stroke="#b8956a" stroke-width="1" opacity="0.5"></path>
  <path d="M 645 360 Q 655 365 650 380 Q 640 375 645 360" fill="none" stroke="#b8956a" stroke-width="1" opacity="0.5" transform="rotate(60 500 500)"></path>
  <path d="M 645 640 Q 655 645 650 660 Q 640 655 645 640" fill="none" stroke="#b8956a" stroke-width="1" opacity="0.5" transform="rotate(120 500 500)"></path>
  
  
  <circle cx="500" cy="280" r="1.5" fill="#c9a876" opacity="0.4"></circle>
  <circle cx="512" cy="285" r="1.5" fill="#c9a876" opacity="0.35"></circle>
  <circle cx="488" cy="290" r="1.5" fill="#c9a876" opacity="0.4"></circle>
  <circle cx="520" cy="275" r="1.2" fill="#c9a876" opacity="0.3"></circle>
  <circle cx="480" cy="278" r="1.2" fill="#c9a876" opacity="0.35"></circle>
  
  <circle cx="560" cy="300" r="1.5" fill="#c9a876" opacity="0.4"></circle>
  <circle cx="575" cy="310" r="1.5" fill="#c9a876" opacity="0.35"></circle>
  <circle cx="545" cy="315" r="1.5" fill="#c9a876" opacity="0.4"></circle>
  
  <circle cx="560" cy="700" r="1.5" fill="#c9a876" opacity="0.4"></circle>
  <circle cx="575" cy="690" r="1.5" fill="#c9a876" opacity="0.35"></circle>
  <circle cx="545" cy="685" r="1.5" fill="#c9a876" opacity="0.4"></circle>
  
  <circle cx="440" cy="300" r="1.5" fill="#c9a876" opacity="0.4"></circle>
  <circle cx="425" cy="310" r="1.5" fill="#c9a876" opacity="0.35"></circle>
  <circle cx="455" cy="315" r="1.5" fill="#c9a876" opacity="0.4"></circle>
  
  <circle cx="440" cy="700" r="1.5" fill="#c9a876" opacity="0.4"></circle>
  <circle cx="425" cy="690" r="1.5" fill="#c9a876" opacity="0.35"></circle>
  <circle cx="455" cy="685" r="1.5" fill="#c9a876" opacity="0.4"></circle>
  
  
  <circle cx="500" cy="500" r="120" fill="none" stroke="#d4a574" stroke-width="1" opacity="0.4"></circle>
  <circle cx="500" cy="500" r="95" fill="none" stroke="#b8956a" stroke-width="0.8" opacity="0.35"></circle>
  <circle cx="500" cy="500" r="70" fill="none" stroke="#8b7355" stroke-width="0.6" opacity="0.3"></circle>
  
  
  <line x1="500" y1="500" x2="500" y2="350" stroke="#a89968" stroke-width="0.5" opacity="0.25"></line>
  <line x1="500" y1="500" x2="620" y2="430" stroke="#a89968" stroke-width="0.5" opacity="0.25"></line>
  <line x1="500" y1="500" x2="620" y2="570" stroke="#a89968" stroke-width="0.5" opacity="0.25"></line>
  <line x1="500" y1="500" x2="500" y2="650" stroke="#a89968" stroke-width="0.5" opacity="0.25"></line>
  <line x1="500" y1="500" x2="380" y2="570" stroke="#a89968" stroke-width="0.5" opacity="0.25"></line>
  <line x1="500" y1="500" x2="380" y2="430" stroke="#a89968" stroke-width="0.5" opacity="0.25"></line>
  
  
  <circle cx="520" cy="420" r="2" fill="#d4a574" opacity="0.5"></circle>
  <circle cx="528" cy="415" r="1.5" fill="#d4a574" opacity="0.4"></circle>
  <circle cx="535" cy="425" r="1.8" fill="#d4a574" opacity="0.45"></circle>
  
  <circle cx="580" cy="480" r="2" fill="#d4a574" opacity="0.5"></circle>
  <circle cx="590" cy="485" r="1.5" fill="#d4a574" opacity="0.4"></circle>
  <circle cx="585" cy="495" r="1.8" fill="#d4a574" opacity="0.45"></circle>
  
  <circle cx="480" cy="580" r="2" fill="#d4a574" opacity="0.5"></circle>
  <circle cx="472" cy="585" r="1.5" fill="#d4a574" opacity="0.4"></circle>
  <circle cx="465" cy="575" r="1.8" fill="#d4a574" opacity="0.45"></circle>
  
  <circle cx="420" cy="520" r="2" fill="#d4a574" opacity="0.5"></circle>
  <circle cx="410" cy="515" r="1.5" fill="#d4a574" opacity="0.4"></circle>
  <circle cx="415" cy="505" r="1.8" fill="#d4a574" opacity="0.45"></circle>
  
  
  <ellipse cx="500" cy="220" rx="35" ry="70" fill="none" stroke="#a89968" stroke-width="1.2" opacity="0.6"></ellipse>
  <ellipse cx="645" cy="280" rx="35" ry="70" fill="none" stroke="#a89968" stroke-width="1.2" opacity="0.6" transform="rotate(60 500 500)"></ellipse>
  <ellipse cx="645" cy="720" rx="35" ry="70" fill="none" stroke="#a89968" stroke-width="1.2" opacity="0.6" transform="rotate(120 500 500)"></ellipse>
  <ellipse cx="500" cy="780" rx="35" ry="70" fill="none" stroke="#a89968" stroke-width="1.2" opacity="0.6" transform="rotate(180 500 500)"></ellipse>
  <ellipse cx="355" cy="720" rx="35" ry="70" fill="none" stroke="#a89968" stroke-width="1.2" opacity="0.6" transform="rotate(240 500 500)"></ellipse>
  <ellipse cx="355" cy="280" rx="35" ry="70" fill="none" stroke="#a89968" stroke-width="1.2" opacity="0.6" transform="rotate(300 500 500)"></ellipse>
  
  
  <circle cx="500" cy="500" r="25" fill="none" stroke="#8b7355" stroke-width="0.4" opacity="0.3"></circle>
  <circle cx="508" cy="505" r="3" fill="#8b7355" opacity="0.25"></circle>
  <circle cx="492" cy="495" r="2.5" fill="#8b7355" opacity="0.2"></circle>
  <circle cx="515" cy="515" r="2" fill="#8b7355" opacity="0.22"></circle>
  <circle cx="485" cy="485" r="2.2" fill="#8b7355" opacity="0.23"></circle>
  
  
  <path d="M 490 500 Q 495 502 500 501" fill="none" stroke="#6b5344" stroke-width="0.3" opacity="0.2"></path>
  <path d="M 510 500 Q 505 498 500 499" fill="none" stroke="#6b5344" stroke-width="0.3" opacity="0.2"></path>
  <path d="M 500 490 Q 502 495 501 500" fill="none" stroke="#6b5344" stroke-width="0.3" opacity="0.2"></path>
  <path d="M 500 510 Q 498 505 499 500" fill="none" stroke="#6b5344" stroke-width="0.3" opacity="0.2"></path>
</svg>