<svg viewBox="0 0 1000 1000" xmlns="http://www.w3.org/2000/svg">
  <defs>
    <linearGradient id="grad1" x1="0%" y1="0%" x2="100%" y2="100%">
      <stop offset="0%" style="stop-color:#8B7355;stop-opacity:1"></stop>
      <stop offset="100%" style="stop-color:#D4A574;stop-opacity:1"></stop>
    </linearGradient>
    <radialGradient id="grad2" cx="50%" cy="50%" r="50%">
      <stop offset="0%" style="stop-color:#E8D5C4;stop-opacity:1"></stop>
      <stop offset="100%" style="stop-color:#9B8B7E;stop-opacity:1"></stop>
    </radialGradient>
  </defs>
  
  
  <rect width="1000" height="1000" fill="#F5EFE7"></rect>
  
  
  <g id="cluster1">
    <rect x="80" y="120" width="45" height="45" fill="#A68B7E" stroke="#8B7355" stroke-width="1"></rect>
    <rect x="135" y="120" width="45" height="45" fill="#B5956E" stroke="#8B7355" stroke-width="1"></rect>
    <rect x="190" y="120" width="45" height="45" fill="#A68B7E" stroke="#8B7355" stroke-width="1"></rect>
    <rect x="80" y="175" width="45" height="45" fill="#C9A888" stroke="#8B7355" stroke-width="1"></rect>
    <circle cx="157.5" cy="197.5" r="18" fill="#D4A574" stroke="#8B7355" stroke-width="1"></circle>
    <rect x="190" y="175" width="45" height="45" fill="#A68B7E" stroke="#8B7355" stroke-width="1"></rect>
    <rect x="80" y="230" width="45" height="45" fill="#B5956E" stroke="#8B7355" stroke-width="1"></rect>
    <rect x="135" y="230" width="45" height="45" fill="#A68B7E" stroke="#8B7355" stroke-width="1"></rect>
    <circle cx="212.5" cy="252.5" r="18" fill="#D4A574" stroke="#8B7355" stroke-width="1"></circle>
    <rect x="80" y="285" width="45" height="45" fill="#C9A888" stroke="#8B7355" stroke-width="1"></rect>
    <rect x="135" y="285" width="45" height="45" fill="#B5956E" stroke="#8B7355" stroke-width="1"></rect>
    <rect x="190" y="285" width="45" height="45" fill="#A68B7E" stroke="#8B7355" stroke-width="1"></rect>
  </g>
  
  
  <g id="cluster2">
    <rect x="520" y="280" width="50" height="50" fill="#A68B7E" stroke="#8B7355" stroke-width="1"></rect>
    <rect x="580" y="280" width="50" height="50" fill="#B5956E" stroke="#8B7355" stroke-width="1"></rect>
    <rect x="640" y="280" width="50" height="50" fill="#C9A888" stroke="#8B7355" stroke-width="1"></rect>
    <rect x="700" y="280" width="50" height="50" fill="#A68B7E" stroke="#8B7355" stroke-width="1"></rect>
    <circle cx="555" cy="335" r="22" fill="#D4A574" stroke="#8B7355" stroke-width="1"></circle>
    <rect x="580" y="350" width="50" height="50" fill="#B5956E" stroke="#8B7355" stroke-width="1"></rect>
    <rect x="640" y="350" width="50" height="50" fill="#A68B7E" stroke="#8B7355" stroke-width="1"></rect>
    <circle cx="725" cy="385" r="22" fill="#D4A574" stroke="#8B7355" stroke-width="1"></circle>
    <rect x="520" y="420" width="50" height="50" fill="#C9A888" stroke="#8B7355" stroke-width="1"></rect>
    <rect x="580" y="420" width="50" height="50" fill="#A68B7E" stroke="#8B7355" stroke-width="1"></rect>
    <rect x="640" y="420" width="50" height="50" fill="#B5956E" stroke="#8B7355" stroke-width="1"></rect>
    <rect x="700" y="420" width="50" height="50" fill="#A68B7E" stroke="#8B7355" stroke-width="1"></rect>
    <circle cx="580" cy="490" r="22" fill="#D4A574" stroke="#8B7355" stroke-width="1"></circle>
    <rect x="640" y="490" width="50" height="50" fill="#C9A888" stroke="#8B7355" stroke-width="1"></rect>
  </g>
  
  
  <g id="cluster3">
    <rect x="100" y="550" width="40" height="40" fill="#B5956E" stroke="#8B7355" stroke-width="1"></rect>
    <rect x="150" y="550" width="40" height="40" fill="#A68B7E" stroke="#8B7355" stroke-width="1"></rect>
    <rect x="200" y="550" width="40" height="40" fill="#C9A888" stroke="#8B7355" stroke-width="1"></rect>
    <rect x="100" y="600" width="40" height="40" fill="#A68B7E" stroke="#8B7355" stroke-width="1"></rect>
    <circle cx="170" cy="630" r="18" fill="#D4A574" stroke="#8B7355" stroke-width="1"></circle>
    <rect x="200" y="600" width="40" height="40" fill="#B5956E" stroke="#8B7355" stroke-width="1"></rect>
    <rect x="100" y="650" width="40" height="40" fill="#C9A888" stroke="#8B7355" stroke-width="1"></rect>
    <rect x="150" y="650" width="40" height="40" fill="#A68B7E" stroke="#8B7355" stroke-width="1"></rect>
    <rect x="200" y="650" width="40" height="40" fill="#B5956E" stroke="#8B7355" stroke-width="1"></rect>
    <circle cx="135" cy="710" r="18" fill="#D4A574" stroke="#8B7355" stroke-width="1"></circle>
  </g>
  
  
  <line x1="250" y1="100" x2="850" y2="900" stroke="#C41E3A" stroke-width="28" stroke-linecap="round" opacity="0.9"></line>
  
  
  <line x1="150" y1="750" x2="750" y2="150" stroke="#E8B4A8" stroke-width="12" stroke-linecap="round" opacity="0.6"></line>
  
  
  <g id="emotional_core">
    <circle cx="500" cy="500" r="85" fill="none" stroke="#8B7355" stroke-width="2" opacity="0.5"></circle>
    <circle cx="500" cy="500" r="60" fill="none" stroke="#C41E3A" stroke-width="3" opacity="0.7"></circle>
    <circle cx="500" cy="500" r="35" fill="#D4A574" opacity="0.4"></circle>
    <circle cx="500" cy="500" r="15" fill="#C41E3A" opacity="0.8"></circle>
  </g>
  
  
  <rect x="420" y="650" width="35" height="35" fill="#C41E3A" stroke="#8B7355" stroke-width="1" opacity="0.8"></rect>
  <circle cx="480" cy="720" r="16" fill="#D4A574" stroke="#8B7355" stroke-width="1"></circle>
  <rect x="750" y="180" width="35" height="35" fill="#B5956E" stroke="#8B7355" stroke-width="1"></rect>
  <rect x="800" y="220" width="35" height="35" fill="#A68B7E" stroke="#8B7355" stroke-width="1"></rect>
  <circle cx="850" cy="320" r="18" fill="#C41E3A" stroke="#8B7355" stroke-width="1" opacity="0.9"></circle>
  
  
  <rect x="780" y="80" width="40" height="40" fill="#C9A888" stroke="#8B7355" stroke-width="1"></rect>
  <rect x="840" y="80" width="40" height="40" fill="#A68B7E" stroke="#8B7355" stroke-width="1"></rect>
  <circle cx="870" cy="145" r="16" fill="#D4A574" stroke="#8B7355" stroke-width="1"></circle>
  
  
  <rect x="700" y="700" width="45" height="45" fill="#B5956E" stroke="#8B7355" stroke-width="1"></rect>
  <rect x="760" y="700" width="45" height="45" fill="#C41E3A" stroke="#8B7355" stroke-width="1" opacity="0.85"></rect>
  <rect x="820" y="700" width="45" height="45" fill="#A68B7E" stroke="#8B7355" stroke-width="1"></rect>
  <rect x="700" y="760" width="45" height="45" fill="#C9A888" stroke="#8B7355" stroke-width="1"></rect>
  <circle cx="787.5" cy="795" r="20" fill="#D4A574" stroke="#8B7355" stroke-width="1"></circle>
  <rect x="820" y="760" width="45" height="45" fill="#B5956E" stroke="#8B7355" stroke-width="1"></rect>
  
  
  <ellipse cx="300" cy="800" rx="35" ry="28" fill="#C41E3A" stroke="#8B7355" stroke-width="2" opacity="0.9"></ellipse>
</svg>