<svg viewBox="0 0 1000 1000" xmlns="http://www.w3.org/2000/svg">
  <defs>
    <radialGradient id="vortex" cx="50%" cy="50%" r="50%">
      <stop offset="0%" style="stop-color:#2a1a0a;stop-opacity:1"></stop>
      <stop offset="40%" style="stop-color:#1a0a00;stop-opacity:1"></stop>
      <stop offset="100%" style="stop-color:#0a0500;stop-opacity:1"></stop>
    </radialGradient>
    <radialGradient id="rust" cx="30%" cy="30%" r="70%">
      <stop offset="0%" style="stop-color:#ff8844;stop-opacity:1"></stop>
      <stop offset="60%" style="stop-color:#cc4422;stop-opacity:1"></stop>
      <stop offset="100%" style="stop-color:#662200;stop-opacity:1"></stop>
    </radialGradient>
    <linearGradient id="amber" x1="0%" y1="0%" x2="100%" y2="100%">
      <stop offset="0%" style="stop-color:#ffaa44;stop-opacity:1"></stop>
      <stop offset="50%" style="stop-color:#dd6611;stop-opacity:1"></stop>
      <stop offset="100%" style="stop-color:#993300;stop-opacity:1"></stop>
    </linearGradient>
  </defs>

  
  <rect width="1000" height="1000" fill="url(#vortex)"></rect>

  
  <g id="outer-chaos">
    <circle cx="500" cy="500" r="420" fill="none" stroke="#3a2a1a" stroke-width="2" opacity="0.6"></circle>
    <circle cx="480" cy="510" r="410" fill="none" stroke="#4a3a2a" stroke-width="1.5" opacity="0.4"></circle>
    <circle cx="520" cy="490" r="415" fill="none" stroke="#2a1a0a" stroke-width="1" opacity="0.3"></circle>
  </g>

  
  <g id="outer-dots" opacity="0.85">
    <circle cx="650" cy="280" r="3.5" fill="#ff8844"></circle>
    <circle cx="680" cy="300" r="3" fill="#ffaa44"></circle>
    <circle cx="710" cy="330" r="3.2" fill="#ff7722"></circle>
    <circle cx="730" cy="370" r="2.8" fill="#ffaa44"></circle>
    <circle cx="740" cy="420" r="3.1" fill="#ff9933"></circle>
    <circle cx="735" cy="470" r="3.4" fill="#ff7722"></circle>
    <circle cx="710" cy="510" r="3" fill="#ffaa44"></circle>
    <circle cx="670" cy="540" r="3.2" fill="#ff8844"></circle>
    <circle cx="620" cy="560" r="2.9" fill="#ff9933"></circle>
    <circle cx="560" cy="570" r="3.3" fill="#ffaa44"></circle>
    <circle cx="500" cy="575" r="3" fill="#ff7722"></circle>
    <circle cx="440" cy="570" r="3.1" fill="#ff8844"></circle>
    <circle cx="380" cy="560" r="3.2" fill="#ff9933"></circle>
    <circle cx="330" cy="540" r="2.8" fill="#ffaa44"></circle>
    <circle cx="290" cy="510" r="3.4" fill="#ff7722"></circle>
    <circle cx="265" cy="470" r="3" fill="#ff8844"></circle>
    <circle cx="260" cy="420" r="3.2" fill="#ff9933"></circle>
    <circle cx="270" cy="370" r="3.1" fill="#ffaa44"></circle>
    <circle cx="290" cy="330" r="3.3" fill="#ff7722"></circle>
    <circle cx="320" cy="300" r="2.9" fill="#ff8844"></circle>
    <circle cx="350" cy="280" r="3.2" fill="#ff9933"></circle>
  </g>

  
  <g id="middle-petals">
    <path d="M 500 500 L 600 350 Q 650 320 680 300 L 650 400 Q 600 450 500 500 Z" fill="url(#rust)" opacity="0.7" stroke="#3a1a0a" stroke-width="1.5"></path>
    <path d="M 500 500 L 650 400 Q 720 380 750 350 L 700 420 Q 630 470 500 500 Z" fill="url(#amber)" opacity="0.65" stroke="#2a1a0a" stroke-width="1.5"></path>
    <path d="M 500 500 L 700 420 Q 760 410 800 420 L 720 480 Q 630 520 500 500 Z" fill="url(#rust)" opacity="0.7" stroke="#3a1a0a" stroke-width="1.5"></path>
    <path d="M 500 500 L 720 480 Q 780 500 800 550 L 700 520 Q 620 530 500 500 Z" fill="url(#amber)" opacity="0.65" stroke="#2a1a0a" stroke-width="1.5"></path>
    <path d="M 500 500 L 700 520 Q 760 570 750 630 L 660 570 Q 600 530 500 500 Z" fill="url(#rust)" opacity="0.7" stroke="#3a1a0a" stroke-width="1.5"></path>
    <path d="M 500 500 L 660 570 Q 640 630 600 680 L 580 600 Q 540 540 500 500 Z" fill="url(#amber)" opacity="0.65" stroke="#2a1a0a" stroke-width="1.5"></path>
    <path d="M 500 500 L 580 600 Q 520 660 450 690 L 480 590 Q 490 540 500 500 Z" fill="url(#rust)" opacity="0.7" stroke="#3a1a0a" stroke-width="1.5"></path>
    <path d="M 500 500 L 480 590 Q 400 630 330 650 L 400 560 Q 450 520 500 500 Z" fill="url(#amber)" opacity="0.65" stroke="#2a1a0a" stroke-width="1.5"></path>
    <path d="M 500 500 L 400 560 Q 310 580 250 580 L 360 510 Q 430 500 500 500 Z" fill="url(#rust)" opacity="0.7" stroke="#3a1a0a" stroke-width="1.5"></path>
    <path d="M 500 500 L 360 510 Q 280 500 240 450 L 340 490 Q 420 500 500 500 Z" fill="url(#amber)" opacity="0.65" stroke="#2a1a0a" stroke-width="1.5"></path>
    <path d="M 500 500 L 340 490 Q 260 450 240 370 L 360 430 Q 430 470 500 500 Z" fill="url(#rust)" opacity="0.7" stroke="#3a1a0a" stroke-width="1.5"></path>
    <path d="M 500 500 L 360 430 Q 300 370 310 290 L 400 380 Q 450 440 500 500 Z" fill="url(#amber)" opacity="0.65" stroke="#2a1a0a" stroke-width="1.5"></path>
  </g>

  
  <g id="lacerations" stroke="#1a0a00" stroke-width="2.5" fill="none" opacity="0.8">
    <path d="M 550 400 Q 600 380 650 420"></path>
    <path d="M 700 450 Q 750 420 780 480"></path>
    <path d="M 720 520 Q 760 560 750 620"></path>
    <path d="M 600 650 Q 640 680 580 700"></path>
    <path d="M 450 680 Q 400 710 340 690"></path>
    <path d="M 280 600 Q 230 610 200 550"></path>
    <path d="M 250 420 Q 200 400 230 330"></path>
    <path d="M 340 350 Q 310 280 380 250"></path>
  </g>

  
  <g id="inner-dots" opacity="0.9">
    <circle cx="500" cy="380" r="2.8" fill="#ffaa44"></circle>
    <circle cx="540" cy="370" r="2.5" fill="#ff8844"></circle>
    <circle cx="570" cy="390" r="2.6" fill="#ff9933"></circle>
    <circle cx="580" cy="430" r="2.7" fill="#ffaa44"></circle>
    <circle cx="560" cy="460" r="2.4" fill="#ff7722"></circle>
    <circle cx="520" cy="480" r="2.8" fill="#ff8844"></circle>
    <circle cx="480" cy="480" r="2.6" fill="#ff9933"></circle>
    <circle cx="440" cy="460" r="2.5" fill="#ffaa44"></circle>
    <circle cx="420" cy="430" r="2.7" fill="#ff7722"></circle>
    <circle cx="430" cy="390" r="2.6" fill="#ff8844"></circle>
    <circle cx="460" cy="370" r="2.8" fill="#ff9933"></circle>
    <circle cx="500" cy="360" r="2.5" fill="#ffaa44"></circle>
    <circle cx="520" cy="420" r="2.4" fill="#ff7722"></circle>
    <circle cx="480" cy="420" r="2.6" fill="#ff8844"></circle>
    <circle cx="500" cy="440" r="2.7" fill="#ff9933"></circle>
  </g>

  
  <circle cx="500" cy="500" r="85" fill="#cc1111" opacity="0.9"></circle>
  <circle cx="500" cy="500" r="75" fill="#ff2222" opacity="0.85"></circle>
  <circle cx="495" cy="495" r="65" fill="#ff4444" opacity="0.8"></circle>

  
  <g id="inner-petals" opacity="0.8">
    <path d="M 500 500 L 560 450 Q 580 430 600 450 L 560 480 Q 530 500 500 500 Z" fill="#ff6666" stroke="#aa0000" stroke-width="1"></path>
    <path d="M 500 500 L 560 480 Q 590 510 600 550 L 560 520 Q 530 510 500 500 Z" fill="#ff5555" stroke="#aa0000" stroke-width="1"></path>
    <path d="M 500 500 L 560 520 Q 570 560 540 580 L 520 540 Q 510 520 500 500 Z" fill="#ff6666" stroke="#aa0000" stroke-width="1"></path>
    <path d="M 500 500 L 520 540 Q 480 570 440 560 L 460 520 Q 480 510 500 500 Z" fill="#ff5555" stroke="#aa0000" stroke-width="1"></path>
    <path d="M 500 500 L 460 520 Q 410 490 400 450 L 440 480 Q 470 500 500 500 Z" fill="#ff6666" stroke="#aa0000" stroke-width="1"></path>
    <path d="M 500 500 L 440 480 Q 420 430 450 420 L 480 460 Q 490 490 500 500 Z" fill="#ff5555" stroke="#aa0000" stroke-width="1"></path>
  </g>

  
  <g id="center-dots" opacity="1">
    <circle cx="480" cy="480" r="2.2" fill="#ffaaaa"></circle>
    <circle cx="520" cy="480" r="2.2" fill="#ffaaaa"></circle>
    <circle cx="500" cy="460" r="2.2" fill="#ffaaaa"></circle>
    <circle cx="500" cy="520" r="2.2" fill="#ffaaaa"></circle>
    <circle cx="485" cy="495" r="2" fill="#ffcccc"></circle>
    <circle cx="515" cy="495" r="2" fill="#ffcccc"></circle>
    <circle cx="495" cy="485" r="2" fill="#ffcccc"></circle>
    <circle cx="505" cy="515" r="2" fill="#ffcccc"></circle>
    <circle cx="500" cy="500" r="3" fill="#ffffff" opacity="0.9"></circle>
  </g>

  
  <g id="fractal-chambers" stroke="#8b4513" stroke-width="1.2" fill="none" opacity="0.6">
    <circle cx="500" cy="500" r="160"></circle>
    <circle cx="500" cy="500" r="120"></circle>
    <circle cx="500" cy="500" r="85"></circle>
    <circle cx="500" cy="500" r="55"></circle>
  </g>

  
  <g id="ruptures" opacity="0.7">
    <ellipse cx="650" cy="350" rx="45" ry="35" fill="#ff8844" opacity="0.5" stroke="#4a2a0a" stroke-width="2"></ellipse>
    <ellipse cx="280" cy="380" rx="50" ry="30" fill="#ff9933" opacity="0.45" stroke="#4a2a0a" stroke-width="2"></ellipse>
    <ellipse cx="600" cy="680" rx="40" ry="45" fill="#ff7722" opacity="0.5" stroke="#4a2a0a" stroke-width="2"></ellipse>
    <ellipse cx="350" cy="650" rx="48" ry="35" fill="#ffaa44" opacity="0.45" stroke="#4a2a0a" stroke-width="2"></ellipse>
  </g>

  
  <g id="apotheosis" opacity="0.9">
    <path d="M 500 500 L 500 250 M 500 500 L 750 500 M 500 500 L 500 750 M 500 500 L 250 500" stroke="#ff2222" stroke-width="3"></path>
    <circle cx="500" cy="500" r="180" fill="none" stroke="#ff4444" stroke-width="2.5" stroke-dasharray="8,4" opacity="0.6"></circle>
  </g>
</svg>