<svg viewBox="0 0 1000 1000" xmlns="http://www.w3.org/2000/svg">
  <defs>
    <linearGradient id="grad1" x1="0%" y1="0%" x2="100%" y2="100%">
      <stop offset="0%" style="stop-color:#E63946;stop-opacity:1"></stop>
      <stop offset="100%" style="stop-color:#A4161A;stop-opacity:1"></stop>
    </linearGradient>
    <linearGradient id="grad2" x1="0%" y1="0%" x2="0%" y2="100%">
      <stop offset="0%" style="stop-color:#F1FAEE;stop-opacity:1"></stop>
      <stop offset="100%" style="stop-color:#E8F5E9;stop-opacity:1"></stop>
    </linearGradient>
  </defs>
  
  
  <rect width="1000" height="1000" fill="#F1FAEE"></rect>
  
  
  
  <rect x="0" y="0" width="150" height="200" fill="#E63946"></rect>
  <rect x="0" y="200" width="150" height="200" fill="#457B9D"></rect>
  <rect x="0" y="400" width="150" height="200" fill="#1D3557"></rect>
  <rect x="0" y="600" width="150" height="200" fill="#457B9D"></rect>
  <rect x="0" y="800" width="150" height="200" fill="#E63946"></rect>
  
  
  <rect x="150" y="0" width="150" height="200" fill="#457B9D"></rect>
  <rect x="150" y="200" width="150" height="200" fill="#F1FAEE"></rect>
  <rect x="150" y="400" width="150" height="200" fill="#E63946"></rect>
  <rect x="150" y="600" width="150" height="200" fill="#F1FAEE"></rect>
  <rect x="150" y="800" width="150" height="200" fill="#457B9D"></rect>
  
  
  <rect x="300" y="0" width="150" height="200" fill="#1D3557"></rect>
  <rect x="300" y="200" width="150" height="200" fill="#E63946"></rect>
  <rect x="300" y="400" width="150" height="200" fill="#457B9D"></rect>
  <rect x="300" y="600" width="150" height="200" fill="#E63946"></rect>
  <rect x="300" y="800" width="150" height="200" fill="#1D3557"></rect>
  
  
  <rect x="550" y="0" width="150" height="200" fill="#1D3557"></rect>
  <rect x="550" y="200" width="150" height="200" fill="#E63946"></rect>
  <rect x="550" y="400" width="150" height="200" fill="#457B9D"></rect>
  <rect x="550" y="600" width="150" height="200" fill="#E63946"></rect>
  <rect x="550" y="800" width="150" height="200" fill="#1D3557"></rect>
  
  
  <rect x="700" y="0" width="150" height="200" fill="#457B9D"></rect>
  <rect x="700" y="200" width="150" height="200" fill="#F1FAEE"></rect>
  <rect x="700" y="400" width="150" height="200" fill="#E63946"></rect>
  <rect x="700" y="600" width="150" height="200" fill="#F1FAEE"></rect>
  <rect x="700" y="800" width="150" height="200" fill="#457B9D"></rect>
  
  
  <rect x="850" y="0" width="150" height="200" fill="#E63946"></rect>
  <rect x="850" y="200" width="150" height="200" fill="#457B9D"></rect>
  <rect x="850" y="400" width="150" height="200" fill="#1D3557"></rect>
  <rect x="850" y="600" width="150" height="200" fill="#457B9D"></rect>
  <rect x="850" y="800" width="150" height="200" fill="#E63946"></rect>
  
  
  
  <circle cx="75" cy="100" r="35" fill="#F1FAEE" opacity="0.8"></circle>
  <circle cx="225" cy="100" r="35" fill="#1D3557" opacity="0.7"></circle>
  <circle cx="375" cy="100" r="35" fill="#F1FAEE" opacity="0.8"></circle>
  <circle cx="625" cy="100" r="35" fill="#F1FAEE" opacity="0.8"></circle>
  <circle cx="775" cy="100" r="35" fill="#1D3557" opacity="0.7"></circle>
  <circle cx="925" cy="100" r="35" fill="#F1FAEE" opacity="0.8"></circle>
  
  
  <circle cx="75" cy="500" r="40" fill="#F1FAEE" opacity="0.7"></circle>
  <circle cx="225" cy="500" r="40" fill="#E63946" opacity="0.6"></circle>
  <circle cx="375" cy="500" r="40" fill="#F1FAEE" opacity="0.7"></circle>
  <circle cx="625" cy="500" r="40" fill="#F1FAEE" opacity="0.7"></circle>
  <circle cx="775" cy="500" r="40" fill="#E63946" opacity="0.6"></circle>
  <circle cx="925" cy="500" r="40" fill="#F1FAEE" opacity="0.7"></circle>
  
  
  <circle cx="75" cy="900" r="35" fill="#F1FAEE" opacity="0.8"></circle>
  <circle cx="225" cy="900" r="35" fill="#1D3557" opacity="0.7"></circle>
  <circle cx="375" cy="900" r="35" fill="#F1FAEE" opacity="0.8"></circle>
  <circle cx="625" cy="900" r="35" fill="#F1FAEE" opacity="0.8"></circle>
  <circle cx="775" cy="900" r="35" fill="#1D3557" opacity="0.7"></circle>
  <circle cx="925" cy="900" r="35" fill="#F1FAEE" opacity="0.8"></circle>
  
  
  <line x1="0" y1="200" x2="1000" y2="200" stroke="#1D3557" stroke-width="2" opacity="0.3"></line>
  <line x1="0" y1="400" x2="1000" y2="400" stroke="#1D3557" stroke-width="2" opacity="0.3"></line>
  <line x1="0" y1="600" x2="1000" y2="600" stroke="#1D3557" stroke-width="2" opacity="0.3"></line>
  <line x1="0" y1="800" x2="1000" y2="800" stroke="#1D3557" stroke-width="2" opacity="0.3"></line>
  
  <line x1="150" y1="0" x2="150" y2="1000" stroke="#1D3557" stroke-width="2" opacity="0.3"></line>
  <line x1="300" y1="0" x2="300" y2="1000" stroke="#1D3557" stroke-width="2" opacity="0.3"></line>
  <line x1="550" y1="0" x2="550" y2="1000" stroke="#1D3557" stroke-width="2" opacity="0.3"></line>
  <line x1="700" y1="0" x2="700" y2="1000" stroke="#1D3557" stroke-width="2" opacity="0.3"></line>
  <line x1="850" y1="0" x2="850" y2="1000" stroke="#1D3557" stroke-width="2" opacity="0.3"></line>
  
  
  <rect x="60" y="250" width="30" height="30" fill="#E63946" opacity="0.6"></rect>
  <rect x="210" y="450" width="30" height="30" fill="#457B9D" opacity="0.6"></rect>
  <rect x="360" y="650" width="30" height="30" fill="#1D3557" opacity="0.6"></rect>
  <rect x="610" y="250" width="30" height="30" fill="#E63946" opacity="0.6"></rect>
  <rect x="760" y="450" width="30" height="30" fill="#457B9D" opacity="0.6"></rect>
  <rect x="910" y="650" width="30" height="30" fill="#1D3557" opacity="0.6"></rect>
  
  
  <rect x="420" y="470" width="160" height="60" fill="#E63946" opacity="0.5"></rect>
  <rect x="425" y="475" width="150" height="50" fill="#F1FAEE" opacity="0.4"></rect>
  
  
  <rect x="10" y="10" width="40" height="40" fill="none" stroke="#1D3557" stroke-width="3"></rect>
  <rect x="950" y="10" width="40" height="40" fill="none" stroke="#1D3557" stroke-width="3"></rect>
  <rect x="10" y="950" width="40" height="40" fill="none" stroke="#1D3557" stroke-width="3"></rect>
  <rect x="950" y="950" width="40" height="40" fill="none" stroke="#1D3557" stroke-width="3"></rect>
</svg>