<svg viewBox="0 0 1000 1000" xmlns="http://www.w3.org/2000/svg">
  <defs>
    <linearGradient id="grad1" x1="0%" y1="0%" x2="100%" y2="100%">
      <stop offset="0%" style="stop-color:#2a2a2a;stop-opacity:1"></stop>
      <stop offset="100%" style="stop-color:#0f0f0f;stop-opacity:1"></stop>
    </linearGradient>
    <radialGradient id="grad2" cx="50%" cy="50%" r="50%">
      <stop offset="0%" style="stop-color:#e8d5c4;stop-opacity:0.9"></stop>
      <stop offset="100%" style="stop-color:#8b7d6b;stop-opacity:0.4"></stop>
    </radialGradient>
    <radialGradient id="grad3" cx="50%" cy="50%" r="60%">
      <stop offset="0%" style="stop-color:#d4a574;stop-opacity:0.8"></stop>
      <stop offset="100%" style="stop-color:#4a4a4a;stop-opacity:0.2"></stop>
    </radialGradient>
    <filter id="tremor">
      <feTurbulence type="fractalNoise" baseFrequency="0.03" numOctaves="2" result="noise" seed="3"></feTurbulence>
      <feDisplacementMap in="SourceGraphic" in2="noise" scale="1.5"></feDisplacementMap>
    </filter>
  </defs>
  
  
  <rect width="1000" height="1000" fill="url(#grad1)"></rect>
  
  
  <circle cx="500" cy="500" r="420" fill="none" stroke="#3a3a3a" stroke-width="2" opacity="0.6"></circle>
  <circle cx="500" cy="500" r="415" fill="none" stroke="#1a1a1a" stroke-width="1" opacity="0.4" stroke-dasharray="8,12"></circle>
  
  
  <path d="M 500 100 Q 520 150 510 200 Q 490 220 500 250" fill="none" stroke="#c9a87a" stroke-width="1.2" opacity="0.45" filter="url(#tremor)"></path>
  <path d="M 500 100 Q 480 160 495 210 Q 515 225 505 260" fill="none" stroke="#a89968" stroke-width="1" opacity="0.35" filter="url(#tremor)"></path>
  <path d="M 900 500 Q 850 480 800 495 Q 770 510 740 500" fill="none" stroke="#c9a87a" stroke-width="1.2" opacity="0.4" filter="url(#tremor)"></path>
  
  
  <circle cx="650" cy="350" r="35" fill="#e8d5c4" opacity="0.15"></circle>
  <circle cx="650" cy="350" r="28" fill="#d4a574" opacity="0.08"></circle>
  <circle cx="350" cy="650" r="40" fill="#e8d5c4" opacity="0.12"></circle>
  <circle cx="350" cy="650" r="32" fill="#d4a574" opacity="0.06"></circle>
  
  
  <g opacity="0.9">
    <circle cx="500" cy="500" r="350" fill="none" stroke="#4a4a4a" stroke-width="1.5"></circle>
    
    
    <ellipse cx="500" cy="280" rx="45" ry="65" fill="none" stroke="#5a5a5a" stroke-width="1"></ellipse>
    
    
    <circle cx="500" cy="270" r="2.5" fill="#e8d5c4" opacity="0.8"></circle>
    <circle cx="508" cy="272" r="2" fill="#e8d5c4" opacity="0.7"></circle>
    <circle cx="515" cy="278" r="2" fill="#d4a574" opacity="0.65"></circle>
    <circle cx="518" cy="288" r="1.8" fill="#d4a574" opacity="0.6"></circle>
    <circle cx="515" cy="300" r="1.6" fill="#c9a87a" opacity="0.55"></circle>
    <circle cx="508" cy="308" r="1.5" fill="#c9a87a" opacity="0.5"></circle>
    <circle cx="500" cy="312" r="1.4" fill="#8b7d6b" opacity="0.45"></circle>
    <circle cx="492" cy="308" r="1.5" fill="#8b7d6b" opacity="0.5"></circle>
    <circle cx="485" cy="300" r="1.6" fill="#c9a87a" opacity="0.55"></circle>
    <circle cx="482" cy="288" r="1.8" fill="#d4a574" opacity="0.6"></circle>
  </g>
  
  
  <path d="M 300 200 L 305 250 L 300 300 L 302 350 L 298 400" fill="none" stroke="#8b7d6b" stroke-width="0.8" opacity="0.3" stroke-dasharray="3,5"></path>
  <path d="M 700 180 L 705 240 L 700 320 L 698 380 L 702 450" fill="none" stroke="#8b7d6b" stroke-width="0.8" opacity="0.3" stroke-dasharray="3,5"></path>
  
  
  <circle cx="500" cy="500" r="280" fill="none" stroke="#3a3a3a" stroke-width="1.5" opacity="0.7"></circle>
  
  
  <ellipse cx="500" cy="230" rx="38" ry="55" fill="none" stroke="#5a5a5a" stroke-width="1"></ellipse>
  
  
  <circle cx="500" cy="220" r="2.2" fill="#e8d5c4" opacity="0.75"></circle>
  <circle cx="507" cy="222" r="1.9" fill="#d4a574" opacity="0.65"></circle>
  <circle cx="512" cy="230" r="1.7" fill="#d4a574" opacity="0.58"></circle>
  <circle cx="513" cy="243" r="1.5" fill="#c9a87a" opacity="0.5"></circle>
  <circle cx="508" cy="253" r="1.4" fill="#8b7d6b" opacity="0.45"></circle>
  <circle cx="500" cy="258" r="1.3" fill="#8b7d6b" opacity="0.4"></circle>
  <circle cx="492" cy="253" r="1.4" fill="#c9a87a" opacity="0.45"></circle>
  <circle cx="487" cy="243" r="1.5" fill="#d4a574" opacity="0.5"></circle>
  <circle cx="488" cy="230" r="1.7" fill="#d4a574" opacity="0.58"></circle>
  <circle cx="493" cy="222" r="1.9" fill="#e8d5c4" opacity="0.65"></circle>
  
  
  <ellipse cx="730" cy="500" rx="55" ry="38" fill="none" stroke="#5a5a5a" stroke-width="1"></ellipse>
  
  
  <circle cx="740" cy="500" r="2.2" fill="#e8d5c4" opacity="0.75"></circle>
  <circle cx="742" cy="507" r="1.9" fill="#d4a574" opacity="0.65"></circle>
  <circle cx="750" cy="512" r="1.7" fill="#d4a574" opacity="0.58"></circle>
  <circle cx="763" cy="513" r="1.5" fill="#c9a87a" opacity="0.5"></circle>
  <circle cx="773" cy="508" r="1.4" fill="#8b7d6b" opacity="0.45"></circle>
  <circle cx="778" cy="500" r="1.3" fill="#8b7d6b" opacity="0.4"></circle>
  <circle cx="773" cy="492" r="1.4" fill="#c9a87a" opacity="0.45"></circle>
  <circle cx="763" cy="487" r="1.5" fill="#d4a574" opacity="0.5"></circle>
  <circle cx="750" cy="488" r="1.7" fill="#d4a574" opacity="0.58"></circle>
  <circle cx="742" cy="493" r="1.9" fill="#e8d5c4" opacity="0.65"></circle>
  
  
  <ellipse cx="500" cy="770" rx="38" ry="55" fill="none" stroke="#5a5a5a" stroke-width="1"></ellipse>
  
  
  <circle cx="500" cy="780" r="2.2" fill="#e8d5c4" opacity="0.75"></circle>
  <circle cx="507" cy="778" r="1.9" fill="#d4a574" opacity="0.65"></circle>
  <circle cx="512" cy="770" r="1.7" fill="#d4a574" opacity="0.58"></circle>
  <circle cx="513" cy="757" r="1.5" fill="#c9a87a" opacity="0.5"></circle>
  <circle cx="508" cy="747" r="1.4" fill="#8b7d6b" opacity="0.45"></circle>
  <circle cx="500" cy="742" r="1.3" fill="#8b7d6b" opacity="0.4"></circle>
  <circle cx="492" cy="747" r="1.4" fill="#c9a87a" opacity="0.45"></circle>
  <circle cx="487" cy="757" r="1.5" fill="#d4a574" opacity="0.5"></circle>
  <circle cx="488" cy="770" r="1.7" fill="#d4a574" opacity="0.58"></circle>
  <circle cx="493" cy="778" r="1.9" fill="#e8d5c4" opacity="0.65"></circle>
  
  
  <ellipse cx="270" cy="500" rx="55" ry="38" fill="none" stroke="#5a5a5a" stroke-width="1"></ellipse>
  
  
  <circle cx="260" cy="500" r="2.2" fill="#e8d5c4" opacity="0.75"></circle>
  <circle cx="258" cy="507" r="1.9" fill="#d4a574" opacity="0.65"></circle>
  <circle cx="250" cy="512" r="1.7" fill="#d4a574" opacity="0.58"></circle>
  <circle cx="237" cy="513" r="1.5" fill="#c9a87a" opacity="0.5"></circle>
  <circle cx="227" cy="508" r="1.4" fill="#8b7d6b" opacity="0.45"></circle>
  <circle cx="222" cy="500" r="1.3" fill="#8b7d6b" opacity="0.4"></circle>
  <circle cx="227" cy="492" r="1.4" fill="#c9a87a" opacity="0.45"></circle>
  <circle cx="237" cy="487" r="1.5" fill="#d4a574" opacity="0.5"></circle>
  <circle cx="250" cy="488" r="1.7" fill="#d4a574" opacity="0.58"></circle>
  <circle cx="258" cy="493" r="1.9" fill="#e8d5c4" opacity="0.65"></circle>
  
  
  <circle cx="500" cy="500" r="210" fill="none" stroke="#2a2a2a" stroke-width="1.5" opacity="0.8"></circle>
  
  
  <circle cx="500" cy="500" r="140" fill="none" stroke="#4a4a4a" stroke-width="2" opacity="0.5"></circle>
  <circle cx="500" cy="500" r="138" fill="none" stroke="#1a1a1a" stroke-width="0.8" stroke-dasharray="5,8" opacity="0.3"></circle>
  
  
  <path d="M 500 360 Q 502 380 500 400 Q 498 415 500 430" fill="none" stroke="#d4a574" stroke-width="1" opacity="0.35" filter="url(#tremor)"></path>
  <path d="M 500 360 Q 498 385 500 405 Q 502 420 500 440" fill="none" stroke="#c9a87a" stroke-width="0.8" opacity="0.25" filter="url(#tremor)"></path>
  
  
  <circle cx="500" cy="480" r="1.8" fill="#e8d5c4" opacity="0.9"></circle>
  <circle cx="505" cy="482" r="1.6" fill="#e8d5c4" opacity="0.85"></circle>
  <circle cx="510" cy="488" r="1.5" fill="#d4a574" opacity="0.8"></circle>
  <circle cx="512" cy="498" r="1.4" fill="#d4a574" opacity="0.75"></circle>
  <circle cx="508" cy="508" r="1.3" fill="#c9a87a" opacity="0.7"></circle>
  <circle cx="500" cy="512" r="1.2" fill="#8b7d6b" opacity="0.65"></circle>
  <circle cx="492" cy="508" r="1.3" fill="#c9a87a" opacity="0.7"></circle>
  <circle cx="488" cy="498" r="1.4" fill="#d4a574" opacity="0.75"></circle>
  <circle cx="490" cy="488" r="1.5" fill="#d4a574" opacity="0.8"></circle>
  <circle cx="495" cy="482" r="1.6" fill="#e8d5c4" opacity="0.85"></circle>
  
  
  <path d="M 450 500 L 470 505 L 480 500 L 485 515" fill="none" stroke="#e8d5c4" stroke-width="1.2" opacity="0.4" stroke-linecap="round"></path>
  <path d="M 550 500 L 530 505 L 520 500 L 515 515" fill="none" stroke="#e8d5c4" stroke-width="1.2" opacity="0.4" stroke-linecap="round"></path>
  <path d="M 500 450 L 505 470 L 500 480 L 515 485" fill="none" stroke="#d4a574" stroke-width="1" opacity="0.35" stroke-linecap="round"></path>
  
  
  <path d="M 350 350 Q 400 380 430 420" fill="none" stroke="#8b7d6b" stroke-width="0.9" opacity="0.25" stroke-dasharray="2,4" filter="url(#tremor)"></path>
  <path d="M 650 650 Q 600 620 570 580" fill="none" stroke="#8b7d6b" stroke-width="0.9" opacity="0.25" stroke-dasharray="2,4" filter="url(#tremor)"></path>
  <path d="M 600 350 Q 550 380 520 420" fill="none" stroke="#c9a87a" stroke-width="0.8" opacity="0.2" stroke-dasharray="2,4"></path>
  
  
  <circle cx="380" cy="420" r="2.8" fill="#d4a574" opacity="0.7"></circle>
  <circle cx="620" cy="580" r="2.8" fill="#d4a574" opacity="0.7"></circle>
  <circle cx="600" cy="420" r="2.5" fill="#e8d5c4" opacity="0.6"></circle>
  <circle cx="400" cy="580" r="2.5" fill="#e8d5c4" opacity="0.6"></circle>
  
  
  <ellipse cx="500" cy="500" rx="100" ry="95" fill="none" stroke="#3a3a3a" stroke-width="1" opacity="0.4" stroke-dasharray="4,6"></ellipse>
  <ellipse cx="500" cy="500" rx="70" ry="68" fill="none" stroke="#2a2a2a" stroke-width="0.8" opacity="0.3" stroke-dasharray="3,5"></ellipse>
  
  
  <line x1="500" y1="500" x2="520" y2="420" stroke="#8b7d6b" stroke-width="0.7" opacity="0.2"></line>
  <line x1="500" y1="500" x2="480" y2="580" stroke="#8b7d6b" stroke-width="0.7" opacity="0.2"></line>
  <line x1="500" y1="500" x2="600" y2="510" stroke="#8b7d6b" stroke-width="0.7" opacity="0.2"></line>
  <line x1="500" y1="500" x2="400" y2="490" stroke="#8b7d6b" stroke-width="0.7" opacity="0.2"></line>
  
  
  <circle cx="540" cy="350" r="1.5" fill="#c9a87a" opacity="0.5"></circle>
  <circle cx="460" cy="650" r="1.5" fill="#c9a87a" opacity="0.5"></circle>
  <circle cx="650" cy="470" r="1.3" fill="#d4a574" opacity="0.45"></circle>
  <circle cx="350" cy="530" r="1.3" fill="#d4a574" opacity="0.45"></circle>
</svg>