<svg viewBox="0 0 1000 1000" xmlns="http://www.w3.org/2000/svg">
  <defs>
    <linearGradient id="bleedGrad" x1="0%" y1="0%" x2="100%" y2="100%">
      <stop offset="0%" style="stop-color:#1a1a1a;stop-opacity:1"></stop>
      <stop offset="50%" style="stop-color:#2a2a2a;stop-opacity:1"></stop>
      <stop offset="100%" style="stop-color:#0a0a0a;stop-opacity:1"></stop>
    </linearGradient>
    <radialGradient id="pulseRed" cx="50%" cy="50%" r="50%">
      <stop offset="0%" style="stop-color:#ff3333;stop-opacity:0.9"></stop>
      <stop offset="40%" style="stop-color:#cc0000;stop-opacity:0.7"></stop>
      <stop offset="100%" style="stop-color:#330000;stop-opacity:0.2"></stop>
    </radialGradient>
    <radialGradient id="whiteBleed" cx="45%" cy="45%" r="60%">
      <stop offset="0%" style="stop-color:#ffffff;stop-opacity:0.8"></stop>
      <stop offset="30%" style="stop-color:#ffcccc;stop-opacity:0.4"></stop>
      <stop offset="100%" style="stop-color:#ffffff;stop-opacity:0"></stop>
    </radialGradient>
  </defs>

  
  <rect width="1000" height="1000" fill="url(#bleedGrad)"></rect>

  
  <g opacity="0.15">
    <path d="M 180 120 L 280 120 L 280 200 L 220 200 L 220 160 L 180 160 Z" fill="#ff3333" stroke="#ffffff" stroke-width="1"></path>
    <circle cx="200" cy="140" r="8" fill="none" stroke="#ffffff" stroke-width="0.5"></circle>
    <circle cx="240" cy="180" r="6" fill="none" stroke="#ff3333" stroke-width="0.5"></circle>
  </g>

  
  <g id="leftCluster">
    <circle cx="150" cy="250" r="3" fill="#ffffff" opacity="0.9"></circle>
    <circle cx="165" cy="265" r="2.5" fill="#ff3333" opacity="0.8"></circle>
    <circle cx="140" cy="280" r="2" fill="#ffffff" opacity="0.7"></circle>
    <circle cx="175" cy="290" r="3" fill="#ff3333" opacity="0.6"></circle>
    <circle cx="130" cy="310" r="2.5" fill="#ffffff" opacity="0.8"></circle>
    <circle cx="185" cy="315" r="2" fill="#ff3333" opacity="0.7"></circle>
    <circle cx="145" cy="335" r="3" fill="#ffffff" opacity="0.9"></circle>
    <circle cx="170" cy="345" r="2.5" fill="#ff3333" opacity="0.75"></circle>
  </g>

  
  <g opacity="0.22">
    <ellipse cx="780" cy="280" rx="35" ry="45" fill="none" stroke="#ffffff" stroke-width="1.5"></ellipse>
    <circle cx="765" cy="265" r="5" fill="none" stroke="#ff3333" stroke-width="1"></circle>
    <circle cx="795" cy="265" r="5" fill="none" stroke="#ff3333" stroke-width="1"></circle>
    <path d="M 760 295 Q 780 305 800 295" fill="none" stroke="#ffffff" stroke-width="1"></path>
    <path d="M 775 320 L 785 320" stroke="#ff3333" stroke-width="1.5"></path>
  </g>

  
  <circle cx="420" cy="450" r="120" fill="url(#pulseRed)"></circle>
  <circle cx="420" cy="450" r="100" fill="url(#whiteBleed)" opacity="0.6"></circle>
  
  
  <circle cx="420" cy="450" r="140" fill="none" stroke="#ff3333" stroke-width="2" opacity="0.5" stroke-dasharray="8,6"></circle>
  <circle cx="420" cy="450" r="85" fill="none" stroke="#ffffff" stroke-width="1.5" opacity="0.4"></circle>
  <circle cx="420" cy="450" r="55" fill="none" stroke="#ff3333" stroke-width="1" opacity="0.6" stroke-dasharray="4,4"></circle>

  
  <g id="centerField">
    <circle cx="400" cy="430" r="2" fill="#ffffff" opacity="0.85"></circle>
    <circle cx="425" cy="420" r="2.5" fill="#ff3333" opacity="0.75"></circle>
    <circle cx="410" cy="455" r="2" fill="#ffffff" opacity="0.8"></circle>
    <circle cx="440" cy="445" r="2.5" fill="#ff3333" opacity="0.7"></circle>
    <circle cx="395" cy="470" r="2" fill="#ffffff" opacity="0.75"></circle>
    <circle cx="450" cy="460" r="2.5" fill="#ff3333" opacity="0.65"></circle>
    <circle cx="420" cy="490" r="2" fill="#ffffff" opacity="0.8"></circle>
    <circle cx="460" cy="480" r="2.5" fill="#ff3333" opacity="0.7"></circle>
    <circle cx="380" cy="440" r="2" fill="#ffffff" opacity="0.7"></circle>
    <circle cx="470" cy="430" r="2.5" fill="#ff3333" opacity="0.65"></circle>
    <circle cx="385" cy="510" r="2" fill="#ffffff" opacity="0.75"></circle>
    <circle cx="455" cy="510" r="2" fill="#ff3333" opacity="0.6"></circle>
  </g>

  
  <g opacity="0.18">
    <rect x="720" y="480" width="30" height="35" fill="none" stroke="#ff3333" stroke-width="1"></rect>
    <line x1="735" y1="480" x2="735" y2="515" stroke="#ffffff" stroke-width="0.5"></line>
    <line x1="720" y1="497" x2="750" y2="497" stroke="#ffffff" stroke-width="0.5"></line>
    <circle cx="780" cy="520" r="6" fill="none" stroke="#ff3333" stroke-width="1"></circle>
  </g>

  
  <g opacity="0.12">
    <line x1="120" y1="650" x2="180" y2="650" stroke="#ffffff" stroke-width="0.5"></line>
    <line x1="120" y1="670" x2="180" y2="670" stroke="#ff3333" stroke-width="0.5"></line>
    <line x1="120" y1="690" x2="180" y2="690" stroke="#ffffff" stroke-width="0.5"></line>
    <line x1="140" y1="650" x2="140" y2="690" stroke="#ff3333" stroke-width="0.5"></line>
    <line x1="160" y1="650" x2="160" y2="690" stroke="#ffffff" stroke-width="0.5"></line>
  </g>

  
  <g id="bottomRight">
    <circle cx="800" cy="750" r="2" fill="#ff3333" opacity="0.7"></circle>
    <circle cx="825" cy="765" r="2.5" fill="#ffffff" opacity="0.75"></circle>
    <circle cx="790" cy="785" r="2" fill="#ff3333" opacity="0.6"></circle>
    <circle cx="840" cy="800" r="2" fill="#ffffff" opacity="0.65"></circle>
    <circle cx="810" cy="820" r="2.5" fill="#ff3333" opacity="0.55"></circle>
  </g>

  
  <g opacity="0.1">
    <polygon points="850,150 880,140 875,180 850,175" fill="none" stroke="#ffffff" stroke-width="1"></polygon>
    <circle cx="865" cy="160" r="4" fill="none" stroke="#ff3333" stroke-width="0.5"></circle>
  </g>

  
  <g id="coreTremor">
    <circle cx="420" cy="415" r="1.5" fill="#ffffff" opacity="0.9"></circle>
    <circle cx="430" cy="450" r="1.5" fill="#ff3333" opacity="0.85"></circle>
    <circle cx="415" cy="460" r="1.5" fill="#ffffff" opacity="0.8"></circle>
    <circle cx="405" cy="445" r="1.5" fill="#ff3333" opacity="0.75"></circle>
    <circle cx="435" cy="435" r="1.5" fill="#ffffff" opacity="0.8"></circle>
    <circle cx="410" cy="420" r="1.5" fill="#ff3333" opacity="0.7"></circle>
  </g>

  
  <line x1="620" y1="200" x2="620" y2="700" stroke="#ff3333" stroke-width="1" opacity="0.25" stroke-dasharray="20,10"></line>

  
  <circle cx="650" cy="350" r="1.5" fill="#ffffff" opacity="0.6"></circle>
  <circle cx="700" cy="400" r="1.5" fill="#ff3333" opacity="0.5"></circle>
  <circle cx="680" cy="550" r="1.5" fill="#ffffff" opacity="0.55"></circle>
  <circle cx="720" cy="600" r="1.5" fill="#ff3333" opacity="0.45"></circle>

  
  <g id="voidCluster">
    <circle cx="250" cy="680" r="2" fill="#ffffff" opacity="0.7"></circle>
    <circle cx="270" cy="695" r="2" fill="#ff3333" opacity="0.6"></circle>
    <circle cx="240" cy="710" r="2" fill="#ffffff" opacity="0.65"></circle>
    <circle cx="280" cy="720" r="2" fill="#ff3333" opacity="0.55"></circle>
  </g>

  
  <ellipse cx="100" cy="100" rx="80" ry="100" fill="none" stroke="#ffffff" stroke-width="0.5" opacity="0.1" stroke-dasharray="6,4"></ellipse>
</svg>