<svg viewBox="0 0 1000 1000" xmlns="http://www.w3.org/2000/svg">
  <defs>
    <linearGradient id="accentGrad" x1="0%" y1="0%" x2="100%" y2="100%">
      <stop offset="0%" style="stop-color:#FF00FF;stop-opacity:1"></stop>
      <stop offset="100%" style="stop-color:#00FFFF;stop-opacity:1"></stop>
    </linearGradient>
  </defs>
  
  
  <rect width="1000" height="1000" fill="#FFFFFF"></rect>
  
  
  <circle cx="500" cy="500" r="380" fill="none" stroke="#000000" stroke-width="1.5"></circle>
  <circle cx="500" cy="500" r="360" fill="none" stroke="#000000" stroke-width="1"></circle>
  <circle cx="500" cy="500" r="340" fill="none" stroke="#000000" stroke-width="1.5"></circle>
  <circle cx="500" cy="500" r="320" fill="none" stroke="#000000" stroke-width="1"></circle>
  <circle cx="500" cy="500" r="300" fill="none" stroke="#000000" stroke-width="1.5"></circle>
  <circle cx="500" cy="500" r="280" fill="none" stroke="#000000" stroke-width="1"></circle>
  <circle cx="500" cy="500" r="260" fill="none" stroke="#000000" stroke-width="1.5"></circle>
  <circle cx="500" cy="500" r="240" fill="none" stroke="#000000" stroke-width="1"></circle>
  <circle cx="500" cy="500" r="220" fill="none" stroke="#000000" stroke-width="1.5"></circle>
  <circle cx="500" cy="500" r="200" fill="none" stroke="#000000" stroke-width="1"></circle>
  <circle cx="500" cy="500" r="180" fill="none" stroke="#000000" stroke-width="1.5"></circle>
  <circle cx="500" cy="500" r="160" fill="none" stroke="#000000" stroke-width="1"></circle>
  <circle cx="500" cy="500" r="140" fill="none" stroke="#000000" stroke-width="1.5"></circle>
  <circle cx="500" cy="500" r="120" fill="none" stroke="#000000" stroke-width="1"></circle>
  <circle cx="500" cy="500" r="100" fill="none" stroke="#000000" stroke-width="1.5"></circle>
  
  
  <line x1="500" y1="500" x2="500" y2="120" stroke="#000000" stroke-width="1.2"></line>
  <line x1="500" y1="500" x2="565" y2="135" stroke="#000000" stroke-width="1"></line>
  <line x1="500" y1="500" x2="620" y2="170" stroke="#000000" stroke-width="1.2"></line>
  <line x1="500" y1="500" x2="660" y2="220" stroke="#000000" stroke-width="1"></line>
  <line x1="500" y1="500" x2="690" y2="280" stroke="#000000" stroke-width="1.2"></line>
  <line x1="500" y1="500" x2="710" y2="350" stroke="#000000" stroke-width="1"></line>
  <line x1="500" y1="500" x2="720" y2="420" stroke="#000000" stroke-width="1.2"></line>
  <line x1="500" y1="500" x2="720" y2="500" stroke="#000000" stroke-width="1"></line>
  <line x1="500" y1="500" x2="720" y2="580" stroke="#000000" stroke-width="1.2"></line>
  <line x1="500" y1="500" x2="710" y2="650" stroke="#000000" stroke-width="1"></line>
  <line x1="500" y1="500" x2="690" y2="720" stroke="#000000" stroke-width="1.2"></line>
  <line x1="500" y1="500" x2="660" y2="780" stroke="#000000" stroke-width="1"></line>
  <line x1="500" y1="500" x2="620" y2="830" stroke="#000000" stroke-width="1.2"></line>
  <line x1="500" y1="500" x2="565" y2="865" stroke="#000000" stroke-width="1"></line>
  <line x1="500" y1="500" x2="500" y2="880" stroke="#000000" stroke-width="1.2"></line>
  <line x1="500" y1="500" x2="435" y2="865" stroke="#000000" stroke-width="1"></line>
  <line x1="500" y1="500" x2="380" y2="830" stroke="#000000" stroke-width="1.2"></line>
  <line x1="500" y1="500" x2="340" y2="780" stroke="#000000" stroke-width="1"></line>
  <line x1="500" y1="500" x2="310" y2="720" stroke="#000000" stroke-width="1.2"></line>
  <line x1="500" y1="500" x2="290" y2="650" stroke="#000000" stroke-width="1"></line>
  <line x1="500" y1="500" x2="280" y2="580" stroke="#000000" stroke-width="1.2"></line>
  <line x1="500" y1="500" x2="280" y2="500" stroke="#000000" stroke-width="1"></line>
  <line x1="500" y1="500" x2="280" y2="420" stroke="#000000" stroke-width="1.2"></line>
  <line x1="500" y1="500" x2="290" y2="350" stroke="#000000" stroke-width="1"></line>
  <line x1="500" y1="500" x2="310" y2="280" stroke="#000000" stroke-width="1.2"></line>
  <line x1="500" y1="500" x2="340" y2="220" stroke="#000000" stroke-width="1"></line>
  <line x1="500" y1="500" x2="380" y2="170" stroke="#000000" stroke-width="1.2"></line>
  <line x1="500" y1="500" x2="435" y2="135" stroke="#000000" stroke-width="1"></line>
  
  
  <line x1="200" y1="200" x2="800" y2="200" stroke="#000000" stroke-width="0.8" opacity="0.6"></line>
  <line x1="210" y1="180" x2="810" y2="180" stroke="#000000" stroke-width="0.8" opacity="0.6"></line>
  <line x1="220" y1="160" x2="820" y2="160" stroke="#000000" stroke-width="0.8" opacity="0.6"></line>
  <line x1="200" y1="220" x2="800" y2="220" stroke="#000000" stroke-width="0.8" opacity="0.6"></line>
  <line x1="200" y1="240" x2="800" y2="240" stroke="#000000" stroke-width="0.8" opacity="0.6"></line>
  <line x1="180" y1="210" x2="180" y2="790" stroke="#000000" stroke-width="0.8" opacity="0.6"></line>
  <line x1="200" y1="200" x2="200" y2="800" stroke="#000000" stroke-width="0.8" opacity="0.6"></line>
  <line x1="220" y1="190" x2="220" y2="810" stroke="#000000" stroke-width="0.8" opacity="0.6"></line>
  <line x1="240" y1="200" x2="240" y2="800" stroke="#000000" stroke-width="0.8" opacity="0.6"></line>
  <line x1="800" y1="200" x2="800" y2="800" stroke="#000000" stroke-width="0.8" opacity="0.6"></line>
  <line x1="820" y1="190" x2="820" y2="810" stroke="#000000" stroke-width="0.8" opacity="0.6"></line>
  <line x1="200" y1="800" x2="800" y2="800" stroke="#000000" stroke-width="0.8" opacity="0.6"></line>
  <line x1="190" y1="820" x2="810" y2="820" stroke="#000000" stroke-width="0.8" opacity="0.6"></line>
  <line x1="200" y1="780" x2="800" y2="780" stroke="#000000" stroke-width="0.8" opacity="0.6"></line>
  
  
  <line x1="150" y1="500" x2="850" y2="500" stroke="#000000" stroke-width="0.9" opacity="0.5"></line>
  <line x1="140" y1="480" x2="860" y2="520" stroke="#000000" stroke-width="0.9" opacity="0.5"></line>
  <line x1="140" y1="520" x2="860" y2="480" stroke="#000000" stroke-width="0.9" opacity="0.5"></line>
  <line x1="500" y1="150" x2="500" y2="850" stroke="#000000" stroke-width="0.9" opacity="0.5"></line>
  <line x1="480" y1="140" x2="520" y2="860" stroke="#000000" stroke-width="0.9" opacity="0.5"></line>
  <line x1="520" y1="140" x2="480" y2="860" stroke="#000000" stroke-width="0.9" opacity="0.5"></line>
  
  
  <circle cx="500" cy="500" r="80" fill="none" stroke="url(#accentGrad)" stroke-width="2.5" opacity="0.85"></circle>
  <circle cx="500" cy="500" r="60" fill="none" stroke="#FF00FF" stroke-width="1.5" opacity="0.7"></circle>
  <circle cx="500" cy="500" r="40" fill="none" stroke="#00FFFF" stroke-width="1.5" opacity="0.7"></circle>
  <circle cx="500" cy="500" r="20" fill="none" stroke="url(#accentGrad)" stroke-width="1.2" opacity="0.9"></circle>
  
  
  <line x1="500" y1="500" x2="500" y2="380" stroke="#FF00FF" stroke-width="2" opacity="0.8"></line>
  <line x1="500" y1="500" x2="606" y2="394" stroke="#00FFFF" stroke-width="2" opacity="0.8"></line>
  <line x1="500" y1="500" x2="620" y2="500" stroke="#FF00FF" stroke-width="2" opacity="0.8"></line>
  <line x1="500" y1="500" x2="606" y2="606" stroke="#00FFFF" stroke-width="2" opacity="0.8"></line>
  <line x1="500" y1="500" x2="500" y2="620" stroke="#FF00FF" stroke-width="2" opacity="0.8"></line>
  <line x1="500" y1="500" x2="394" y2="606" stroke="#00FFFF" stroke-width="2" opacity="0.8"></line>
  <line x1="500" y1="500" x2="380" y2="500" stroke="#FF00FF" stroke-width="2" opacity="0.8"></line>
  <line x1="500" y1="500" x2="394" y2="394" stroke="#00FFFF" stroke-width="2" opacity="0.8"></line>
  
  
  <circle cx="150" cy="150" r="60" fill="none" stroke="#FF00FF" stroke-width="1.5" opacity="0.4"></circle>
  <circle cx="850" cy="150" r="60" fill="none" stroke="#00FFFF" stroke-width="1.5" opacity="0.4"></circle>
  <circle cx="150" cy="850" r="60" fill="none" stroke="#00FFFF" stroke-width="1.5" opacity="0.4"></circle>
  <circle cx="850" cy="850" r="60" fill="none" stroke="#FF00FF" stroke-width="1.5" opacity="0.4"></circle>
  
</svg>