<svg viewBox="0 0 1000 1000" xmlns="http://www.w3.org/2000/svg">
  <defs>
    <linearGradient id="grad1" x1="0%" y1="0%" x2="100%" y2="100%">
      <stop offset="0%" style="stop-color:#2a1f3d;stop-opacity:1"></stop>
      <stop offset="100%" style="stop-color:#1a0f2e;stop-opacity:1"></stop>
    </linearGradient>
    
    <radialGradient id="grad2" cx="35%" cy="35%" r="65%">
      <stop offset="0%" style="stop-color:#6b4c8a;stop-opacity:0.9"></stop>
      <stop offset="70%" style="stop-color:#4a3561;stop-opacity:0.7"></stop>
      <stop offset="100%" style="stop-color:#2a1f3d;stop-opacity:0.4"></stop>
    </radialGradient>
    
    <radialGradient id="grad3" cx="60%" cy="40%" r="55%">
      <stop offset="0%" style="stop-color:#c9a876;stop-opacity:0.85"></stop>
      <stop offset="60%" style="stop-color:#9d8066;stop-opacity:0.6"></stop>
      <stop offset="100%" style="stop-color:#5a4a3a;stop-opacity:0.2"></stop>
    </radialGradient>
    
    <filter id="blur1">
      <feGaussianBlur in="SourceGraphic" stdDeviation="12"></feGaussianBlur>
    </filter>
    
    <filter id="blur2">
      <feGaussianBlur in="SourceGraphic" stdDeviation="8"></feGaussianBlur>
    </filter>
  </defs>
  
  <rect width="1000" height="1000" fill="url(#grad1)"></rect>
  
  
  <rect x="80" y="220" width="420" height="580" fill="url(#grad2)" opacity="0.95" filter="url(#blur1)"></rect>
  
  
  <rect x="520" y="140" width="400" height="500" fill="url(#grad3)" opacity="0.88" filter="url(#blur2)"></rect>
  
  
  <circle cx="320" cy="400" r="140" fill="#5a4a6a" opacity="0.3" filter="url(#blur1)"></circle>
  
  
  <circle cx="600" cy="320" r="110" fill="#8b7a96" opacity="0.25" filter="url(#blur2)"></circle>
  <circle cx="250" cy="580" r="95" fill="#c9a876" opacity="0.2" filter="url(#blur2)"></circle>
  
  
  <ellipse cx="95" cy="300" rx="85" ry="140" fill="#6b4c8a" opacity="0.35" filter="url(#blur1)"></ellipse>
  <ellipse cx="920" cy="250" rx="100" ry="130" fill="#c9a876" opacity="0.3" filter="url(#blur1)"></ellipse>
  
  
  <rect x="0" y="450" width="1000" height="2" fill="#9d8066" opacity="0.15"></rect>
  <rect x="0" y="280" width="1000" height="1.5" fill="#8b7a96" opacity="0.1"></rect>
  
  
  <rect x="500" y="150" width="1" height="650" fill="#c9a876" opacity="0.12"></rect>
  
  
  <circle cx="450" cy="250" r="75" fill="#7a6a8a" opacity="0.2" filter="url(#blur2)"></circle>
  <circle cx="680" cy="550" r="85" fill="#6b5a7a" opacity="0.18" filter="url(#blur2)"></circle>
  <circle cx="150" cy="750" r="65" fill="#9d8066" opacity="0.25" filter="url(#blur1)"></circle>
  <circle cx="800" cy="700" r="95" fill="#8b7a96" opacity="0.15" filter="url(#blur2)"></circle>
  
  
  <ellipse cx="100" cy="500" rx="120" ry="180" fill="#2a1f3d" opacity="0.25" filter="url(#blur1)"></ellipse>
  <ellipse cx="900" cy="400" rx="140" ry="160" fill="#1a0f2e" opacity="0.2" filter="url(#blur1)"></ellipse>
  
  
  <circle cx="500" cy="450" r="160" fill="#7a6a8a" opacity="0.22" filter="url(#blur2)"></circle>
  
  
  <circle cx="350" cy="350" r="45" fill="#c9a876" opacity="0.28" filter="url(#blur2)"></circle>
  <circle cx="650" cy="420" r="52" fill="#9d8066" opacity="0.2" filter="url(#blur2)"></circle>
  
  
  <ellipse cx="480" cy="850" rx="200" ry="100" fill="#6b4c8a" opacity="0.18" filter="url(#blur1)"></ellipse>
  
  
  <ellipse cx="500" cy="80" rx="250" ry="90" fill="#8b7a96" opacity="0.15" filter="url(#blur1)"></ellipse>
  
  
  <circle cx="50" cy="50" r="100" fill="#2a1f3d" opacity="0.2" filter="url(#blur1)"></circle>
  <circle cx="950" cy="950" r="110" fill="#2a1f3d" opacity="0.18" filter="url(#blur1)"></circle>
  
  
  <rect x="0" y="0" width="1000" height="1000" fill="#1a0f2e" opacity="0.05"></rect>
  <circle cx="500" cy="500" r="400" fill="none" stroke="#c9a876" stroke-width="0.5" opacity="0.1"></circle>
</svg>