<svg viewBox="0 0 1000 1000" xmlns="http://www.w3.org/2000/svg">
  <defs>
    <linearGradient id="grad1" x1="0%" y1="0%" x2="100%" y2="100%">
      <stop offset="0%" style="stop-color:#2a2a2a;stop-opacity:1"></stop>
      <stop offset="100%" style="stop-color:#0d0d0d;stop-opacity:1"></stop>
    </linearGradient>
    <radialGradient id="radGrad1" cx="50%" cy="50%" r="50%">
      <stop offset="0%" style="stop-color:#5a4a6f;stop-opacity:0.3"></stop>
      <stop offset="100%" style="stop-color:#1a1a2e;stop-opacity:0.8"></stop>
    </radialGradient>
    <radialGradient id="radGrad2" cx="50%" cy="50%" r="50%">
      <stop offset="0%" style="stop-color:#9d7e99;stop-opacity:0.4"></stop>
      <stop offset="100%" style="stop-color:#3d3d4d;stop-opacity:0.9"></stop>
    </radialGradient>
  </defs>
  
  
  <rect width="1000" height="1000" fill="url(#grad1)"></rect>
  
  
  <circle cx="500" cy="500" r="420" fill="none" stroke="#4a5f7f" stroke-width="2" opacity="0.4"></circle>
  
  
  <circle cx="680" cy="280" r="2.5" fill="#8b7f9e"></circle>
  <circle cx="720" cy="320" r="2" fill="#9d8aad"></circle>
  <circle cx="760" cy="380" r="2.2" fill="#7a6f8f"></circle>
  <circle cx="780" cy="440" r="2.3" fill="#8b7f9e"></circle>
  <circle cx="790" cy="500" r="2.1" fill="#9d8aad"></circle>
  <circle cx="780" cy="560" r="2.4" fill="#8b7f9e"></circle>
  <circle cx="760" cy="620" r="2" fill="#7a6f8f"></circle>
  <circle cx="720" cy="680" r="2.2" fill="#9d8aad"></circle>
  <circle cx="680" cy="720" r="2.3" fill="#8b7f9e"></circle>
  <circle cx="620" cy="760" r="2.1" fill="#7a6f8f"></circle>
  <circle cx="550" cy="790" r="2.4" fill="#9d8aad"></circle>
  <circle cx="480" cy="800" r="2" fill="#8b7f9e"></circle>
  <circle cx="410" cy="790" r="2.2" fill="#7a6f8f"></circle>
  <circle cx="350" cy="760" r="2.3" fill="#9d8aad"></circle>
  <circle cx="300" cy="720" r="2.1" fill="#8b7f9e"></circle>
  <circle cx="260" cy="680" r="2.4" fill="#7a6f8f"></circle>
  <circle cx="240" cy="620" r="2" fill="#9d8aad"></circle>
  <circle cx="230" cy="560" r="2.2" fill="#8b7f9e"></circle>
  <circle cx="220" cy="500" r="2.3" fill="#7a6f8f"></circle>
  <circle cx="230" cy="440" r="2.1" fill="#9d8aad"></circle>
  <circle cx="240" cy="380" r="2.4" fill="#8b7f9e"></circle>
  <circle cx="260" cy="320" r="2" fill="#7a6f8f"></circle>
  <circle cx="300" cy="280" r="2.2" fill="#9d8aad"></circle>
  <circle cx="350" cy="240" r="2.3" fill="#8b7f9e"></circle>
  <circle cx="410" cy="210" r="2.1" fill="#7a6f8f"></circle>
  <circle cx="480" cy="200" r="2.4" fill="#9d8aad"></circle>
  <circle cx="550" cy="210" r="2" fill="#8b7f9e"></circle>
  <circle cx="620" cy="240" r="2.2" fill="#7a6f8f"></circle>
  
  
  <circle cx="500" cy="500" r="300" fill="none" stroke="#5a6f8f" stroke-width="1.5" opacity="0.35"></circle>
  
  
  <circle cx="680" cy="360" r="2" fill="#a89fb5"></circle>
  <circle cx="740" cy="410" r="1.8" fill="#9d8aad"></circle>
  <circle cx="770" cy="480" r="2.1" fill="#a89fb5"></circle>
  <circle cx="770" cy="550" r="1.9" fill="#9d8aad"></circle>
  <circle cx="740" cy="620" r="2" fill="#a89fb5"></circle>
  <circle cx="680" cy="670" r="2.2" fill="#9d8aad"></circle>
  <circle cx="610" cy="710" r="1.8" fill="#a89fb5"></circle>
  <circle cx="540" cy="730" r="2.1" fill="#9d8aad"></circle>
  <circle cx="470" cy="730" r="1.9" fill="#a89fb5"></circle>
  <circle cx="400" cy="710" r="2" fill="#9d8aad"></circle>
  <circle cx="330" cy="670" r="2.2" fill="#a89fb5"></circle>
  <circle cx="270" cy="620" r="1.8" fill="#9d8aad"></circle>
  <circle cx="240" cy="550" r="2.1" fill="#a89fb5"></circle>
  <circle cx="240" cy="480" r="1.9" fill="#9d8aad"></circle>
  <circle cx="270" cy="410" r="2" fill="#a89fb5"></circle>
  <circle cx="330" cy="360" r="2.2" fill="#9d8aad"></circle>
  <circle cx="400" cy="320" r="1.8" fill="#a89fb5"></circle>
  <circle cx="470" cy="300" r="2.1" fill="#9d8aad"></circle>
  <circle cx="540" cy="300" r="1.9" fill="#a89fb5"></circle>
  <circle cx="610" cy="320" r="2" fill="#9d8aad"></circle>
  
  
  <ellipse cx="520" cy="460" rx="45" ry="55" fill="none" stroke="#3a4a6f" stroke-width="1.5" opacity="0.5" transform="rotate(15 520 460)"></ellipse>
  <ellipse cx="490" cy="520" rx="38" ry="48" fill="none" stroke="#4a5a7f" stroke-width="1.3" opacity="0.45" transform="rotate(-25 490 520)"></ellipse>
  <ellipse cx="530" cy="510" rx="35" ry="42" fill="none" stroke="#3a4a6f" stroke-width="1.2" opacity="0.4" transform="rotate(45 530 510)"></ellipse>
  
  
  <circle cx="500" cy="500" r="180" fill="url(#radGrad2)" opacity="0.6"></circle>
  <circle cx="500" cy="500" r="180" fill="none" stroke="#6a7f9f" stroke-width="1" opacity="0.3"></circle>
  
  
  <circle cx="520" cy="470" r="1.5" fill="#c9b8d4"></circle>
  <circle cx="510" cy="485" r="1.3" fill="#b8a7c4"></circle>
  <circle cx="530" cy="495" r="1.4" fill="#c9b8d4"></circle>
  <circle cx="495" cy="505" r="1.2" fill="#b8a7c4"></circle>
  <circle cx="515" cy="520" r="1.5" fill="#c9b8d4"></circle>
  <circle cx="480" cy="515" r="1.3" fill="#b8a7c4"></circle>
  <circle cx="525" cy="535" r="1.4" fill="#c9b8d4"></circle>
  <circle cx="505" cy="545" r="1.2" fill="#b8a7c4"></circle>
  <circle cx="485" cy="480" r="1.5" fill="#c9b8d4"></circle>
  <circle cx="535" cy="515" r="1.3" fill="#b8a7c4"></circle>
  <circle cx="500" cy="460" r="1.4" fill="#c9b8d4"></circle>
  <circle cx="475" cy="500" r="1.2" fill="#b8a7c4"></circle>
  
  
  <line x1="250" y1="150" x2="450" y2="380" stroke="#d4443f" stroke-width="3.5" opacity="0.7" stroke-linecap="round"></line>
  <line x1="450" y1="380" x2="520" y2="420" stroke="#d4443f" stroke-width="2.8" opacity="0.6" stroke-linecap="round"></line>
  
  <line x1="750" y1="200" x2="600" y2="450" stroke="#c45545" stroke-width="3" opacity="0.65" stroke-linecap="round"></line>
  <line x1="600" y1="450" x2="480" y2="510" stroke="#c45545" stroke-width="2.2" opacity="0.55" stroke-linecap="round"></line>
  
  <line x1="200" y1="650" x2="420" y2="550" stroke="#d35d52" stroke-width="3.2" opacity="0.68" stroke-linecap="round"></line>
  <line x1="420" y1="550" x2="500" y2="490" stroke="#d35d52" stroke-width="2.5" opacity="0.58" stroke-linecap="round"></line>
  
  <line x1="800" y1="700" x2="550" y2="520" stroke="#c45545" stroke-width="2.8" opacity="0.62" stroke-linecap="round"></line>
  <line x1="550" y1="520" x2="480" y2="480" stroke="#c45545" stroke-width="2" opacity="0.52" stroke-linecap="round"></line>
  
  <line x1="300" y1="300" x2="520" y2="480" stroke="#d4443f" stroke-width="2.5" opacity="0.6" stroke-linecap="round"></line>
  
  
  <circle cx="500" cy="500" r="80" fill="none" stroke="#9d8aad" stroke-width="1.5" opacity="0.4"></circle>
  <circle cx="500" cy="500" r="60" fill="none" stroke="#8b7f9e" stroke-width="1.2" opacity="0.35"></circle>
  <circle cx="500" cy="500" r="40" fill="none" stroke="#7a6f8f" stroke-width="1" opacity="0.3"></circle>
  
  
  <circle cx="500" cy="500" r="20" fill="url(#radGrad1)" opacity="0.4"></circle>
  <circle cx="500" cy="500" r="20" fill="none" stroke="#5a4a6f" stroke-width="0.8" opacity="0.25"></circle>
  
  
  <path d="M 480 480 Q 485 495 490 510" stroke="#d4443f" stroke-width="1.8" fill="none" opacity="0.7" stroke-linecap="round"></path>
  <path d="M 520 490 Q 515 505 510 520" stroke="#c45545" stroke-width="1.6" fill="none" opacity="0.65" stroke-linecap="round"></path>
  <path d="M 500 470 L 505 485" stroke="#d35d52" stroke-width="1.5" opacity="0.6" stroke-linecap="round"></path>
  <path d="M 495 515 L 502 530" stroke="#d4443f" stroke-width="1.5" opacity="0.6" stroke-linecap="round"></path>
</svg>