<svg viewBox="0 0 1000 1000" xmlns="http://www.w3.org/2000/svg">
  <defs>
    <linearGradient id="redVein" x1="0%" y1="0%" x2="100%" y2="100%">
      <stop offset="0%" style="stop-color:#8B0000;stop-opacity:0.3"></stop>
      <stop offset="100%" style="stop-color:#DC143C;stop-opacity:0.7"></stop>
    </linearGradient>
    <radialGradient id="dotGlow" cx="50%" cy="50%" r="50%">
      <stop offset="0%" style="stop-color:#E8E8E8;stop-opacity:0.9"></stop>
      <stop offset="100%" style="stop-color:#404040;stop-opacity:0.4"></stop>
    </radialGradient>
    <linearGradient id="botanical" x1="0%" y1="0%" x2="100%" y2="100%">
      <stop offset="0%" style="stop-color:#2A2A2A;stop-opacity:0.8"></stop>
      <stop offset="50%" style="stop-color:#1A1A1A;stop-opacity:1"></stop>
      <stop offset="100%" style="stop-color:#0A0A0A;stop-opacity:0.6"></stop>
    </linearGradient>
  </defs>
  
  
  <rect width="1000" height="1000" fill="#0F0F0F"></rect>
  
  
  <path d="M 500 100 Q 450 250 500 400 Q 550 550 500 700 Q 450 850 500 950" stroke="url(#redVein)" stroke-width="8" fill="none" opacity="0.6"></path>
  <path d="M 300 200 Q 400 350 500 400 Q 600 450 700 400" stroke="url(#redVein)" stroke-width="6" fill="none" opacity="0.5"></path>
  <path d="M 200 500 Q 350 500 500 550 Q 650 600 800 500" stroke="url(#redVein)" stroke-width="7" fill="none" opacity="0.5"></path>
  
  
  <g id="spiral1">
    
    <circle cx="500" cy="250" r="4" fill="url(#dotGlow)" opacity="0.8"></circle>
    <circle cx="530" cy="260" r="3.5" fill="url(#dotGlow)" opacity="0.7"></circle>
    <circle cx="555" cy="280" r="3" fill="url(#dotGlow)" opacity="0.6"></circle>
    <circle cx="575" cy="310" r="3.5" fill="url(#dotGlow)" opacity="0.7"></circle>
    <circle cx="585" cy="345" r="4" fill="url(#dotGlow)" opacity="0.8"></circle>
    <circle cx="580" cy="380" r="3.5" fill="url(#dotGlow)" opacity="0.7"></circle>
    <circle cx="560" cy="410" r="3" fill="url(#dotGlow)" opacity="0.6"></circle>
    <circle cx="530" cy="430" r="3.5" fill="url(#dotGlow)" opacity="0.7"></circle>
    <circle cx="500" cy="440" r="4" fill="url(#dotGlow)" opacity="0.8"></circle>
    <circle cx="470" cy="430" r="3.5" fill="url(#dotGlow)" opacity="0.7"></circle>
    <circle cx="440" cy="410" r="3" fill="url(#dotGlow)" opacity="0.6"></circle>
    <circle cx="420" cy="380" r="3.5" fill="url(#dotGlow)" opacity="0.7"></circle>
    <circle cx="415" cy="345" r="4" fill="url(#dotGlow)" opacity="0.8"></circle>
    <circle cx="425" cy="310" r="3.5" fill="url(#dotGlow)" opacity="0.7"></circle>
    <circle cx="445" cy="280" r="3" fill="url(#dotGlow)" opacity="0.6"></circle>
    <circle cx="470" cy="260" r="3.5" fill="url(#dotGlow)" opacity="0.7"></circle>
  </g>
  
  
  <g id="innerMatrix">
    <circle cx="485" cy="340" r="2.5" fill="#C0C0C0" opacity="0.9"></circle>
    <circle cx="500" cy="330" r="2.5" fill="#C0C0C0" opacity="0.9"></circle>
    <circle cx="515" cy="340" r="2.5" fill="#C0C0C0" opacity="0.9"></circle>
    <circle cx="510" cy="360" r="2.5" fill="#C0C0C0" opacity="0.9"></circle>
    <circle cx="490" cy="360" r="2.5" fill="#C0C0C0" opacity="0.9"></circle>
    <circle cx="500" cy="375" r="2.5" fill="#C0C0C0" opacity="0.9"></circle>
  </g>
  
  
  <g id="scatter1">
    <circle cx="280" cy="180" r="3" fill="url(#dotGlow)" opacity="0.7"></circle>
    <circle cx="300" cy="190" r="2.5" fill="url(#dotGlow)" opacity="0.6"></circle>
    <circle cx="320" cy="210" r="3" fill="url(#dotGlow)" opacity="0.7"></circle>
    <circle cx="335" cy="240" r="2.5" fill="url(#dotGlow)" opacity="0.6"></circle>
    <circle cx="340" cy="270" r="3" fill="url(#dotGlow)" opacity="0.7"></circle>
    <circle cx="330" cy="300" r="2.5" fill="url(#dotGlow)" opacity="0.6"></circle>
    <circle cx="310" cy="315" r="3" fill="url(#dotGlow)" opacity="0.7"></circle>
    <circle cx="285" cy="320" r="2.5" fill="url(#dotGlow)" opacity="0.6"></circle>
  </g>
  
  
  <g id="scatter2">
    <circle cx="720" cy="680" r="3" fill="url(#dotGlow)" opacity="0.7"></circle>
    <circle cx="740" cy="700" r="2.5" fill="url(#dotGlow)" opacity="0.6"></circle>
    <circle cx="760" cy="720" r="3" fill="url(#dotGlow)" opacity="0.7"></circle>
    <circle cx="775" cy="750" r="2.5" fill="url(#dotGlow)" opacity="0.6"></circle>
    <circle cx="780" cy="780" r="3" fill="url(#dotGlow)" opacity="0.7"></circle>
    <circle cx="770" cy="810" r="2.5" fill="url(#dotGlow)" opacity="0.6"></circle>
    <circle cx="750" cy="825" r="3" fill="url(#dotGlow)" opacity="0.7"></circle>
    <circle cx="725" cy="830" r="2.5" fill="url(#dotGlow)" opacity="0.6"></circle>
  </g>
  
  
  <path d="M 500 400 L 520 420 L 540 425 L 555 430" stroke="#4A4A4A" stroke-width="2.5" fill="none" opacity="0.7"></path>
  <path d="M 500 400 L 480 420 L 460 425 L 445 430" stroke="#4A4A4A" stroke-width="2.5" fill="none" opacity="0.7"></path>
  <path d="M 520 420 L 535 445 L 545 465" stroke="#3A3A3A" stroke-width="2" fill="none" opacity="0.6"></path>
  <path d="M 480 420 L 465 445 L 455 465" stroke="#3A3A3A" stroke-width="2" fill="none" opacity="0.6"></path>
  
  
  <g id="face" opacity="0.15">
    <ellipse cx="500" cy="500" rx="80" ry="100" fill="none" stroke="#808080" stroke-width="1.5"></ellipse>
    <circle cx="470" cy="470" r="8" fill="none" stroke="#808080" stroke-width="1"></circle>
    <circle cx="530" cy="470" r="8" fill="none" stroke="#808080" stroke-width="1"></circle>
    <path d="M 490 510 Q 500 520 510 510" fill="none" stroke="#808080" stroke-width="1" opacity="0.6"></path>
  </g>
  
  
  <g id="cluster3">
    <circle cx="150" cy="500" r="2" fill="#A0A0A0" opacity="0.8"></circle>
    <circle cx="160" cy="510" r="2" fill="#A0A0A0" opacity="0.7"></circle>
    <circle cx="170" cy="520" r="2" fill="#A0A0A0" opacity="0.8"></circle>
    <circle cx="180" cy="530" r="2" fill="#A0A0A0" opacity="0.7"></circle>
    <circle cx="190" cy="540" r="2" fill="#A0A0A0" opacity="0.8"></circle>
    <circle cx="200" cy="530" r="2" fill="#A0A0A0" opacity="0.7"></circle>
    <circle cx="210" cy="520" r="2" fill="#A0A0A0" opacity="0.8"></circle>
    <circle cx="220" cy="510" r="2" fill="#A0A0A0" opacity="0.7"></circle>
  </g>
  
  <g id="cluster4">
    <circle cx="850" cy="450" r="2" fill="#A0A0A0" opacity="0.8"></circle>
    <circle cx="860" cy="460" r="2" fill="#A0A0A0" opacity="0.7"></circle>
    <circle cx="870" cy="470" r="2" fill="#A0A0A0" opacity="0.8"></circle>
    <circle cx="880" cy="480" r="2" fill="#A0A0A0" opacity="0.7"></circle>
    <circle cx="890" cy="490" r="2" fill="#A0A0A0" opacity="0.8"></circle>
    <circle cx="880" cy="500" r="2" fill="#A0A0A0" opacity="0.7"></circle>
    <circle cx="870" cy="510" r="2" fill="#A0A0A0" opacity="0.8"></circle>
    <circle cx="860" cy="520" r="2" fill="#A0A0A0" opacity="0.7"></circle>
  </g>
  
  
  <path d="M 300 150 L 350 180 L 400 200 L 450 210" stroke="url(#redVein)" stroke-width="4" fill="none" opacity="0.4"></path>
  <path d="M 700 150 L 650 180 L 600 200 L 550 210" stroke="url(#redVein)" stroke-width="4" fill="none" opacity="0.4"></path>
  
  
  <path d="M 300 850 L 350 820 L 400 800 L 450 790" stroke="url(#redVein)" stroke-width="4" fill="none" opacity="0.4"></path>
  <path d="M 700 850 L 650 820 L 600 800 L 550 790" stroke="url(#redVein)" stroke-width="4" fill="none" opacity="0.4"></path>
  
  
  <g id="peripheral">
    <circle cx="100" cy="100" r="2.5" fill="#909090" opacity="0.5"></circle>
    <circle cx="900" cy="100" r="2.5" fill="#909090" opacity="0.5"></circle>
    <circle cx="100" cy="900" r="2.5" fill="#909090" opacity="0.5"></circle>
    <circle cx="900" cy="900" r="2.5" fill="#909090" opacity="0.5"></circle>
    <circle cx="500" cy="50" r="2.5" fill="#909090" opacity="0.5"></circle>
    <circle cx="500" cy="950" r="2.5" fill="#909090" opacity="0.5"></circle>
    <circle cx="50" cy="500" r="2.5" fill="#909090" opacity="0.5"></circle>
    <circle cx="950" cy="500" r="2.5" fill="#909090" opacity="0.5"></circle>
  </g>
  
  
  <g id="gridOverlay" opacity="0.15" stroke="#5A5A5A" stroke-width="1">
    <line x1="250" y1="300" x2="270" y2="320"></line>
    <line x1="270" y1="300" x2="290" y2="320"></line>
    <line x1="290" y1="300" x2="310" y2="320"></line>
    <line x1="310" y1="300" x2="330" y2="320"></line>
    <line x1="250" y1="320" x2="270" y2="340"></line>
    <line x1="270" y1="320" x2="290" y2="340"></line>
    <line x1="290" y1="320" x2="310" y2="340"></line>
    <line x1="310" y1="320" x2="330" y2="340"></line>
  </g>
  
  
  <g id="gridOverlay2" opacity="0.15" stroke="#5A5A5A" stroke-width="1">
    <line x1="670" y1="660" x2="690" y2="680"></line>
    <line x1="690" y1="660" x2="710" y2="680"></line>
    <line x1="710" y1="660" x2="730" y2="680"></line>
    <line x1="730" y1="660" x2="750" y2="680"></line>
    <line x1="670" y1="680" x2="690" y2="700"></line>
    <line x1="690" y1="680" x2="710" y2="700"></line>
    <line x1="710" y1="680" x2="730" y2="700"></line>
    <line x1="730" y1="680" x2="750" y2="700"></line>
  </g>
  
  
  <circle cx="250" cy="650" r="1.5" fill="#B0B0B0" opacity="0.6"></circle>
  <circle cx="265" cy="670" r="1.5" fill="#B0B0B0" opacity="0.6"></circle>
  <circle cx="280" cy="690" r="1.5" fill="#B0B0B0" opacity="0.6"></circle>
  <circle cx="295" cy="710" r="1.5" fill="#B0B0B0" opacity="0.6"></circle>
  <circle cx="310" cy="730" r="1.5" fill="#B0B0B0" opacity="0.6"></circle>
  
  <circle cx="750" cy="350" r="1.5" fill="#B0B0B0" opacity="0.6"></circle>
  <circle cx="765" cy="330" r="1.5" fill="#B0B0B0" opacity="0.6"></circle>
  <circle cx="780" cy="310" r="1.5" fill="#B0B0B0" opacity="0.6"></circle>
  <circle cx="795" cy="290" r="1.5" fill="#B0B0B0" opacity="0.6"></circle>
  <circle cx="810" cy="270" r="1.5" fill="#B0B0B0" opacity="0.6"></circle>
  
  
  <ellipse cx="500" cy="500" rx="120" ry="140" fill="none" stroke="#2A2A2A" stroke-width="1.5" opacity="0.4"></ellipse>
  <ellipse cx="500" cy="500" rx="100" ry="120" fill="none" stroke="#3A3A3A" stroke-width="1" opacity="0.3"></ellipse>
</svg>