<svg viewBox="0 0 1000 1000" xmlns="http://www.w3.org/2000/svg">
  <defs>
    <linearGradient id="rustAmber" x1="0%" y1="0%" x2="100%" y2="100%">
      <stop offset="0%" style="stop-color:#8B4513;stop-opacity:1"></stop>
      <stop offset="50%" style="stop-color:#A0522D;stop-opacity:1"></stop>
      <stop offset="100%" style="stop-color:#D4A574;stop-opacity:1"></stop>
    </linearGradient>
    <radialGradient id="decayCore" cx="50%" cy="50%" r="50%">
      <stop offset="0%" style="stop-color:#FFD700;stop-opacity:0.9"></stop>
      <stop offset="70%" style="stop-color:#B8860B;stop-opacity:0.6"></stop>
      <stop offset="100%" style="stop-color:#654321;stop-opacity:0.2"></stop>
    </radialGradient>
    <radialGradient id="petalFade" cx="40%" cy="40%" r="60%">
      <stop offset="0%" style="stop-color:#D2B48C;stop-opacity:0.8"></stop>
      <stop offset="100%" style="stop-color:#8B7355;stop-opacity:0.3"></stop>
    </radialGradient>
  </defs>
  
  
  <rect width="1000" height="1000" fill="#F5F5DC"></rect>
  
  
  <g id="mainFlower" transform="translate(500, 500)">
    
    <ellipse cx="0" cy="-180" rx="60" ry="110" fill="url(#rustAmber)" opacity="0.7"></ellipse>
    <ellipse cx="127" cy="-127" rx="60" ry="110" fill="url(#rustAmber)" opacity="0.7" transform="rotate(45)"></ellipse>
    <ellipse cx="180" cy="0" rx="60" ry="110" fill="url(#rustAmber)" opacity="0.7" transform="rotate(90)"></ellipse>
    <ellipse cx="127" cy="127" rx="60" ry="110" fill="url(#rustAmber)" opacity="0.7" transform="rotate(135)"></ellipse>
    <ellipse cx="0" cy="180" rx="60" ry="110" fill="url(#rustAmber)" opacity="0.7" transform="rotate(180)"></ellipse>
    <ellipse cx="-127" cy="127" rx="60" ry="110" fill="url(#rustAmber)" opacity="0.7" transform="rotate(225)"></ellipse>
    <ellipse cx="-180" cy="0" rx="60" ry="110" fill="url(#rustAmber)" opacity="0.7" transform="rotate(270)"></ellipse>
    <ellipse cx="-127" cy="-127" rx="60" ry="110" fill="url(#rustAmber)" opacity="0.7" transform="rotate(315)"></ellipse>
    
    
    <ellipse cx="0" cy="-130" rx="40" ry="75" fill="url(#petalFade)" opacity="0.85"></ellipse>
    <ellipse cx="65" cy="-112" rx="40" ry="75" fill="url(#petalFade)" opacity="0.85" transform="rotate(30)"></ellipse>
    <ellipse cx="112" cy="-65" rx="40" ry="75" fill="url(#petalFade)" opacity="0.85" transform="rotate(60)"></ellipse>
    <ellipse cx="130" cy="0" rx="40" ry="75" fill="url(#petalFade)" opacity="0.85" transform="rotate(90)"></ellipse>
    <ellipse cx="112" cy="65" rx="40" ry="75" fill="url(#petalFade)" opacity="0.85" transform="rotate(120)"></ellipse>
    <ellipse cx="65" cy="112" rx="40" ry="75" fill="url(#petalFade)" opacity="0.85" transform="rotate(150)"></ellipse>
    <ellipse cx="0" cy="130" rx="40" ry="75" fill="url(#petalFade)" opacity="0.85" transform="rotate(180)"></ellipse>
    <ellipse cx="-65" cy="112" rx="40" ry="75" fill="url(#petalFade)" opacity="0.85" transform="rotate(210)"></ellipse>
    <ellipse cx="-112" cy="65" rx="40" ry="75" fill="url(#petalFade)" opacity="0.85" transform="rotate(240)"></ellipse>
    <ellipse cx="-130" cy="0" rx="40" ry="75" fill="url(#petalFade)" opacity="0.85" transform="rotate(270)"></ellipse>
    <ellipse cx="-112" cy="-65" rx="40" ry="75" fill="url(#petalFade)" opacity="0.85" transform="rotate(300)"></ellipse>
    <ellipse cx="-65" cy="-112" rx="40" ry="75" fill="url(#petalFade)" opacity="0.85" transform="rotate(330)"></ellipse>
    
    
    <circle cx="0" cy="-85" r="4" fill="#654321" opacity="0.7"></circle>
    <circle cx="12" cy="-83" r="3.5" fill="#8B4513" opacity="0.65"></circle>
    <circle cx="24" cy="-78" r="3.2" fill="#A0522D" opacity="0.6"></circle>
    <circle cx="35" cy="-70" r="3" fill="#B8860B" opacity="0.55"></circle>
    <circle cx="43" cy="-58" r="2.8" fill="#D2B48C" opacity="0.5"></circle>
    <circle cx="-12" cy="-83" r="3.5" fill="#8B4513" opacity="0.65"></circle>
    <circle cx="-24" cy="-78" r="3.2" fill="#A0522D" opacity="0.6"></circle>
    <circle cx="-35" cy="-70" r="3" fill="#B8860B" opacity="0.55"></circle>
    <circle cx="-43" cy="-58" r="2.8" fill="#D2B48C" opacity="0.5"></circle>
    
    
    <circle cx="85" cy="0" r="4" fill="#654321" opacity="0.7"></circle>
    <circle cx="83" cy="12" r="3.5" fill="#8B4513" opacity="0.65"></circle>
    <circle cx="78" cy="24" r="3.2" fill="#A0522D" opacity="0.6"></circle>
    <circle cx="70" cy="35" r="3" fill="#B8860B" opacity="0.55"></circle>
    <circle cx="58" cy="43" r="2.8" fill="#D2B48C" opacity="0.5"></circle>
    <circle cx="83" cy="-12" r="3.5" fill="#8B4513" opacity="0.65"></circle>
    <circle cx="78" cy="-24" r="3.2" fill="#A0522D" opacity="0.6"></circle>
    <circle cx="70" cy="-35" r="3" fill="#B8860B" opacity="0.55"></circle>
    <circle cx="58" cy="-43" r="2.8" fill="#D2B48C" opacity="0.5"></circle>
    
    
    <circle cx="0" cy="85" r="4" fill="#654321" opacity="0.7"></circle>
    <circle cx="12" cy="83" r="3.5" fill="#8B4513" opacity="0.65"></circle>
    <circle cx="24" cy="78" r="3.2" fill="#A0522D" opacity="0.6"></circle>
    <circle cx="35" cy="70" r="3" fill="#B8860B" opacity="0.55"></circle>
    <circle cx="43" cy="58" r="2.8" fill="#D2B48C" opacity="0.5"></circle>
    <circle cx="-12" cy="83" r="3.5" fill="#8B4513" opacity="0.65"></circle>
    <circle cx="-24" cy="78" r="3.2" fill="#A0522D" opacity="0.6"></circle>
    <circle cx="-35" cy="70" r="3" fill="#B8860B" opacity="0.55"></circle>
    <circle cx="-43" cy="58" r="2.8" fill="#D2B48C" opacity="0.5"></circle>
    
    
    <circle cx="-85" cy="0" r="4" fill="#654321" opacity="0.7"></circle>
    <circle cx="-83" cy="12" r="3.5" fill="#8B4513" opacity="0.65"></circle>
    <circle cx="-78" cy="24" r="3.2" fill="#A0522D" opacity="0.6"></circle>
    <circle cx="-70" cy="35" r="3" fill="#B8860B" opacity="0.55"></circle>
    <circle cx="-58" cy="43" r="2.8" fill="#D2B48C" opacity="0.5"></circle>
    <circle cx="-83" cy="-12" r="3.5" fill="#8B4513" opacity="0.65"></circle>
    <circle cx="-78" cy="-24" r="3.2" fill="#A0522D" opacity="0.6"></circle>
    <circle cx="-70" cy="-35" r="3" fill="#B8860B" opacity="0.55"></circle>
    <circle cx="-58" cy="-43" r="2.8" fill="#D2B48C" opacity="0.5"></circle>
    
    
    <circle cx="0" cy="-25" r="2.5" fill="#FFD700" opacity="0.8"></circle>
    <circle cx="8" cy="-22" r="2.3" fill="#FFD700" opacity="0.75"></circle>
    <circle cx="15" cy="-15" r="2.2" fill="#B8860B" opacity="0.7"></circle>
    <circle cx="20" cy="-5" r="2" fill="#A0522D" opacity="0.65"></circle>
    <circle cx="22" cy="8" r="1.8" fill="#8B4513" opacity="0.6"></circle>
    <circle cx="-8" cy="-22" r="2.3" fill="#FFD700" opacity="0.75"></circle>
    <circle cx="-15" cy="-15" r="2.2" fill="#B8860B" opacity="0.7"></circle>
    <circle cx="-20" cy="-5" r="2" fill="#A0522D" opacity="0.65"></circle>
    <circle cx="-22" cy="8" r="1.8" fill="#8B4513" opacity="0.6"></circle>
    <circle cx="25" cy="0" r="2.5" fill="#FFD700" opacity="0.8"></circle>
    <circle cx="22" cy="8" r="2.3" fill="#FFD700" opacity="0.75"></circle>
    <circle cx="15" cy="15" r="2.2" fill="#B8860B" opacity="0.7"></circle>
    <circle cx="5" cy="20" r="2" fill="#A0522D" opacity="0.65"></circle>
    <circle cx="-8" cy="22" r="1.8" fill="#8B4513" opacity="0.6"></circle>
    <circle cx="0" cy="25" r="2.5" fill="#FFD700" opacity="0.8"></circle>
    <circle cx="-8" cy="22" r="2.3" fill="#FFD700" opacity="0.75"></circle>
    <circle cx="-15" cy="15" r="2.2" fill="#B8860B" opacity="0.7"></circle>
    <circle cx="-20" cy="5" r="2" fill="#A0522D" opacity="0.65"></circle>
    <circle cx="-25" cy="0" r="1.8" fill="#8B4513" opacity="0.6"></circle>
    
    
    <circle cx="0" cy="0" r="15" fill="url(#decayCore)" opacity="0.9"></circle>
    <circle cx="0" cy="0" r="8" fill="#FFD700" opacity="0.6"></circle>
  </g>
  
  
  <g id="bloom2" transform="translate(280, 320)">
    <ellipse cx="0" cy="-55" rx="25" ry="45" fill="url(#rustAmber)" opacity="0.6"></ellipse>
    <ellipse cx="39" cy="-39" rx="25" ry="45" fill="url(#rustAmber)" opacity="0.6" transform="rotate(45)"></ellipse>
    <ellipse cx="55" cy="0" rx="25" ry="45" fill="url(#rustAmber)" opacity="0.6" transform="rotate(90)"></ellipse>
    <ellipse cx="39" cy="39" rx="25" ry="45" fill="url(#rustAmber)" opacity="0.6" transform="rotate(135)"></ellipse>
    <ellipse cx="0" cy="55" rx="25" ry="45" fill="url(#rustAmber)" opacity="0.6" transform="rotate(180)"></ellipse>
    <ellipse cx="-39" cy="39" rx="25" ry="45" fill="url(#rustAmber)" opacity="0.6" transform="rotate(225)"></ellipse>
    <ellipse cx="-55" cy="0" rx="25" ry="45" fill="url(#rustAmber)" opacity="0.6" transform="rotate(270)"></ellipse>
    <ellipse cx="-39" cy="-39" rx="25" ry="45" fill="url(#rustAmber)" opacity="0.6" transform="rotate(315)"></ellipse>
    
    
    <circle cx="0" cy="-30" r="2" fill="#654321" opacity="0.7"></circle>
    <circle cx="10" cy="-26" r="1.8" fill="#8B4513" opacity="0.65"></circle>
    <circle cx="18" cy="-18" r="1.6" fill="#B8860B" opacity="0.6"></circle>
    <circle cx="22" cy="-8" r="1.4" fill="#D2B48C" opacity="0.5"></circle>
    <circle cx="-10" cy="-26" r="1.8" fill="#8B4513" opacity="0.65"></circle>
    <circle cx="-18" cy="-18" r="1.6" fill="#B8860B" opacity="0.6"></circle>
    <circle cx="30" cy="0" r="2" fill="#654321" opacity="0.7"></circle>
    <circle cx="26" cy="10" r="1.8" fill="#8B4513" opacity="0.65"></circle>
    <circle cx="18" cy="18" r="1.6" fill="#B8860B" opacity="0.6"></circle>
    <circle cx="0" cy="30" r="2" fill="#654321" opacity="0.7"></circle>
    <circle cx="-10" cy="26" r="1.8" fill="#8B4513" opacity="0.65"></circle>
    <circle cx="-30" cy="0" r="2" fill="#654321" opacity="0.7"></circle>
    
    
    <circle cx="0" cy="0" r="8" fill="url(#decayCore)" opacity="0.8"></circle>
    <circle cx="0" cy="0" r="4" fill="#FFD700" opacity="0.5"></circle>
  </g>
  
  
  <g id="bloom3" transform="translate(720, 680)">
    <ellipse cx="0" cy="-50" rx="22" ry="40" fill="url(#rustAmber)" opacity="0.55"></ellipse>
    <ellipse cx="35" cy="-35" rx="22" ry="40" fill="url(#rustAmber)" opacity="0.55" transform="rotate(45)"></ellipse>
    <ellipse cx="50" cy="0" rx="22" ry="40" fill="url(#rustAmber)" opacity="0.55" transform="rotate(90)"></ellipse>
    <ellipse cx="35" cy="35" rx="22" ry="40" fill="url(#rustAmber)" opacity="0.55" transform="rotate(135)"></ellipse>
    <ellipse cx="0" cy="50" rx="22" ry="40" fill="url(#rustAmber)" opacity="0.55" transform="rotate(180)"></ellipse>
    <ellipse cx="-35" cy="35" rx="22" ry="40" fill="url(#rustAmber)" opacity="0.55" transform="rotate(225)"></ellipse>
    <ellipse cx="-50" cy="0" rx="22" ry="40" fill="url(#rustAmber)" opacity="0.55" transform="rotate(270)"></ellipse>
    <ellipse cx="-35" cy="-35" rx="22" ry="40" fill="url(#rustAmber)" opacity="0.55" transform="rotate(315)"></ellipse>
    
    
    <circle cx="0" cy="-28" r="1.8" fill="#654321" opacity="0.65"></circle>
    <circle cx="9" cy="-25" r="1.6" fill="#8B4513" opacity="0.6"></circle>
    <circle cx="16" cy="-16" r="1.4" fill="#B8860B" opacity="0.55"></circle>
    <circle cx="-9" cy="-25" r="1.6" fill="#8B4513" opacity="0.6"></circle>
    <circle cx="28" cy="0" r="1.8" fill="#654321" opacity="0.65"></circle>
    <circle cx="24" cy="9" r="1.6" fill="#8B4513" opacity="0.6"></circle>
    <circle cx="0" cy="28" r="1.8" fill="#654321" opacity="0.65"></circle>
    <circle cx="-24" cy="9" r="1.6" fill="#8B4513" opacity="0.6"></circle>
    <circle cx="-28" cy="0" r="1.8" fill="#654321" opacity="0.65"></circle>
    
    
    <circle cx="0" cy="0" r="7" fill="url(#decayCore)" opacity="0.75"></circle>
    <circle cx="0" cy="0" r="3.5" fill="#FFD700" opacity="0.45"></circle>
  </g>
  
  
  <circle cx="400" cy="250" r="1.5" fill="#8B4513" opacity="0.4"></circle>
  <circle cx="600" cy="300" r="1.2" fill="#B8860B" opacity="0.35"></circle>
  <circle cx="350" cy="650" r="1.3" fill="#A0522D" opacity="0.38"></circle>
  <circle cx="750" cy="450" r="1.4" fill="#654321" opacity="0.42"></circle>
  <circle cx="200" cy="500" r="1.1" fill="#D2B48C" opacity="0.3"></circle>
  <circle cx="800" cy="250" r="1.2" fill="#8B7355" opacity="0.33"></circle>
</svg>