<svg viewBox="0 0 1000 1000" xmlns="http://www.w3.org/2000/svg">
  <defs>
    <radialGradient id="grad1" cx="50%" cy="50%" r="50%">
      <stop offset="0%" style="stop-color:#f5ede1;stop-opacity:1"></stop>
      <stop offset="100%" style="stop-color:#d4c5b0;stop-opacity:1"></stop>
    </radialGradient>
    <radialGradient id="grad2" cx="50%" cy="50%" r="50%">
      <stop offset="0%" style="stop-color:#e8dcc8;stop-opacity:1"></stop>
      <stop offset="100%" style="stop-color:#b8a89a;stop-opacity:1"></stop>
    </radialGradient>
    <linearGradient id="grad3" x1="0%" y1="0%" x2="100%" y2="100%">
      <stop offset="0%" style="stop-color:#9a8b7e;stop-opacity:1"></stop>
      <stop offset="100%" style="stop-color:#6b5f54;stop-opacity:1"></stop>
    </linearGradient>
  </defs>
  
  <rect width="1000" height="1000" fill="#faf7f2"></rect>
  
  
  <g id="chamber-1">
    <circle cx="500" cy="500" r="480" fill="none" stroke="#d4c5b0" stroke-width="2" opacity="0.6"></circle>
    <circle cx="500" cy="500" r="470" fill="none" stroke="#e8dcc8" stroke-width="1" opacity="0.4"></circle>
  </g>
  
  
  <g id="petals-outer" opacity="0.85">
    <path d="M 500 50 Q 580 150 550 250 Q 500 280 450 250 Q 420 150 500 50" fill="#c9b5a3" opacity="0.7"></path>
    <path d="M 950 500 Q 850 580 750 550 Q 720 500 750 450 Q 850 420 950 500" fill="#c9b5a3" opacity="0.7"></path>
    <path d="M 500 950 Q 420 850 450 750 Q 500 720 550 750 Q 580 850 500 950" fill="#c9b5a3" opacity="0.7"></path>
    <path d="M 50 500 Q 150 420 250 450 Q 280 500 250 550 Q 150 580 50 500" fill="#c9b5a3" opacity="0.7"></path>
    <path d="M 750 150 Q 800 220 750 300 Q 680 280 640 230 Q 680 170 750 150" fill="#d4c5b0" opacity="0.6"></path>
    <path d="M 850 750 Q 800 800 720 800 Q 700 740 750 700 Q 800 680 850 750" fill="#d4c5b0" opacity="0.6"></path>
    <path d="M 250 850 Q 200 800 180 720 Q 230 700 280 750 Q 300 800 250 850" fill="#d4c5b0" opacity="0.6"></path>
    <path d="M 150 250 Q 200 200 280 200 Q 300 260 250 300 Q 200 320 150 250" fill="#d4c5b0" opacity="0.6"></path>
  </g>
  
  
  <g id="dots-outer" fill="#9a8b7e" opacity="0.5">
    <circle cx="500" cy="80" r="4"></circle>
    <circle cx="650" cy="120" r="3.5"></circle>
    <circle cx="750" cy="200" r="3.5"></circle>
    <circle cx="820" cy="320" r="3.5"></circle>
    <circle cx="860" cy="450" r="3.5"></circle>
    <circle cx="870" cy="580" r="4"></circle>
    <circle cx="820" cy="680" r="3.5"></circle>
    <circle cx="750" cy="800" r="3.5"></circle>
    <circle cx="650" cy="880" r="3.5"></circle>
    <circle cx="500" cy="920" r="4"></circle>
    <circle cx="350" cy="880" r="3.5"></circle>
    <circle cx="250" cy="800" r="3.5"></circle>
    <circle cx="180" cy="680" r="3.5"></circle>
    <circle cx="130" cy="580" r="3.5"></circle>
    <circle cx="120" cy="450" r="4"></circle>
    <circle cx="130" cy="320" r="3.5"></circle>
    <circle cx="180" cy="200" r="3.5"></circle>
    <circle cx="250" cy="120" r="3.5"></circle>
    <circle cx="350" cy="80" r="3.5"></circle>
  </g>
  
  
  <g id="chamber-2">
    <circle cx="500" cy="500" r="380" fill="none" stroke="#b8a89a" stroke-width="1.5" opacity="0.5"></circle>
    <circle cx="500" cy="500" r="370" fill="none" stroke="#c9b5a3" stroke-width="0.8" opacity="0.3"></circle>
  </g>
  
  
  <g id="petals-middle" opacity="0.7">
    <path d="M 500 150 Q 560 220 540 300 Q 500 320 460 300 Q 440 220 500 150" fill="#b8a89a" opacity="0.6"></path>
    <path d="M 850 500 Q 780 560 700 540 Q 680 500 700 460 Q 780 440 850 500" fill="#b8a89a" opacity="0.6"></path>
    <path d="M 500 850 Q 440 780 460 700 Q 500 680 540 700 Q 560 780 500 850" fill="#b8a89a" opacity="0.6"></path>
    <path d="M 150 500 Q 220 440 300 460 Q 320 500 300 540 Q 220 560 150 500" fill="#b8a89a" opacity="0.6"></path>
    <path d="M 700 250 Q 740 290 720 350 Q 670 330 650 280 Q 670 240 700 250" fill="#c9b5a3" opacity="0.5"></path>
    <path d="M 750 750 Q 710 800 640 790 Q 630 740 680 710 Q 730 720 750 750" fill="#c9b5a3" opacity="0.5"></path>
    <path d="M 300 750 Q 290 800 220 790 Q 210 740 260 710 Q 290 720 300 750" fill="#c9b5a3" opacity="0.5"></path>
    <path d="M 250 250 Q 290 210 360 220 Q 370 270 320 300 Q 260 290 250 250" fill="#c9b5a3" opacity="0.5"></path>
  </g>
  
  
  <g id="dots-middle" fill="#a89883" opacity="0.5">
    <circle cx="500" cy="150" r="3"></circle>
    <circle cx="620" cy="190" r="2.8"></circle>
    <circle cx="710" cy="280" r="2.8"></circle>
    <circle cx="770" cy="400" r="2.8"></circle>
    <circle cx="800" cy="520" r="3"></circle>
    <circle cx="770" cy="640" r="2.8"></circle>
    <circle cx="710" cy="720" r="2.8"></circle>
    <circle cx="620" cy="810" r="2.8"></circle>
    <circle cx="500" cy="850" r="3"></circle>
    <circle cx="380" cy="810" r="2.8"></circle>
    <circle cx="290" cy="720" r="2.8"></circle>
    <circle cx="230" cy="640" r="2.8"></circle>
    <circle cx="200" cy="520" r="3"></circle>
    <circle cx="230" cy="400" r="2.8"></circle>
    <circle cx="290" cy="280" r="2.8"></circle>
    <circle cx="380" cy="190" r="2.8"></circle>
  </g>
  
  
  <g id="chamber-3">
    <circle cx="500" cy="500" r="280" fill="none" stroke="#9a8b7e" stroke-width="1.2" opacity="0.5"></circle>
    <circle cx="500" cy="500" r="270" fill="none" stroke="#a89883" stroke-width="0.6" opacity="0.3"></circle>
  </g>
  
  
  <g id="petals-inner" opacity="0.65">
    <path d="M 500 250 Q 545 300 535 360 Q 500 375 465 360 Q 455 300 500 250" fill="#9a8b7e" opacity="0.5"></path>
    <path d="M 750 500 Q 700 545 630 535 Q 615 500 630 465 Q 700 455 750 500" fill="#9a8b7e" opacity="0.5"></path>
    <path d="M 500 750 Q 455 700 465 640 Q 500 625 535 640 Q 545 700 500 750" fill="#9a8b7e" opacity="0.5"></path>
    <path d="M 250 500 Q 300 455 370 465 Q 385 500 370 535 Q 300 545 250 500" fill="#9a8b7e" opacity="0.5"></path>
  </g>
  
  
  <g id="dots-inner" fill="#8b7d72" opacity="0.6">
    <circle cx="500" cy="250" r="2.5"></circle>
    <circle cx="595" cy="290" r="2.3"></circle>
    <circle cx="660" cy="360" r="2.3"></circle>
    <circle cx="705" cy="460" r="2.3"></circle>
    <circle cx="720" cy="560" r="2.5"></circle>
    <circle cx="705" cy="640" r="2.3"></circle>
    <circle cx="660" cy="640" r="2.3"></circle>
    <circle cx="595" cy="710" r="2.3"></circle>
    <circle cx="500" cy="750" r="2.5"></circle>
    <circle cx="405" cy="710" r="2.3"></circle>
    <circle cx="340" cy="640" r="2.3"></circle>
    <circle cx="295" cy="640" r="2.3"></circle>
    <circle cx="280" cy="560" r="2.5"></circle>
    <circle cx="295" cy="460" r="2.3"></circle>
    <circle cx="340" cy="360" r="2.3"></circle>
    <circle cx="405" cy="290" r="2.3"></circle>
  </g>
  
  
  <g id="chamber-4">
    <circle cx="500" cy="500" r="180" fill="none" stroke="#7d6f64" stroke-width="1" opacity="0.5"></circle>
    <circle cx="500" cy="500" r="172" fill="none" stroke="#8b7d72" stroke-width="0.5" opacity="0.3"></circle>
  </g>
  
  
  <g id="petals-central" opacity="0.6">
    <path d="M 500 350 Q 530 375 525 410 Q 500 420 475 410 Q 470 375 500 350" fill="#7d6f64" opacity="0.4"></path>
    <path d="M 650 500 Q 625 530 590 525 Q 580 500 590 475 Q 625 470 650 500" fill="#7d6f64" opacity="0.4"></path>
    <path d="M 500 650 Q 470 625 475 590 Q 500 580 525 590 Q 530 625 500 650" fill="#7d6f64" opacity="0.4"></path>
    <path d="M 350 500 Q 375 470 410 475 Q 420 500 410 525 Q 375 530 350 500" fill="#7d6f64" opacity="0.4"></path>
  </g>
  
  
  <g id="dots-central" fill="#6b5f54" opacity="0.7">
    <circle cx="500" cy="350" r="2"></circle>
    <circle cx="560" cy="375" r="1.8"></circle>
    <circle cx="600" cy="420" r="1.8"></circle>
    <circle cx="625" cy="485" r="2"></circle>
    <circle cx="600" cy="540" r="1.8"></circle>
    <circle cx="560" cy="625" r="1.8"></circle>
    <circle cx="500" cy="650" r="2"></circle>
    <circle cx="440" cy="625" r="1.8"></circle>
    <circle cx="400" cy="540" r="1.8"></circle>
    <circle cx="375" cy="485" r="2"></circle>
    <circle cx="400" cy="420" r="1.8"></circle>
    <circle cx="440" cy="375" r="1.8"></circle>
  </g>
  
  
  <g id="chamber-5">
    <circle cx="500" cy="500" r="80" fill="none" stroke="#6b5f54" stroke-width="0.8" opacity="0.4"></circle>
    <circle cx="500" cy="500" r="75" fill="none" stroke="#5a4f47" stroke-width="0.4" opacity="0.2"></circle>
  </g>
  
  
  <g id="dots-core" fill="#5a4f47" opacity="0.8">
    <circle cx="500" cy="430" r="1.5"></circle>
    <circle cx="535" cy="445" r="1.4"></circle>
    <circle cx="560" cy="470" r="1.4"></circle>
    <circle cx="570" cy="500" r="1.5"></circle>
    <circle cx="560" cy="530" r="1.4"></circle>
    <circle cx="535" cy="555" r="1.4"></circle>
    <circle cx="500" cy="570" r="1.5"></circle>
    <circle cx="465" cy="555" r="1.4"></circle>
    <circle cx="440" cy="530" r="1.4"></circle>
    <circle cx="430" cy="500" r="1.5"></circle>
    <circle cx="440" cy="470" r="1.4"></circle>
    <circle cx="465" cy="445" r="1.4"></circle>
  </g>
  
  
  <circle cx="500" cy="500" r="30" fill="#faf7f2" opacity="0.9"></circle>
  
  
  <g id="center-pulse" fill="#6b5f54" opacity="0.5">
    <circle cx="500" cy="500" r="3"></circle>
    <circle cx="500" cy="500" r="1.5" fill="#faf7f2"></circle>
  </g>
  
  
  <g id="symmetry-lines" stroke="#d4c5b0" stroke-width="0.3" opacity="0.15">
    <line x1="500" y1="0" x2="500" y2="1000"></line>
    <line x1="0" y1="500" x2="1000" y2="500"></line>
    <line x1="150" y1="150" x2="850" y2="850"></line>
    <line x1="850" y1="150" x2="150" y2="850"></line>
  </g>
</svg>