<svg viewBox="0 0 1000 1000" xmlns="http://www.w3.org/2000/svg">
  <defs>
    <linearGradient id="grad1" x1="0%" y1="0%" x2="100%" y2="100%">
      <stop offset="0%" style="stop-color:#FF6B6B;stop-opacity:1"></stop>
      <stop offset="100%" style="stop-color:#FF8E8E;stop-opacity:1"></stop>
    </linearGradient>
  </defs>
  
  
  <rect width="1000" height="1000" fill="#F5F5F5"></rect>
  
  
  
  
  <rect x="0" y="0" width="200" height="200" fill="#FF6B6B"></rect>
  <rect x="200" y="0" width="200" height="200" fill="#4ECDC4"></rect>
  <rect x="400" y="0" width="200" height="200" fill="#FF6B6B"></rect>
  <rect x="600" y="0" width="200" height="200" fill="#4ECDC4"></rect>
  <rect x="800" y="0" width="200" height="200" fill="#FF6B6B"></rect>
  
  
  <rect x="0" y="200" width="200" height="200" fill="#4ECDC4"></rect>
  <rect x="200" y="200" width="200" height="200" fill="#45B7AA"></rect>
  <rect x="400" y="200" width="200" height="200" fill="#4ECDC4"></rect>
  <rect x="600" y="200" width="200" height="200" fill="#45B7AA"></rect>
  <rect x="800" y="200" width="200" height="200" fill="#4ECDC4"></rect>
  
  
  <rect x="0" y="400" width="200" height="200" fill="#FF6B6B"></rect>
  <rect x="200" y="400" width="200" height="200" fill="#45B7AA"></rect>
  <rect x="400" y="400" width="200" height="200" fill="#FFE66D"></rect>
  <rect x="600" y="400" width="200" height="200" fill="#45B7AA"></rect>
  <rect x="800" y="400" width="200" height="200" fill="#FF6B6B"></rect>
  
  
  <rect x="0" y="600" width="200" height="200" fill="#4ECDC4"></rect>
  <rect x="200" y="600" width="200" height="200" fill="#45B7AA"></rect>
  <rect x="400" y="600" width="200" height="200" fill="#4ECDC4"></rect>
  <rect x="600" y="600" width="200" height="200" fill="#45B7AA"></rect>
  <rect x="800" y="600" width="200" height="200" fill="#4ECDC4"></rect>
  
  
  <rect x="0" y="800" width="200" height="200" fill="#FF6B6B"></rect>
  <rect x="200" y="800" width="200" height="200" fill="#4ECDC4"></rect>
  <rect x="400" y="800" width="200" height="200" fill="#FF6B6B"></rect>
  <rect x="600" y="800" width="200" height="200" fill="#4ECDC4"></rect>
  <rect x="800" y="800" width="200" height="200" fill="#FF6B6B"></rect>
  
  
  
  <rect x="420" y="420" width="160" height="160" fill="#F5F5F5" opacity="0.9"></rect>
  <rect x="430" y="430" width="140" height="140" fill="#FFE66D"></rect>
  <rect x="445" y="445" width="110" height="110" fill="#FF6B6B"></rect>
  <rect x="460" y="460" width="80" height="80" fill="#4ECDC4"></rect>
  <rect x="475" y="475" width="50" height="50" fill="#FF6B6B"></rect>
  
  
  <circle cx="100" cy="100" r="25" fill="#45B7AA"></circle>
  <circle cx="900" cy="100" r="25" fill="#45B7AA"></circle>
  <circle cx="100" cy="900" r="25" fill="#45B7AA"></circle>
  <circle cx="900" cy="900" r="25" fill="#45B7AA"></circle>
  
  
  <circle cx="500" cy="50" r="20" fill="#FFE66D"></circle>
  <circle cx="950" cy="500" r="20" fill="#FFE66D"></circle>
  <circle cx="500" cy="950" r="20" fill="#FFE66D"></circle>
  <circle cx="50" cy="500" r="20" fill="#FFE66D"></circle>
  
  
  <rect x="100" y="100" width="40" height="40" fill="#FFE66D" opacity="0.8"></rect>
  <rect x="860" y="100" width="40" height="40" fill="#FFE66D" opacity="0.8"></rect>
  <rect x="100" y="860" width="40" height="40" fill="#FFE66D" opacity="0.8"></rect>
  <rect x="860" y="860" width="40" height="40" fill="#FFE66D" opacity="0.8"></rect>
  
  
  <g stroke="#45B7AA" stroke-width="2" opacity="0.4">
    <line x1="100" y1="0" x2="100" y2="1000"></line>
    <line x1="300" y1="0" x2="300" y2="1000"></line>
    <line x1="500" y1="0" x2="500" y2="1000"></line>
    <line x1="700" y1="0" x2="700" y2="1000"></line>
    <line x1="900" y1="0" x2="900" y2="1000"></line>
    <line x1="0" y1="100" x2="1000" y2="100"></line>
    <line x1="0" y1="300" x2="1000" y2="300"></line>
    <line x1="0" y1="500" x2="1000" y2="500"></line>
    <line x1="0" y1="700" x2="1000" y2="700"></line>
    <line x1="0" y1="900" x2="1000" y2="900"></line>
  </g>
  
  
  <rect x="150" y="50" width="30" height="30" fill="#45B7AA"></rect>
  <rect x="820" y="50" width="30" height="30" fill="#45B7AA"></rect>
  <rect x="50" y="150" width="30" height="30" fill="#FFE66D"></rect>
  <rect x="920" y="150" width="30" height="30" fill="#FFE66D"></rect>
  <rect x="50" y="850" width="30" height="30" fill="#45B7AA"></rect>
  <rect x="920" y="850" width="30" height="30" fill="#45B7AA"></rect>
  <rect x="150" y="920" width="30" height="30" fill="#FFE66D"></rect>
  <rect x="820" y="920" width="30" height="30" fill="#FFE66D"></rect>
  
  
  <rect x="250" y="250" width="50" height="50" fill="#45B7AA" opacity="0.7"></rect>
  <rect x="700" y="250" width="50" height="50" fill="#45B7AA" opacity="0.7"></rect>
  <rect x="250" y="700" width="50" height="50" fill="#45B7AA" opacity="0.7"></rect>
  <rect x="700" y="700" width="50" height="50" fill="#45B7AA" opacity="0.7"></rect>
  
  
  <circle cx="200" cy="200" r="8" fill="#FFE66D"></circle>
  <circle cx="800" cy="200" r="8" fill="#FFE66D"></circle>
  <circle cx="200" cy="800" r="8" fill="#FFE66D"></circle>
  <circle cx="800" cy="800" r="8" fill="#FFE66D"></circle>
  
  
  <rect x="350" y="100" width="15" height="15" fill="#FF6B6B" opacity="0.6"></rect>
  <rect x="635" y="100" width="15" height="15" fill="#FF6B6B" opacity="0.6"></rect>
  <rect x="350" y="885" width="15" height="15" fill="#FF6B6B" opacity="0.6"></rect>
  <rect x="635" y="885" width="15" height="15" fill="#FF6B6B" opacity="0.6"></rect>
  
  
  <circle cx="250" cy="500" r="15" fill="#FFE66D" opacity="0.8"></circle>
  <circle cx="750" cy="500" r="15" fill="#FFE66D" opacity="0.8"></circle>
  <circle cx="500" cy="250" r="15" fill="#45B7AA" opacity="0.8"></circle>
  <circle cx="500" cy="750" r="15" fill="#45B7AA" opacity="0.8"></circle>
</svg>