<svg viewBox="0 0 1000 1000" xmlns="http://www.w3.org/2000/svg">
  <defs>
    <linearGradient id="rustFade" x1="0%" y1="0%" x2="100%" y2="100%">
      <stop offset="0%" style="stop-color:#8B4513;stop-opacity:1"></stop>
      <stop offset="50%" style="stop-color:#D2691E;stop-opacity:1"></stop>
      <stop offset="100%" style="stop-color:#A0522D;stop-opacity:1"></stop>
    </linearGradient>
    <radialGradient id="moltenCore" cx="50%" cy="50%" r="50%">
      <stop offset="0%" style="stop-color:#FFD700;stop-opacity:1"></stop>
      <stop offset="40%" style="stop-color:#FF8C00;stop-opacity:1"></stop>
      <stop offset="100%" style="stop-color:#8B4513;stop-opacity:0.3"></stop>
    </radialGradient>
    <radialGradient id="darkVoid" cx="50%" cy="50%" r="60%">
      <stop offset="0%" style="stop-color:#1a1a1a;stop-opacity:1"></stop>
      <stop offset="100%" style="stop-color:#0a0a0a;stop-opacity:1"></stop>
    </radialGradient>
  </defs>

  
  <rect width="1000" height="1000" fill="url(#darkVoid)"></rect>

  
  <circle cx="500" cy="500" r="420" fill="none" stroke="#3d2817" stroke-width="1" opacity="0.4"></circle>
  <circle cx="500" cy="500" r="390" fill="none" stroke="#5c4033" stroke-width="0.5" opacity="0.3"></circle>

  
  <circle cx="280" cy="180" r="2.5" fill="#8B4513" opacity="0.7"></circle>
  <circle cx="320" cy="160" r="1.8" fill="#A0522D" opacity="0.6"></circle>
  <circle cx="750" cy="170" r="2.2" fill="#8B4513" opacity="0.65"></circle>
  <circle cx="820" cy="210" r="1.5" fill="#A0522D" opacity="0.5"></circle>
  <circle cx="180" cy="450" r="2" fill="#8B4513" opacity="0.7"></circle>
  <circle cx="160" cy="520" r="1.6" fill="#D2691E" opacity="0.6"></circle>
  <circle cx="840" cy="480" r="2.1" fill="#8B4513" opacity="0.68"></circle>
  <circle cx="860" cy="550" r="1.7" fill="#A0522D" opacity="0.55"></circle>
  <circle cx="310" cy="820" r="2.3" fill="#8B4513" opacity="0.72"></circle>
  <circle cx="280" cy="860" r="1.4" fill="#D2691E" opacity="0.5"></circle>
  <circle cx="720" cy="840" r="2" fill="#8B4513" opacity="0.65"></circle>
  <circle cx="760" cy="880" r="1.9" fill="#A0522D" opacity="0.62"></circle>

  
  <circle cx="420" cy="280" r="3" fill="#D2691E" opacity="0.8"></circle>
  <circle cx="445" cy="265" r="2.5" fill="#FF8C00" opacity="0.75"></circle>
  <circle cx="475" cy="275" r="2.8" fill="#D2691E" opacity="0.7"></circle>
  <circle cx="510" cy="290" r="3.2" fill="#FF8C00" opacity="0.8"></circle>
  <circle cx="545" cy="310" r="2.7" fill="#D2691E" opacity="0.75"></circle>
  <circle cx="575" cy="340" r="3.1" fill="#FF8C00" opacity="0.78"></circle>
  
  <circle cx="600" cy="390" r="3.3" fill="#D2691E" opacity="0.82"></circle>
  <circle cx="610" cy="445" r="3.5" fill="#FF8C00" opacity="0.85"></circle>
  <circle cx="600" cy="500" r="3.2" fill="#D2691E" opacity="0.8"></circle>
  <circle cx="575" cy="545" r="3.4" fill="#FF8C00" opacity="0.83"></circle>
  
  <circle cx="530" cy="580" r="3.3" fill="#D2691E" opacity="0.78"></circle>
  <circle cx="475" cy="600" r="3.1" fill="#FF8C00" opacity="0.8"></circle>
  <circle cx="420" cy="605" r="3.4" fill="#D2691E" opacity="0.82"></circle>
  <circle cx="365" cy="585" r="3.2" fill="#FF8C00" opacity="0.78"></circle>
  
  <circle cx="320" cy="545" r="3.3" fill="#D2691E" opacity="0.81"></circle>
  <circle cx="290" cy="490" r="3.5" fill="#FF8C00" opacity="0.84"></circle>
  <circle cx="280" cy="430" r="3.1" fill="#D2691E" opacity="0.77"></circle>
  <circle cx="290" cy="370" r="3.3" fill="#FF8C00" opacity="0.79"></circle>
  <circle cx="320" cy="320" r="3.2" fill="#D2691E" opacity="0.8"></circle>
  <circle cx="365" cy="290" r="3.4" fill="#FF8C00" opacity="0.82"></circle>

  
  <circle cx="480" cy="380" r="2.8" fill="#FFD700" opacity="0.9"></circle>
  <circle cx="495" cy="375" r="2.6" fill="#FF8C00" opacity="0.92"></circle>
  <circle cx="510" cy="385" r="2.9" fill="#FFD700" opacity="0.88"></circle>
  <circle cx="520" cy="405" r="2.7" fill="#FF8C00" opacity="0.91"></circle>
  <circle cx="525" cy="430" r="2.5" fill="#FFD700" opacity="0.87"></circle>
  <circle cx="520" cy="455" r="2.8" fill="#FF8C00" opacity="0.9"></circle>
  <circle cx="505" cy="475" r="2.6" fill="#FFD700" opacity="0.89"></circle>
  <circle cx="480" cy="485" r="2.9" fill="#FF8C00" opacity="0.92"></circle>
  <circle cx="455" cy="475" r="2.7" fill="#FFD700" opacity="0.88"></circle>
  <circle cx="435" cy="455" r="2.8" fill="#FF8C00" opacity="0.91"></circle>
  <circle cx="420" cy="430" r="2.6" fill="#FFD700" opacity="0.87"></circle>
  <circle cx="415" cy="405" r="2.9" fill="#FF8C00" opacity="0.9"></circle>
  <circle cx="425" cy="385" r="2.5" fill="#FFD700" opacity="0.88"></circle>
  <circle cx="450" cy="375" r="2.7" fill="#FF8C00" opacity="0.91"></circle>

  
  <path d="M 500 500 L 520 420 Q 540 400 550 380 L 500 500 Z" fill="#D2691E" opacity="0.6"></path>
  <path d="M 500 500 L 580 460 Q 600 440 620 430 L 500 500 Z" fill="#FF8C00" opacity="0.65"></path>
  <path d="M 500 500 L 570 520 Q 590 540 600 560 L 500 500 Z" fill="#D2691E" opacity="0.6"></path>
  <path d="M 500 500 L 480 580 Q 460 600 440 620 L 500 500 Z" fill="#FF8C00" opacity="0.65"></path>
  <path d="M 500 500 L 420 540 Q 400 560 380 570 L 500 500 Z" fill="#D2691E" opacity="0.6"></path>
  <path d="M 500 500 L 430 420 Q 410 400 390 380 L 500 500 Z" fill="#FF8C00" opacity="0.65"></path>

  
  <circle cx="500" cy="500" r="150" fill="none" stroke="#8B4513" stroke-width="1.5" opacity="0.5" stroke-dasharray="5,3"></circle>
  <circle cx="500" cy="500" r="100" fill="none" stroke="#D2691E" stroke-width="1" opacity="0.6" stroke-dasharray="3,2"></circle>
  <circle cx="500" cy="500" r="60" fill="none" stroke="#FF8C00" stroke-width="1.2" opacity="0.7"></circle>
  <circle cx="500" cy="500" r="35" fill="none" stroke="#FFD700" stroke-width="0.8" opacity="0.8"></circle>

  
  <circle cx="500" cy="500" r="50" fill="url(#moltenCore)" opacity="0.95"></circle>
  <circle cx="500" cy="500" r="45" fill="#FFD700" opacity="0.4"></circle>
  <circle cx="500" cy="500" r="30" fill="#FF8C00" opacity="0.6"></circle>

  
  <circle cx="500" cy="500" r="3" fill="#FFD700" opacity="1"></circle>
  <circle cx="490" cy="510" r="2.2" fill="#FF8C00" opacity="0.95"></circle>
  <circle cx="510" cy="505" r="2.5" fill="#FFD700" opacity="0.92"></circle>
  <circle cx="505" cy="485" r="2" fill="#FF8C00" opacity="0.94"></circle>
  <circle cx="495" cy="495" r="2.3" fill="#FFD700" opacity="0.93"></circle>
  <circle cx="515" cy="515" r="1.8" fill="#FF8C00" opacity="0.91"></circle>

  
  <line x1="500" y1="500" x2="500" y2="350" stroke="#A0522D" stroke-width="1.5" opacity="0.5"></line>
  <line x1="500" y1="500" x2="610" y2="440" stroke="#A0522D" stroke-width="1" opacity="0.4"></line>
  <line x1="500" y1="500" x2="610" y2="560" stroke="#A0522D" stroke-width="1.2" opacity="0.45"></line>
  <line x1="500" y1="500" x2="500" y2="650" stroke="#A0522D" stroke-width="1" opacity="0.4"></line>
  <line x1="500" y1="500" x2="390" y2="560" stroke="#A0522D" stroke-width="1.5" opacity="0.5"></line>
  <line x1="500" y1="500" x2="390" y2="440" stroke="#A0522D" stroke-width="1" opacity="0.4"></line>

  
  <circle cx="380" cy="350" r="15" fill="none" stroke="#D2691E" stroke-width="0.8" opacity="0.3"></circle>
  <circle cx="620" cy="380" r="18" fill="none" stroke="#8B4513" stroke-width="0.9" opacity="0.35"></circle>
  <circle cx="650" cy="520" r="12" fill="none" stroke="#D2691E" stroke-width="0.7" opacity="0.3"></circle>
  <circle cx="380" cy="620" r="16" fill="none" stroke="#8B4513" stroke-width="0.8" opacity="0.32"></circle>
  <circle cx="420" cy="350" r="8" fill="none" stroke="#A0522D" stroke-width="0.6" opacity="0.4"></circle>
  <circle cx="580" cy="650" r="14" fill="none" stroke="#D2691E" stroke-width="0.75" opacity="0.35"></circle>

  
  <circle cx="350" cy="400" r="1.2" fill="#FFD700" opacity="0.8"></circle>
  <circle cx="355" cy="390" r="1" fill="#FF8C00" opacity="0.75"></circle>
  <circle cx="640" cy="420" r="1.3" fill="#FFD700" opacity="0.82"></circle>
  <circle cx="650" cy="410" r="0.9" fill="#FF8C00" opacity="0.7"></circle>
  <circle cx="620" cy="580" r="1.1" fill="#FFD700" opacity="0.78"></circle>
  <circle cx="630" cy="590" r="1.4" fill="#FF8C00" opacity="0.8"></circle>
  <circle cx="360" cy="600" r="1.3" fill="#FFD700" opacity="0.8"></circle>
  <circle cx="350" cy="610" r="1.1" fill="#FF8C00" opacity="0.76"></circle>
</svg>