<svg viewBox="0 0 1000 1000" xmlns="http://www.w3.org/2000/svg">
  <defs>
    <linearGradient id="grad1" x1="0%" y1="0%" x2="100%" y2="100%">
      <stop offset="0%" style="stop-color:#000000;stop-opacity:1"></stop>
      <stop offset="50%" style="stop-color:#1a1a2e;stop-opacity:1"></stop>
      <stop offset="100%" style="stop-color:#0f0f1e;stop-opacity:1"></stop>
    </linearGradient>
    <radialGradient id="grad2" cx="50%" cy="50%" r="50%">
      <stop offset="0%" style="stop-color:#ffffff;stop-opacity:0.9"></stop>
      <stop offset="60%" style="stop-color:#ff4444;stop-opacity:0.7"></stop>
      <stop offset="100%" style="stop-color:#000000;stop-opacity:0.3"></stop>
    </radialGradient>
  </defs>

  <rect width="1000" height="1000" fill="url(#grad1)"></rect>

  
  
  <circle cx="120" cy="85" r="3.2" fill="#ffffff" opacity="0.95"></circle>
  <circle cx="145" cy="92" r="2.8" fill="#ffffff" opacity="0.88"></circle>
  <circle cx="168" cy="110" r="3.1" fill="#ffffff" opacity="0.92"></circle>
  <circle cx="142" cy="135" r="2.9" fill="#ff6b6b" opacity="0.85"></circle>
  <circle cx="195" cy="118" r="3.3" fill="#ffffff" opacity="0.91"></circle>
  <circle cx="175" cy="155" r="2.7" fill="#ff8888" opacity="0.79"></circle>
  <circle cx="128" cy="172" r="3.0" fill="#ff4444" opacity="0.82"></circle>
  <circle cx="210" cy="145" r="2.6" fill="#ffffff" opacity="0.87"></circle>
  <circle cx="98" cy="148" r="3.2" fill="#ff5555" opacity="0.80"></circle>
  <circle cx="165" cy="195" r="2.8" fill="#ff7777" opacity="0.81"></circle>

  
  <circle cx="720" cy="280" r="3.5" fill="#ff3333" opacity="0.92"></circle>
  <circle cx="755" cy="305" r="3.2" fill="#ff4444" opacity="0.88"></circle>
  <circle cx="785" cy="295" r="2.9" fill="#ff2222" opacity="0.95"></circle>
  <circle cx="738" cy="335" r="3.1" fill="#ff5555" opacity="0.85"></circle>
  <circle cx="810" cy="320" r="3.0" fill="#cc0000" opacity="0.90"></circle>
  <circle cx="765" cy="360" r="2.7" fill="#440000" opacity="0.78"></circle>
  <circle cx="825" cy="345" r="3.3" fill="#ff1111" opacity="0.89"></circle>
  <circle cx="700" cy="345" r="2.8" fill="#330000" opacity="0.75"></circle>
  <circle cx="840" cy="280" r="3.0" fill="#ff6666" opacity="0.83"></circle>
  <circle cx="710" cy="305" r="3.4" fill="#ff2222" opacity="0.91"></circle>

  
  <circle cx="380" cy="680" r="3.1" fill="#ffffff" opacity="0.89"></circle>
  <circle cx="420" cy="705" r="2.9" fill="#ff8888" opacity="0.81"></circle>
  <circle cx="450" cy="720" r="3.2" fill="#ffffff" opacity="0.87"></circle>
  <circle cx="395" cy="745" r="2.8" fill="#ff4444" opacity="0.84"></circle>
  <circle cx="470" cy="755" r="3.0" fill="#ffffff" opacity="0.92"></circle>
  <circle cx="355" cy="765" r="2.6" fill="#ff5555" opacity="0.79"></circle>
  <circle cx="510" cy="730" r="3.3" fill="#ff3333" opacity="0.88"></circle>
  <circle cx="385" cy="810" r="2.9" fill="#ffffff" opacity="0.90"></circle>
  <circle cx="445" cy="800" r="3.1" fill="#ff6666" opacity="0.82"></circle>
  <circle cx="520" cy="795" r="2.7" fill="#cc0000" opacity="0.76"></circle>

  
  <circle cx="880" cy="65" r="2.8" fill="#ffffff" opacity="0.86"></circle>
  <circle cx="925" cy="95" r="3.0" fill="#ff7777" opacity="0.83"></circle>
  <circle cx="950" cy="125" r="2.9" fill="#ffffff" opacity="0.89"></circle>
  <circle cx="905" cy="140" r="3.2" fill="#ff5555" opacity="0.81"></circle>
  <circle cx="960" cy="85" r="2.7" fill="#ffffff" opacity="0.88"></circle>
  <circle cx="890" cy="175" r="3.1" fill="#ff4444" opacity="0.85"></circle>
  <circle cx="935" cy="160" r="2.8" fill="#ffffff" opacity="0.91"></circle>
  <circle cx="975" cy="210" r="3.3" fill="#ff2222" opacity="0.87"></circle>
  <circle cx="850" cy="210" r="2.6" fill="#ffffff" opacity="0.84"></circle>
  <circle cx="915" cy="235" r="3.0" fill="#ff6666" opacity="0.79"></circle>

  
  <circle cx="95" cy="570" r="3.2" fill="#ff8888" opacity="0.80"></circle>
  <circle cx="145" cy="595" r="2.9" fill="#ffffff" opacity="0.87"></circle>
  <circle cx="175" cy="625" r="3.1" fill="#ff4444" opacity="0.83"></circle>
  <circle cx="125" cy="650" r="2.8" fill="#ffffff" opacity="0.90"></circle>
  <circle cx="210" cy="615" r="3.0" fill="#ff5555" opacity="0.82"></circle>
  <circle cx="75" cy="635" r="2.7" fill="#ff3333" opacity="0.78"></circle>
  <circle cx="155" cy="675" r="3.3" fill="#ffffff" opacity="0.88"></circle>
  <circle cx="220" cy="665" r="2.9" fill="#ff1111" opacity="0.86"></circle>
  <circle cx="105" cy="715" r="3.0" fill="#ff7777" opacity="0.81"></circle>
  <circle cx="185" cy="735" r="2.6" fill="#ffffff" opacity="0.89"></circle>

  
  <circle cx="520" cy="480" r="85" fill="url(#grad2)" opacity="0.75"></circle>
  <circle cx="520" cy="480" r="70" fill="#ff2222" opacity="0.35"></circle>
  <circle cx="520" cy="480" r="55" fill="#ffffff" opacity="0.25"></circle>
  <circle cx="520" cy="480" r="35" fill="#ff4444" opacity="0.45"></circle>

  
  <circle cx="380" cy="380" r="2.2" fill="#ffffff" opacity="0.72"></circle>
  <circle cx="650" cy="420" r="2.4" fill="#ff5555" opacity="0.68"></circle>
  <circle cx="410" cy="580" r="2.1" fill="#ffffff" opacity="0.70"></circle>
  <circle cx="620" cy="550" r="2.3" fill="#ff6666" opacity="0.65"></circle>
  <circle cx="490" cy="320" r="2.0" fill="#ff3333" opacity="0.67"></circle>
  <circle cx="560" cy="635" r="2.5" fill="#ffffff" opacity="0.73"></circle>
  <circle cx="330" cy="490" r="2.2" fill="#ff4444" opacity="0.69"></circle>
  <circle cx="680" cy="480" r="2.3" fill="#ffffff" opacity="0.71"></circle>
  <circle cx="520" cy="280" r="2.1" fill="#ff5555" opacity="0.66"></circle>
  <circle cx="520" cy="680" r="2.4" fill="#ffffff" opacity="0.74"></circle>

  
  <ellipse cx="250" cy="450" rx="45" ry="120" fill="#ff3333" opacity="0.18"></ellipse>
  <ellipse cx="750" cy="420" rx="55" ry="95" fill="#ff4444" opacity="0.15"></ellipse>
  <ellipse cx="480" cy="280" rx="35" ry="70" fill="#ffffff" opacity="0.12"></ellipse>

  
  <circle cx="315" cy="240" r="2.8" fill="#ffffff" opacity="0.83"></circle>
  <circle cx="340" cy="265" r="2.9" fill="#ff5555" opacity="0.78"></circle>
  <circle cx="365" cy="288" r="2.6" fill="#ffffff" opacity="0.85"></circle>
  <circle cx="325" cy="305" r="3.0" fill="#ff4444" opacity="0.80"></circle>
  <circle cx="290" cy="275" r="2.7" fill="#ff6666" opacity="0.75"></circle>

  <circle cx="655" cy="750" r="2.9" fill="#ffffff" opacity="0.84"></circle>
  <circle cx="685" cy="780" r="3.1" fill="#ff3333" opacity="0.81"></circle>
  <circle cx="710" cy="805" r="2.8" fill="#ffffff" opacity="0.87"></circle>
  <circle cx="665" cy="830" r="2.7" fill="#ff5555" opacity="0.77"></circle>
  <circle cx="620" cy="800" r="3.0" fill="#ff2222" opacity="0.82"></circle>

  
  <circle cx="75" cy="380" r="2.4" fill="#ff7777" opacity="0.70"></circle>
  <circle cx="920" cy="560" r="2.6" fill="#ffffff" opacity="0.75"></circle>
  <circle cx="245" cy="850" r="2.3" fill="#ff4444" opacity="0.72"></circle>
  <circle cx="835" cy="875" r="2.5" fill="#ffffff" opacity="0.78"></circle>
  <circle cx="495" cy="920" r="2.2" fill="#ff5555" opacity="0.68"></circle>
</svg>