<svg viewBox="0 0 1000 1000" xmlns="http://www.w3.org/2000/svg">
  <defs>
    <radialGradient id="grad1" cx="50%" cy="50%" r="60%">
      <stop offset="0%" style="stop-color:#fff;stop-opacity:1"></stop>
      <stop offset="100%" style="stop-color:#000;stop-opacity:1"></stop>
    </radialGradient>
    <radialGradient id="grad2" cx="40%" cy="40%" r="70%">
      <stop offset="0%" style="stop-color:#ff0000;stop-opacity:0.9"></stop>
      <stop offset="100%" style="stop-color:#000;stop-opacity:1"></stop>
    </radialGradient>
  </defs>
  
  
  <rect width="1000" height="1000" fill="#f5f5f5"></rect>
  
  
  <g id="dotfield">
    
    <circle cx="500" cy="500" r="380" fill="none" stroke="#ff0000" stroke-width="2" opacity="0.3"></circle>
    
    
    
    <circle cx="500" cy="500" r="8" fill="#fff" stroke="#000" stroke-width="1.5"></circle>
    <circle cx="490" cy="495" r="6" fill="#fff" stroke="#000" stroke-width="1"></circle>
    <circle cx="510" cy="505" r="6" fill="#fff" stroke="#000" stroke-width="1"></circle>
    <circle cx="495" cy="510" r="5" fill="#fff" stroke="#000" stroke-width="1"></circle>
    <circle cx="505" cy="490" r="5" fill="#fff" stroke="#000" stroke-width="1"></circle>
    
    
    <circle cx="560" cy="500" r="5" fill="#fff" stroke="#ff0000" stroke-width="1.5"></circle>
    <circle cx="440" cy="500" r="5" fill="#fff" stroke="#ff0000" stroke-width="1.5"></circle>
    <circle cx="500" cy="560" r="5" fill="#fff" stroke="#ff0000" stroke-width="1.5"></circle>
    <circle cx="500" cy="440" r="5" fill="#fff" stroke="#ff0000" stroke-width="1.5"></circle>
    <circle cx="542" cy="542" r="5" fill="#fff" stroke="#ff0000" stroke-width="1.5"></circle>
    <circle cx="458" cy="458" r="5" fill="#fff" stroke="#ff0000" stroke-width="1.5"></circle>
    <circle cx="542" cy="458" r="5" fill="#fff" stroke="#ff0000" stroke-width="1.5"></circle>
    <circle cx="458" cy="542" r="5" fill="#fff" stroke="#ff0000" stroke-width="1.5"></circle>
    
    
    <circle cx="620" cy="500" r="4.5" fill="#fff" stroke="#000" stroke-width="1"></circle>
    <circle cx="380" cy="500" r="4.5" fill="#fff" stroke="#000" stroke-width="1"></circle>
    <circle cx="500" cy="620" r="4.5" fill="#fff" stroke="#000" stroke-width="1"></circle>
    <circle cx="500" cy="380" r="4.5" fill="#fff" stroke="#000" stroke-width="1"></circle>
    <circle cx="585" cy="585" r="4.5" fill="#fff" stroke="#000" stroke-width="1"></circle>
    <circle cx="415" cy="415" r="4.5" fill="#fff" stroke="#000" stroke-width="1"></circle>
    <circle cx="585" cy="415" r="4.5" fill="#fff" stroke="#000" stroke-width="1"></circle>
    <circle cx="415" cy="585" r="4.5" fill="#fff" stroke="#000" stroke-width="1"></circle>
    <circle cx="630" cy="570" r="4" fill="#fff" stroke="#ff0000" stroke-width="0.8"></circle>
    <circle cx="570" cy="630" r="4" fill="#fff" stroke="#ff0000" stroke-width="0.8"></circle>
    <circle cx="370" cy="430" r="4" fill="#fff" stroke="#ff0000" stroke-width="0.8"></circle>
    <circle cx="430" cy="370" r="4" fill="#fff" stroke="#ff0000" stroke-width="0.8"></circle>
    
    
    <circle cx="680" cy="500" r="4" fill="#fff" stroke="#000" stroke-width="0.8"></circle>
    <circle cx="320" cy="500" r="4" fill="#fff" stroke="#000" stroke-width="0.8"></circle>
    <circle cx="500" cy="680" r="4" fill="#fff" stroke="#000" stroke-width="0.8"></circle>
    <circle cx="500" cy="320" r="4" fill="#fff" stroke="#000" stroke-width="0.8"></circle>
    <circle cx="642" cy="642" r="4" fill="#fff" stroke="#000" stroke-width="0.8"></circle>
    <circle cx="358" cy="358" r="4" fill="#fff" stroke="#000" stroke-width="0.8"></circle>
    <circle cx="642" cy="358" r="4" fill="#fff" stroke="#000" stroke-width="0.8"></circle>
    <circle cx="358" cy="642" r="4" fill="#fff" stroke="#000" stroke-width="0.8"></circle>
    <circle cx="660" cy="640" r="3.5" fill="#fff" stroke="#ff0000" stroke-width="0.8"></circle>
    <circle cx="640" cy="660" r="3.5" fill="#fff" stroke="#ff0000" stroke-width="0.8"></circle>
    <circle cx="340" cy="340" r="3.5" fill="#fff" stroke="#ff0000" stroke-width="0.8"></circle>
    <circle cx="360" cy="320" r="3.5" fill="#fff" stroke="#ff0000" stroke-width="0.8"></circle>
    
    
    <circle cx="750" cy="500" r="3.5" fill="#ff0000" stroke="#000" stroke-width="0.7" opacity="0.8"></circle>
    <circle cx="250" cy="500" r="3.5" fill="#ff0000" stroke="#000" stroke-width="0.7" opacity="0.8"></circle>
    <circle cx="500" cy="750" r="3.5" fill="#ff0000" stroke="#000" stroke-width="0.7" opacity="0.8"></circle>
    <circle cx="500" cy="250" r="3.5" fill="#ff0000" stroke="#000" stroke-width="0.7" opacity="0.8"></circle>
    <circle cx="707" cy="707" r="3.5" fill="#ff0000" stroke="#000" stroke-width="0.7" opacity="0.8"></circle>
    <circle cx="293" cy="293" r="3.5" fill="#ff0000" stroke="#000" stroke-width="0.7" opacity="0.8"></circle>
    <circle cx="707" cy="293" r="3.5" fill="#ff0000" stroke="#000" stroke-width="0.7" opacity="0.8"></circle>
    <circle cx="293" cy="707" r="3.5" fill="#ff0000" stroke="#000" stroke-width="0.7" opacity="0.8"></circle>
    
    
    <circle cx="530" cy="480" r="3" fill="#fff" stroke="#000" stroke-width="0.6"></circle>
    <circle cx="470" cy="520" r="3" fill="#fff" stroke="#000" stroke-width="0.6"></circle>
    <circle cx="520" cy="520" r="3" fill="#fff" stroke="#ff0000" stroke-width="0.6"></circle>
    <circle cx="480" cy="480" r="3" fill="#fff" stroke="#ff0000" stroke-width="0.6"></circle>
    <circle cx="550" cy="520" r="2.8" fill="#fff" stroke="#000" stroke-width="0.5"></circle>
    <circle cx="450" cy="480" r="2.8" fill="#fff" stroke="#000" stroke-width="0.5"></circle>
    <circle cx="520" cy="550" r="2.8" fill="#fff" stroke="#000" stroke-width="0.5"></circle>
    <circle cx="480" cy="450" r="2.8" fill="#fff" stroke="#000" stroke-width="0.5"></circle>
    
    
    <circle cx="600" cy="520" r="2.5" fill="#fff" stroke="#ff0000" stroke-width="0.5" opacity="0.9"></circle>
    <circle cx="400" cy="480" r="2.5" fill="#fff" stroke="#ff0000" stroke-width="0.5" opacity="0.9"></circle>
    <circle cx="520" cy="600" r="2.5" fill="#fff" stroke="#ff0000" stroke-width="0.5" opacity="0.9"></circle>
    <circle cx="480" cy="400" r="2.5" fill="#fff" stroke="#ff0000" stroke-width="0.5" opacity="0.9"></circle>
    <circle cx="580" cy="560" r="2.3" fill="#fff" stroke="#000" stroke-width="0.5" opacity="0.85"></circle>
    <circle cx="420" cy="440" r="2.3" fill="#fff" stroke="#000" stroke-width="0.5" opacity="0.85"></circle>
    <circle cx="560" cy="580" r="2.3" fill="#fff" stroke="#000" stroke-width="0.5" opacity="0.85"></circle>
    <circle cx="440" cy="420" r="2.3" fill="#fff" stroke="#000" stroke-width="0.5" opacity="0.85"></circle>
    
    
    <circle cx="760" cy="520" r="2" fill="#ff0000" stroke="#000" stroke-width="0.4" opacity="0.6"></circle>
    <circle cx="240" cy="480" r="2" fill="#ff0000" stroke="#000" stroke-width="0.4" opacity="0.6"></circle>
    <circle cx="520" cy="760" r="2" fill="#ff0000" stroke="#000" stroke-width="0.4" opacity="0.6"></circle>
    <circle cx="480" cy="240" r="2" fill="#ff0000" stroke="#000" stroke-width="0.4" opacity="0.6"></circle>
    <circle cx="720" cy="720" r="2" fill="#ff0000" stroke="#000" stroke-width="0.4" opacity="0.6"></circle>
    <circle cx="280" cy="280" r="2" fill="#ff0000" stroke="#000" stroke-width="0.4" opacity="0.6"></circle>
    <circle cx="720" cy="280" r="2" fill="#ff0000" stroke="#000" stroke-width="0.4" opacity="0.6"></circle>
    <circle cx="280" cy="720" r="2" fill="#ff0000" stroke="#000" stroke-width="0.4" opacity="0.6"></circle>
    
    
    <circle cx="850" cy="500" r="1.5" fill="#ff0000" opacity="0.4"></circle>
    <circle cx="150" cy="500" r="1.5" fill="#ff0000" opacity="0.4"></circle>
    <circle cx="500" cy="850" r="1.5" fill="#ff0000" opacity="0.4"></circle>
    <circle cx="500" cy="150" r="1.5" fill="#ff0000" opacity="0.4"></circle>
    <circle cx="800" cy="800" r="1.5" fill="#ff0000" opacity="0.4"></circle>
    <circle cx="200" cy="200" r="1.5" fill="#ff0000" opacity="0.4"></circle>
    <circle cx="800" cy="200" r="1.5" fill="#ff0000" opacity="0.4"></circle>
    <circle cx="200" cy="800" r="1.5" fill="#ff0000" opacity="0.4"></circle>
    
    
    <circle cx="600" cy="540" r="1.8" fill="#fff" stroke="#ff0000" stroke-width="0.3" opacity="0.7"></circle>
    <circle cx="400" cy="460" r="1.8" fill="#fff" stroke="#ff0000" stroke-width="0.3" opacity="0.7"></circle>
    <circle cx="540" cy="600" r="1.8" fill="#fff" stroke="#ff0000" stroke-width="0.3" opacity="0.7"></circle>
    <circle cx="460" cy="400" r="1.8" fill="#fff" stroke="#ff0000" stroke-width="0.3" opacity="0.7"></circle>
    <circle cx="610" cy="490" r="1.6" fill="#fff" stroke="#000" stroke-width="0.3" opacity="0.65"></circle>
    <circle cx="390" cy="510" r="1.6" fill="#fff" stroke="#000" stroke-width="0.3" opacity="0.65"></circle>
    <circle cx="510" cy="610" r="1.6" fill="#fff" stroke="#000" stroke-width="0.3" opacity="0.65"></circle>
    <circle cx="490" cy="390" r="1.6" fill="#fff" stroke="#000" stroke-width="0.3" opacity="0.65"></circle>
    
    
    <circle cx="535" cy="465" r="1.2" fill="#fff" stroke="#ff0000" stroke-width="0.2" opacity="0.5"></circle>
    <circle cx="465" cy="535" r="1.2" fill="#fff" stroke="#ff0000" stroke-width="0.2" opacity="0.5"></circle>
    <circle cx="575" cy="575" r="1.1" fill="#fff" opacity="0.4"></circle>
    <circle cx="425" cy="425" r="1.1" fill="#fff" opacity="0.4"></circle>
    <circle cx="625" cy="510" r="1.3" fill="#fff" stroke="#ff0000" stroke-width="0.2" opacity="0.55"></circle>
    <circle cx="375" cy="490" r="1.3" fill="#fff" stroke="#ff0000" stroke-width="0.2" opacity="0.55"></circle>
    <circle cx="510" cy="625" r="1.3" fill="#fff" stroke="#ff0000" stroke-width="0.2" opacity="0.55"></circle>
    <circle cx="490" cy="375" r="1.3" fill="#fff" stroke="#ff0000" stroke-width="0.2" opacity="0.55"></circle>
  </g>
</svg>