<svg viewBox="0 0 1000 1000" xmlns="http://www.w3.org/2000/svg">
  <defs>
    <radialGradient id="grad1" cx="50%" cy="50%" r="50%">
      <stop offset="0%" style="stop-color:#f5e6d3;stop-opacity:1"></stop>
      <stop offset="100%" style="stop-color:#2c2c2c;stop-opacity:1"></stop>
    </radialGradient>
    <radialGradient id="grad2" cx="50%" cy="50%" r="50%">
      <stop offset="0%" style="stop-color:#e8b4a8;stop-opacity:1"></stop>
      <stop offset="100%" style="stop-color:#4a3728;stop-opacity:1"></stop>
    </radialGradient>
    <radialGradient id="grad3" cx="50%" cy="50%" r="50%">
      <stop offset="0%" style="stop-color:#d4a5a0;stop-opacity:1"></stop>
      <stop offset="100%" style="stop-color:#1a1a1a;stop-opacity:1"></stop>
    </radialGradient>
    <linearGradient id="grad4" x1="0%" y1="0%" x2="100%" y2="100%">
      <stop offset="0%" style="stop-color:#c9956f;stop-opacity:0.8"></stop>
      <stop offset="100%" style="stop-color:#3d3d3d;stop-opacity:0.9"></stop>
    </linearGradient>
  </defs>

  
  <rect width="1000" height="1000" fill="#1a1410"></rect>

  
  <g opacity="0.9">
    <ellipse cx="500" cy="180" rx="120" ry="140" fill="none" stroke="#e8b4a8" stroke-width="2"></ellipse>
    <ellipse cx="820" cy="350" rx="120" ry="140" fill="none" stroke="#d4a5a0" stroke-width="2"></ellipse>
    <ellipse cx="750" cy="680" rx="120" ry="140" fill="none" stroke="#e8b4a8" stroke-width="2"></ellipse>
    <ellipse cx="450" cy="800" rx="120" ry="140" fill="none" stroke="#c9956f" stroke-width="2"></ellipse>
    <ellipse cx="180" cy="680" rx="120" ry="140" fill="none" stroke="#d4a5a0" stroke-width="2"></ellipse>
    <ellipse cx="120" cy="350" rx="120" ry="140" fill="none" stroke="#e8b4a8" stroke-width="2"></ellipse>
  </g>

  
  <g id="layer1">
    
    <circle cx="500" cy="200" r="3" fill="#e8b4a8" opacity="0.9"></circle>
    <circle cx="540" cy="185" r="2.5" fill="#d4a5a0" opacity="0.85"></circle>
    <circle cx="575" cy="195" r="2.8" fill="#c9956f" opacity="0.88"></circle>
    <circle cx="595" cy="230" r="2.6" fill="#e8b4a8" opacity="0.87"></circle>
    <circle cx="600" cy="270" r="2.7" fill="#d4a5a0" opacity="0.86"></circle>
    <circle cx="580" cy="305" r="2.5" fill="#c9956f" opacity="0.89"></circle>
    <circle cx="540" cy="320" r="2.8" fill="#e8b4a8" opacity="0.84"></circle>
    <circle cx="500" cy="330" r="2.6" fill="#d4a5a0" opacity="0.88"></circle>
    <circle cx="460" cy="320" r="2.7" fill="#c9956f" opacity="0.85"></circle>
    <circle cx="420" cy="305" r="2.5" fill="#e8b4a8" opacity="0.87"></circle>
    <circle cx="400" cy="270" r="2.8" fill="#d4a5a0" opacity="0.86"></circle>
    <circle cx="405" cy="230" r="2.6" fill="#c9956f" opacity="0.88"></circle>
    <circle cx="425" cy="195" r="2.7" fill="#e8b4a8" opacity="0.85"></circle>
    <circle cx="460" cy="185" r="2.5" fill="#d4a5a0" opacity="0.89"></circle>
  </g>

  
  <g id="layer2" opacity="0.85">
    <circle cx="500" cy="300" r="2.2" fill="#c9956f"></circle>
    <circle cx="545" cy="280" r="2.0" fill="#e8b4a8"></circle>
    <circle cx="575" cy="310" r="2.1" fill="#d4a5a0"></circle>
    <circle cx="585" cy="350" r="2.3" fill="#c9956f"></circle>
    <circle cx="565" cy="380" r="2.0" fill="#e8b4a8"></circle>
    <circle cx="525" cy="390" r="2.2" fill="#d4a5a0"></circle>
    <circle cx="485" cy="380" r="2.1" fill="#c9956f"></circle>
    <circle cx="455" cy="360" r="2.3" fill="#e8b4a8"></circle>
    <circle cx="435" cy="320" r="2.0" fill="#d4a5a0"></circle>
    <circle cx="440" cy="280" r="2.2" fill="#c9956f"></circle>
    <circle cx="470" cy="265" r="2.1" fill="#e8b4a8"></circle>
  </g>

  
  <g id="layer3" opacity="0.80">
    <circle cx="500" cy="380" r="1.8" fill="#d4a5a0"></circle>
    <circle cx="535" cy="365" r="1.6" fill="#c9956f"></circle>
    <circle cx="555" cy="390" r="1.7" fill="#e8b4a8"></circle>
    <circle cx="555" cy="425" r="1.8" fill="#d4a5a0"></circle>
    <circle cx="530" cy="445" r="1.6" fill="#c9956f"></circle>
    <circle cx="495" cy="450" r="1.7" fill="#e8b4a8"></circle>
    <circle cx="460" cy="440" r="1.8" fill="#d4a5a0"></circle>
    <circle cx="445" cy="410" r="1.6" fill="#c9956f"></circle>
    <circle cx="450" cy="375" r="1.7" fill="#e8b4a8"></circle>
    <circle cx="475" cy="360" r="1.8" fill="#d4a5a0"></circle>
  </g>

  
  <g id="layer4" opacity="0.75">
    <circle cx="500" cy="430" r="1.4" fill="#c9956f"></circle>
    <circle cx="525" cy="420" r="1.3" fill="#e8b4a8"></circle>
    <circle cx="540" cy="440" r="1.4" fill="#d4a5a0"></circle>
    <circle cx="535" cy="465" r="1.3" fill="#c9956f"></circle>
    <circle cx="510" cy="475" r="1.4" fill="#e8b4a8"></circle>
    <circle cx="485" cy="470" r="1.3" fill="#d4a5a0"></circle>
    <circle cx="470" cy="450" r="1.4" fill="#c9956f"></circle>
    <circle cx="475" cy="425" r="1.3" fill="#e8b4a8"></circle>
  </g>

  
  <g id="layer5" opacity="0.70">
    <circle cx="500" cy="460" r="1.1" fill="#d4a5a0"></circle>
    <circle cx="520" cy="455" r="1.0" fill="#c9956f"></circle>
    <circle cx="530" cy="470" r="1.1" fill="#e8b4a8"></circle>
    <circle cx="520" cy="485" r="1.0" fill="#d4a5a0"></circle>
    <circle cx="500" cy="490" r="1.1" fill="#c9956f"></circle>
    <circle cx="480" cy="485" r="1.0" fill="#e8b4a8"></circle>
    <circle cx="470" cy="470" r="1.1" fill="#d4a5a0"></circle>
    <circle cx="480" cy="455" r="1.0" fill="#c9956f"></circle>
  </g>

  
  <g id="layer6" opacity="0.65">
    <circle cx="500" cy="475" r="0.8" fill="#c9956f"></circle>
    <circle cx="515" cy="472" r="0.7" fill="#e8b4a8"></circle>
    <circle cx="523" cy="480" r="0.8" fill="#d4a5a0"></circle>
    <circle cx="515" cy="488" r="0.7" fill="#c9956f"></circle>
    <circle cx="500" cy="492" r="0.8" fill="#e8b4a8"></circle>
    <circle cx="485" cy="488" r="0.7" fill="#d4a5a0"></circle>
    <circle cx="477" cy="480" r="0.8" fill="#c9956f"></circle>
    <circle cx="485" cy="472" r="0.7" fill="#e8b4a8"></circle>
  </g>

  
  <g opacity="0.4">
    <path d="M 500 100 Q 600 150 550 250 Q 500 300 500 100" fill="#4a3728" stroke="none"></path>
    <path d="M 500 100 Q 400 150 450 250 Q 500 300 500 100" fill="#4a3728" stroke="none"></path>
  </g>

  
  <g stroke="#c9956f" stroke-width="1.5" fill="none" opacity="0.6">
    <line x1="500" y1="500" x2="500" y2="200"></line>
    <line x1="500" y1="500" x2="750" y2="350"></line>
    <line x1="500" y1="500" x2="750" y2="650"></line>
    <line x1="500" y1="500" x2="500" y2="850"></line>
    <line x1="500" y1="500" x2="250" y2="650"></line>
    <line x1="500" y1="500" x2="250" y2="350"></line>
  </g>

  
  <circle cx="500" cy="500" r="80" fill="none" stroke="#e8b4a8" stroke-width="1.5" opacity="0.7"></circle>
  <circle cx="500" cy="500" r="60" fill="none" stroke="#d4a5a0" stroke-width="1" opacity="0.6"></circle>
  <circle cx="500" cy="500" r="40" fill="none" stroke="#c9956f" stroke-width="0.8" opacity="0.5"></circle>

  
  <g id="core-pulse" opacity="0.95">
    <circle cx="500" cy="500" r="4" fill="#e8b4a8"></circle>
    <circle cx="505" cy="495" r="2.8" fill="#d4a5a0"></circle>
    <circle cx="510" cy="505" r="2.5" fill="#c9956f"></circle>
    <circle cx="495" cy="505" r="2.6" fill="#e8b4a8"></circle>
    <circle cx="490" cy="495" r="2.7" fill="#d4a5a0"></circle>
    <circle cx="507" cy="515" r="2.4" fill="#c9956f"></circle>
    <circle cx="493" cy="515" r="2.5" fill="#e8b4a8"></circle>
    <circle cx="515" cy="500" r="2.3" fill="#d4a5a0"></circle>
    <circle cx="485" cy="500" r="2.6" fill="#c9956f"></circle>
  </g>

  
  <ellipse cx="500" cy="500" rx="450" ry="450" fill="url(#grad4)" opacity="0.15"></ellipse>

  
  <ellipse cx="500" cy="250" rx="300" ry="200" fill="#f5e6d3" opacity="0.08"></ellipse>
</svg>