<svg viewBox="0 0 1000 1000" xmlns="http://www.w3.org/2000/svg">
  <defs>
    <linearGradient id="pulseGrad" x1="0%" y1="0%" x2="100%" y2="100%">
      <stop offset="0%" style="stop-color:#ff1744;stop-opacity:1"></stop>
      <stop offset="50%" style="stop-color:#ffffff;stop-opacity:0.8"></stop>
      <stop offset="100%" style="stop-color:#1a1a1a;stop-opacity:1"></stop>
    </linearGradient>
    <radialGradient id="centerBleed">
      <stop offset="0%" style="stop-color:#ff1744;stop-opacity:0.9"></stop>
      <stop offset="70%" style="stop-color:#ffffff;stop-opacity:0.4"></stop>
      <stop offset="100%" style="stop-color:#1a1a1a;stop-opacity:0.2"></stop>
    </radialGradient>
  </defs>

  
  <rect width="1000" height="1000" fill="#f5f5f5"></rect>

  
  <circle cx="50" cy="50" r="3" fill="#ff1744" opacity="0.7"></circle>
  <circle cx="100" cy="50" r="2.5" fill="#1a1a1a" opacity="0.6"></circle>
  <circle cx="150" cy="50" r="3.2" fill="#ffffff" opacity="0.8"></circle>
  <circle cx="200" cy="50" r="2.8" fill="#ff1744" opacity="0.7"></circle>
  <circle cx="250" cy="50" r="3" fill="#1a1a1a" opacity="0.6"></circle>
  <circle cx="300" cy="50" r="3.1" fill="#ff1744" opacity="0.75"></circle>
  <circle cx="350" cy="50" r="2.9" fill="#ffffff" opacity="0.7"></circle>
  <circle cx="400" cy="50" r="3" fill="#ff1744" opacity="0.7"></circle>
  <circle cx="450" cy="50" r="3.3" fill="#1a1a1a" opacity="0.65"></circle>
  <circle cx="500" cy="50" r="2.7" fill="#ff1744" opacity="0.8"></circle>
  <circle cx="550" cy="50" r="3" fill="#ffffff" opacity="0.75"></circle>
  <circle cx="600" cy="50" r="3.2" fill="#ff1744" opacity="0.7"></circle>
  <circle cx="650" cy="50" r="2.8" fill="#1a1a1a" opacity="0.6"></circle>
  <circle cx="700" cy="50" r="3" fill="#ff1744" opacity="0.75"></circle>
  <circle cx="750" cy="50" r="3.1" fill="#ffffff" opacity="0.8"></circle>
  <circle cx="800" cy="50" r="2.9" fill="#ff1744" opacity="0.7"></circle>
  <circle cx="850" cy="50" r="3" fill="#1a1a1a" opacity="0.65"></circle>
  <circle cx="900" cy="50" r="3.3" fill="#ff1744" opacity="0.75"></circle>
  <circle cx="950" cy="50" r="2.8" fill="#ffffff" opacity="0.7"></circle>

  
  <circle cx="50" cy="100" r="2.9" fill="#1a1a1a" opacity="0.65"></circle>
  <circle cx="100" cy="100" r="3" fill="#ff1744" opacity="0.75"></circle>
  <circle cx="150" cy="100" r="3.1" fill="#ffffff" opacity="0.7"></circle>
  <circle cx="200" cy="100" r="2.8" fill="#1a1a1a" opacity="0.6"></circle>
  <circle cx="250" cy="100" r="3.2" fill="#ff1744" opacity="0.8"></circle>
  <circle cx="300" cy="100" r="3" fill="#ffffff" opacity="0.75"></circle>
  <circle cx="350" cy="100" r="2.9" fill="#ff1744" opacity="0.7"></circle>
  <circle cx="400" cy="100" r="3.3" fill="#1a1a1a" opacity="0.65"></circle>
  <circle cx="450" cy="100" r="3" fill="#ff1744" opacity="0.75"></circle>
  <circle cx="500" cy="100" r="2.7" fill="#ffffff" opacity="0.8"></circle>
  <circle cx="550" cy="100" r="3.1" fill="#ff1744" opacity="0.7"></circle>
  <circle cx="600" cy="100" r="3" fill="#1a1a1a" opacity="0.6"></circle>
  <circle cx="650" cy="100" r="3.2" fill="#ff1744" opacity="0.75"></circle>
  <circle cx="700" cy="100" r="2.8" fill="#ffffff" opacity="0.7"></circle>
  <circle cx="750" cy="100" r="3" fill="#ff1744" opacity="0.75"></circle>
  <circle cx="800" cy="100" r="3.1" fill="#1a1a1a" opacity="0.65"></circle>
  <circle cx="850" cy="100" r="2.9" fill="#ff1744" opacity="0.7"></circle>
  <circle cx="900" cy="100" r="3.3" fill="#ffffff" opacity="0.8"></circle>
  <circle cx="950" cy="100" r="2.8" fill="#ff1744" opacity="0.7"></circle>

  
  <g opacity="0.85">
    <circle cx="420" cy="380" r="45" fill="url(#centerBleed)"></circle>
    <circle cx="440" cy="360" r="38" fill="#ff1744" opacity="0.6"></circle>
    <circle cx="400" cy="400" r="35" fill="#ffffff" opacity="0.5"></circle>
    <circle cx="450" cy="420" r="40" fill="#ff1744" opacity="0.65"></circle>
  </g>

  
  <circle cx="420" cy="370" r="8" fill="#1a1a1a" opacity="0.8"></circle>
  <circle cx="450" cy="370" r="8" fill="#1a1a1a" opacity="0.8"></circle>
  <circle cx="435" cy="400" r="6" fill="#ff1744" opacity="0.7"></circle>

  
  <circle cx="50" cy="150" r="3.1" fill="#ff1744" opacity="0.75"></circle>
  <circle cx="100" cy="150" r="2.9" fill="#ffffff" opacity="0.7"></circle>
  <circle cx="150" cy="150" r="3" fill="#1a1a1a" opacity="0.6"></circle>
  <circle cx="200" cy="150" r="3.2" fill="#ff1744" opacity="0.75"></circle>
  <circle cx="250" cy="150" r="3" fill="#ffffff" opacity="0.8"></circle>
  <circle cx="300" cy="150" r="3.1" fill="#ff1744" opacity="0.7"></circle>
  <circle cx="350" cy="150" r="2.8" fill="#1a1a1a" opacity="0.65"></circle>
  <circle cx="400" cy="150" r="3.3" fill="#ff1744" opacity="0.75"></circle>
  <circle cx="450" cy="150" r="2.9" fill="#ffffff" opacity="0.7"></circle>
  <circle cx="500" cy="150" r="3" fill="#ff1744" opacity="0.75"></circle>
  <circle cx="550" cy="150" r="3.2" fill="#1a1a1a" opacity="0.6"></circle>
  <circle cx="600" cy="150" r="2.8" fill="#ff1744" opacity="0.7"></circle>
  <circle cx="650" cy="150" r="3.1" fill="#ffffff" opacity="0.75"></circle>
  <circle cx="700" cy="150" r="3" fill="#ff1744" opacity="0.7"></circle>
  <circle cx="750" cy="150" r="3.3" fill="#1a1a1a" opacity="0.65"></circle>
  <circle cx="800" cy="150" r="2.9" fill="#ff1744" opacity="0.75"></circle>
  <circle cx="850" cy="150" r="3" fill="#ffffff" opacity="0.8"></circle>
  <circle cx="900" cy="150" r="3.1" fill="#ff1744" opacity="0.7"></circle>
  <circle cx="950" cy="150" r="2.8" fill="#1a1a1a" opacity="0.6"></circle>

  
  <line x1="420" y1="200" x2="420" y2="550" stroke="#ff1744" stroke-width="2" opacity="0.3"></line>
  <line x1="380" y1="380" x2="480" y2="380" stroke="#ff1744" stroke-width="2" opacity="0.3"></line>

  
  <circle cx="420" cy="250" r="4" fill="#ff1744" opacity="0.6"></circle>
  <circle cx="410" cy="280" r="3.5" fill="#ffffff" opacity="0.5"></circle>
  <circle cx="430" cy="310" r="3.2" fill="#ff1744" opacity="0.4"></circle>
  <circle cx="420" cy="330" r="3.8" fill="#1a1a1a" opacity="0.3"></circle>

  
  <circle cx="75" cy="200" r="3" fill="#ff1744" opacity="0.7"></circle>
  <circle cx="175" cy="200" r="3.1" fill="#ffffff" opacity="0.7"></circle>
  <circle cx="275" cy="200" r="2.9" fill="#ff1744" opacity="0.75"></circle>
  <circle cx="375" cy="200" r="3.2" fill="#1a1a1a" opacity="0.6"></circle>
  <circle cx="475" cy="200" r="3" fill="#ff1744" opacity="0.7"></circle>
  <circle cx="575" cy="200" r="3.1" fill="#ffffff" opacity="0.8"></circle>
  <circle cx="675" cy="200" r="2.8" fill="#ff1744" opacity="0.7"></circle>
  <circle cx="775" cy="200" r="3.3" fill="#1a1a1a" opacity="0.65"></circle>
  <circle cx="875" cy="200" r="3" fill="#ff1744" opacity="0.75"></circle>

  
  <circle cx="60" cy="500" r="3" fill="#1a1a1a" opacity="0.6"></circle>
  <circle cx="140" cy="500" r="3.1" fill="#ff1744" opacity="0.75"></circle>
  <circle cx="220" cy="500" r="2.9" fill="#ffffff" opacity="0.7"></circle>
  <circle cx="300" cy="500" r="3" fill="#ff1744" opacity="0.7"></circle>
  <circle cx="380" cy="500" r="3.2" fill="#1a1a1a" opacity="0.65"></circle>
  <circle cx="460" cy="500" r="2.8" fill="#ff1744" opacity="0.75"></circle>
  <circle cx="540" cy="500" r="3.1" fill="#ffffff" opacity="0.8"></circle>
  <circle cx="620" cy="500" r="3" fill="#ff1744" opacity="0.7"></circle>
  <circle cx="700" cy="500" r="3.3" fill="#1a1a1a" opacity="0.6"></circle>
  <circle cx="780" cy="500" r="2.9" fill="#ff1744" opacity="0.75"></circle>
  <circle cx="860" cy="500" r="3" fill="#ffffff" opacity="0.7"></circle>
  <circle cx="940" cy="500" r="3.2" fill="#ff1744" opacity="0.7"></circle>

  
  <circle cx="80" cy="750" r="3.1" fill="#ff1744" opacity="0.7"></circle>
  <circle cx="160" cy="750" r="2.8" fill="#1a1a1a" opacity="0.6"></circle>
  <circle cx="240" cy="750" r="3" fill="#ff1744" opacity="0.75"></circle>
  <circle cx="320" cy="750" r="3.2" fill="#ffffff" opacity="0.8"></circle>
  <circle cx="400" cy="750" r="2.9" fill="#ff1744" opacity="0.7"></circle>
  <circle cx="480" cy="750" r="3.1" fill="#1a1a1a" opacity="0.65"></circle>
  <circle cx="560" cy="750" r="3" fill="#ff1744" opacity="0.75"></circle>
  <circle cx="640" cy="750" r="3.3" fill="#ffffff" opacity="0.7"></circle>
  <circle cx="720" cy="750" r="2.8" fill="#ff1744" opacity="0.7"></circle>
  <circle cx="800" cy="750" r="3" fill="#1a1a1a" opacity="0.6"></circle>
  <circle cx="880" cy="750" r="3.2" fill="#ff1744" opacity="0.75"></circle>

  
  <circle cx="100" cy="900" r="3" fill="#ff1744" opacity="0.5"></circle>
  <circle cx="250" cy="900" r="3.1" fill="#ffffff" opacity="0.4"></circle>
  <circle cx="400" cy="900" r="2.9" fill="#ff1744" opacity="0.3"></circle>
  <circle cx="550" cy="900" r="3" fill="#1a1a1a" opacity="0.2"></circle>
  <circle cx="700" cy="900" r="3.1" fill="#ff1744" opacity="0.4"></circle>
  <circle cx="850" cy="900" r="2.8" fill="#ffffff" opacity="0.3"></circle>
</svg>