<svg viewBox="0 0 1000 1000" xmlns="http://www.w3.org/2000/svg">
  <defs>
    <linearGradient id="grad1" x1="0%" y1="0%" x2="100%" y2="100%">
      <stop offset="0%" style="stop-color:#2a2a2a;stop-opacity:1"></stop>
      <stop offset="100%" style="stop-color:#1a1a1a;stop-opacity:1"></stop>
    </linearGradient>
  </defs>

  
  <rect width="1000" height="1000" fill="#f5f1ed"></rect>

  
  
  <rect x="80" y="120" width="280" height="420" fill="#2a2a2a"></rect>
  <rect x="100" y="140" width="240" height="380" fill="#f5f1ed"></rect>

  
  <rect x="580" y="80" width="320" height="280" fill="#8b7355"></rect>

  
  <path d="M 200 600 L 850 200 L 880 240 L 230 640 Z" fill="#d4a574" opacity="0.9"></path>

  
  <circle cx="500" cy="500" r="140" fill="#f5f1ed"></circle>
  <circle cx="500" cy="500" r="110" fill="#2a2a2a"></circle>

  
  <rect x="80" y="620" width="180" height="240" fill="#8b7355"></rect>
  <rect x="290" y="680" width="160" height="180" fill="#2a2a2a"></rect>
  <rect x="520" y="620" width="200" height="260" fill="#d4a574"></rect>

  
  <rect x="80" y="280" width="80" height="12" fill="#d4a574"></rect>
  <rect x="280" y="380" width="60" height="10" fill="#8b7355"></rect>
  <rect x="620" y="420" width="240" height="14" fill="#2a2a2a"></rect>

  
  <rect x="140" y="120" width="8" height="500" fill="#8b7355"></rect>
  <rect x="760" y="80" width="6" height="420" fill="#d4a574"></rect>

  
  <circle cx="180" cy="280" r="35" fill="#d4a574"></circle>
  <circle cx="180" cy="280" r="22" fill="#f5f1ed"></circle>

  <circle cx="720" cy="180" r="45" fill="#2a2a2a"></circle>
  <circle cx="720" cy="180" r="28" fill="#f5f1ed"></circle>

  <circle cx="350" cy="750" r="40" fill="#d4a574"></circle>
  <circle cx="350" cy="750" r="24" fill="#2a2a2a"></circle>

  
  <rect x="480" y="880" width="320" height="80" fill="#8b7355"></rect>
  <rect x="500" y="900" width="280" height="50" fill="#f5f1ed"></rect>

  
  <rect x="200" y="200" width="60" height="100" fill="#f5f1ed" stroke="#2a2a2a" stroke-width="2"></rect>
  <rect x="750" y="550" width="120" height="70" fill="#f5f1ed" stroke="#8b7355" stroke-width="3"></rect>

  
  <line x1="100" y1="950" x2="650" y2="250" stroke="#2a2a2a" stroke-width="4" opacity="0.6"></line>

  
  <rect x="420" y="320" width="25" height="25" fill="#d4a574"></rect>
  <rect x="820" y="680" width="30" height="30" fill="#8b7355"></rect>
  <circle cx="600" cy="850" r="18" fill="#2a2a2a"></circle>

  
  <rect x="150" y="500" width="200" height="90" fill="#8b7355" opacity="0.7"></rect>
  <rect x="165" y="515" width="170" height="65" fill="#d4a574" opacity="0.8"></rect>

  
  <rect x="50" y="50" width="40" height="40" fill="#2a2a2a"></rect>
  <rect x="910" y="920" width="50" height="50" fill="#8b7355"></rect>

  
  <rect x="300" y="450" width="120" height="8" fill="#8b7355"></rect>
  <rect x="650" y="750" width="100" height="6" fill="#d4a574"></rect>

  
  <line x1="350" y1="600" x2="350" y2="900" stroke="#8b7355" stroke-width="2" opacity="0.5"></line>
  <line x1="600" y1="200" x2="900" y2="200" stroke="#d4a574" stroke-width="3" opacity="0.4"></line>

  
  <circle cx="150" cy="850" r="60" fill="none" stroke="#d4a574" stroke-width="4"></circle>
  <circle cx="150" cy="850" r="35" fill="#f5f1ed"></circle>

  
  <polygon points="900,100 950,120 920,180 870,160" fill="#2a2a2a" opacity="0.8"></polygon>

</svg>