<svg viewBox="0 0 1000 1000" xmlns="http://www.w3.org/2000/svg">
  <defs>
    <radialGradient id="coreGrad" cx="50%" cy="50%" r="50%">
      <stop offset="0%" style="stop-color:#f5e6d3;stop-opacity:1"></stop>
      <stop offset="70%" style="stop-color:#d4a574;stop-opacity:1"></stop>
      <stop offset="100%" style="stop-color:#8b6f47;stop-opacity:0.3"></stop>
    </radialGradient>
    <radialGradient id="orbGrad" cx="40%" cy="40%" r="60%">
      <stop offset="0%" style="stop-color:#e8d4b8;stop-opacity:0.9"></stop>
      <stop offset="100%" style="stop-color:#7a5c3d;stop-opacity:0.4"></stop>
    </radialGradient>
    <linearGradient id="bgGrad" x1="0%" y1="0%" x2="100%" y2="100%">
      <stop offset="0%" style="stop-color:#1a1a2e;stop-opacity:1"></stop>
      <stop offset="100%" style="stop-color:#0f3460;stop-opacity:1"></stop>
    </linearGradient>
  </defs>

  
  <rect width="1000" height="1000" fill="url(#bgGrad)"></rect>

  
  <g id="leftOrb">
    <circle cx="200" cy="500" r="85" fill="url(#orbGrad)" opacity="0.85"></circle>
    <circle cx="200" cy="500" r="85" fill="none" stroke="#a89968" stroke-width="1.5" opacity="0.4"></circle>
    
    <circle cx="180" cy="480" r="2.5" fill="#d4a574" opacity="0.8"></circle>
    <circle cx="195" cy="490" r="1.8" fill="#c9956f" opacity="0.6"></circle>
    <circle cx="210" cy="495" r="2.2" fill="#d4a574" opacity="0.7"></circle>
    <circle cx="190" cy="510" r="1.9" fill="#c9956f" opacity="0.65"></circle>
    <circle cx="215" cy="515" r="2.1" fill="#d4a574" opacity="0.75"></circle>
    <circle cx="170" cy="505" r="2" fill="#c9956f" opacity="0.68"></circle>
    <circle cx="200" cy="525" r="2.3" fill="#d4a574" opacity="0.72"></circle>
  </g>

  
  <g id="rightOrb">
    <circle cx="800" cy="500" r="85" fill="url(#orbGrad)" opacity="0.85"></circle>
    <circle cx="800" cy="500" r="85" fill="none" stroke="#a89968" stroke-width="1.5" opacity="0.4"></circle>
    
    <circle cx="780" cy="480" r="2.5" fill="#d4a574" opacity="0.8"></circle>
    <circle cx="795" cy="490" r="1.8" fill="#c9956f" opacity="0.6"></circle>
    <circle cx="810" cy="495" r="2.2" fill="#d4a574" opacity="0.7"></circle>
    <circle cx="790" cy="510" r="1.9" fill="#c9956f" opacity="0.65"></circle>
    <circle cx="815" cy="515" r="2.1" fill="#d4a574" opacity="0.75"></circle>
    <circle cx="770" cy="505" r="2" fill="#c9956f" opacity="0.68"></circle>
    <circle cx="800" cy="525" r="2.3" fill="#d4a574" opacity="0.72"></circle>
  </g>

  
  <g id="core">
    
    <path d="M 500 300 Q 580 350 600 450 Q 580 470 500 480 Q 420 470 400 450 Q 420 350 500 300 Z" fill="none" stroke="#8b6f47" stroke-width="1.2" opacity="0.5"></path>
    <path d="M 500 700 Q 580 650 600 550 Q 580 530 500 520 Q 420 530 400 550 Q 420 650 500 700 Z" fill="none" stroke="#8b6f47" stroke-width="1.2" opacity="0.5"></path>
    <path d="M 300 500 Q 350 420 450 400 Q 470 420 480 500 Q 470 580 450 600 Q 350 580 300 500 Z" fill="none" stroke="#8b6f47" stroke-width="1.2" opacity="0.5"></path>
    <path d="M 700 500 Q 650 420 550 400 Q 530 420 520 500 Q 530 580 550 600 Q 650 580 700 500 Z" fill="none" stroke="#8b6f47" stroke-width="1.2" opacity="0.5"></path>

    
    <circle cx="500" cy="420" r="45" fill="none" stroke="#a89968" stroke-width="1" opacity="0.4"></circle>
    <circle cx="500" cy="580" r="45" fill="none" stroke="#a89968" stroke-width="1" opacity="0.4"></circle>
    <circle cx="380" cy="500" r="45" fill="none" stroke="#a89968" stroke-width="1" opacity="0.4"></circle>
    <circle cx="620" cy="500" r="45" fill="none" stroke="#a89968" stroke-width="1" opacity="0.4"></circle>

    
    
    <circle cx="500" cy="380" r="2.8" fill="#f5e6d3" opacity="0.85"></circle>
    <circle cx="515" cy="395" r="2.4" fill="#d4a574" opacity="0.78"></circle>
    <circle cx="485" cy="395" r="2.4" fill="#d4a574" opacity="0.78"></circle>
    <circle cx="525" cy="415" r="2.2" fill="#c9956f" opacity="0.72"></circle>
    <circle cx="475" cy="415" r="2.2" fill="#c9956f" opacity="0.72"></circle>
    <circle cx="500" cy="430" r="2" fill="#a89968" opacity="0.65"></circle>

    
    <circle cx="500" cy="620" r="2.8" fill="#f5e6d3" opacity="0.85"></circle>
    <circle cx="515" cy="605" r="2.4" fill="#d4a574" opacity="0.78"></circle>
    <circle cx="485" cy="605" r="2.4" fill="#d4a574" opacity="0.78"></circle>
    <circle cx="525" cy="585" r="2.2" fill="#c9956f" opacity="0.72"></circle>
    <circle cx="475" cy="585" r="2.2" fill="#c9956f" opacity="0.72"></circle>
    <circle cx="500" cy="570" r="2" fill="#a89968" opacity="0.65"></circle>

    
    <circle cx="360" cy="500" r="2.8" fill="#f5e6d3" opacity="0.85"></circle>
    <circle cx="375" cy="515" r="2.4" fill="#d4a574" opacity="0.78"></circle>
    <circle cx="375" cy="485" r="2.4" fill="#d4a574" opacity="0.78"></circle>
    <circle cx="395" cy="525" r="2.2" fill="#c9956f" opacity="0.72"></circle>
    <circle cx="395" cy="475" r="2.2" fill="#c9956f" opacity="0.72"></circle>
    <circle cx="410" cy="500" r="2" fill="#a89968" opacity="0.65"></circle>

    
    <circle cx="640" cy="500" r="2.8" fill="#f5e6d3" opacity="0.85"></circle>
    <circle cx="625" cy="515" r="2.4" fill="#d4a574" opacity="0.78"></circle>
    <circle cx="625" cy="485" r="2.4" fill="#d4a574" opacity="0.78"></circle>
    <circle cx="605" cy="525" r="2.2" fill="#c9956f" opacity="0.72"></circle>
    <circle cx="605" cy="475" r="2.2" fill="#c9956f" opacity="0.72"></circle>
    <circle cx="590" cy="500" r="2" fill="#a89968" opacity="0.65"></circle>

    
    <circle cx="500" cy="500" r="120" fill="url(#coreGrad)" opacity="0.9"></circle>
    <circle cx="500" cy="500" r="120" fill="none" stroke="#d4a574" stroke-width="2" opacity="0.3"></circle>

    
    <circle cx="500" cy="480" r="3.2" fill="#f5e6d3" opacity="0.95"></circle>
    <circle cx="515" cy="485" r="2.8" fill="#d4a574" opacity="0.88"></circle>
    <circle cx="485" cy="485" r="2.8" fill="#d4a574" opacity="0.88"></circle>
    <circle cx="510" cy="495" r="2.5" fill="#c9956f" opacity="0.82"></circle>
    <circle cx="490" cy="495" r="2.5" fill="#c9956f" opacity="0.82"></circle>
    <circle cx="525" cy="505" r="2.3" fill="#a89968" opacity="0.75"></circle>
    <circle cx="475" cy="505" r="2.3" fill="#a89968" opacity="0.75"></circle>

    <circle cx="500" cy="520" r="3.1" fill="#f5e6d3" opacity="0.93"></circle>
    <circle cx="515" cy="515" r="2.7" fill="#d4a574" opacity="0.86"></circle>
    <circle cx="485" cy="515" r="2.7" fill="#d4a574" opacity="0.86"></circle>
    <circle cx="510" cy="505" r="2.4" fill="#c9956f" opacity="0.80"></circle>
    <circle cx="490" cy="505" r="2.4" fill="#c9956f" opacity="0.80"></circle>
    <circle cx="525" cy="495" r="2.2" fill="#a89968" opacity="0.73"></circle>
    <circle cx="475" cy="495" r="2.2" fill="#a89968" opacity="0.73"></circle>

    
    <circle cx="500" cy="500" r="3.5" fill="#f5e6d3" opacity="0.92"></circle>
    <circle cx="522" cy="508" r="2.6" fill="#d4a574" opacity="0.84"></circle>
    <circle cx="478" cy="508" r="2.6" fill="#d4a574" opacity="0.84"></circle>
    <circle cx="520" cy="490" r="2.3" fill="#c9956f" opacity="0.78"></circle>
    <circle cx="480" cy="490" r="2.3" fill="#c9956f" opacity="0.78"></circle>
  </g>

  
  <path d="M 285 500 Q 350 480 420 480" fill="none" stroke="#8b6f47" stroke-width="0.8" opacity="0.25"></path>
  <path d="M 715 500 Q 650 480 580 480" fill="none" stroke="#8b6f47" stroke-width="0.8" opacity="0.25"></path>
  <path d="M 285 500 Q 350 520 420 520" fill="none" stroke="#8b6f47" stroke-width="0.8" opacity="0.25"></path>
  <path d="M 715 500 Q 650 520 580 520" fill="none" stroke="#8b6f47" stroke-width="0.8" opacity="0.25"></path>

  
  <circle cx="500" cy="500" r="130" fill="none" stroke="#d4a574" stroke-width="0.6" opacity="0.15"></circle>
  <circle cx="500" cy="500" r="145" fill="none" stroke="#a89968" stroke-width="0.5" opacity="0.08"></circle>
  <circle cx="500" cy="500" r="160" fill="none" stroke="#8b6f47" stroke-width="0.4" opacity="0.05"></circle>

</svg>