<svg viewBox="0 0 1000 1000" xmlns="http://www.w3.org/2000/svg">
  <defs>
    <radialGradient id="coreBurn" cx="50%" cy="50%" r="50%">
      <stop offset="0%" style="stop-color:#fff8dc;stop-opacity:1"></stop>
      <stop offset="40%" style="stop-color:#ff8c42;stop-opacity:1"></stop>
      <stop offset="100%" style="stop-color:#8b0000;stop-opacity:0.3"></stop>
    </radialGradient>
    <radialGradient id="voidDark" cx="50%" cy="50%" r="50%">
      <stop offset="0%" style="stop-color:#1a1a1a;stop-opacity:1"></stop>
      <stop offset="100%" style="stop-color:#0a0a0a;stop-opacity:1"></stop>
    </radialGradient>
    <linearGradient id="rustShift" x1="0%" y1="0%" x2="100%" y2="100%">
      <stop offset="0%" style="stop-color:#c74536;stop-opacity:1"></stop>
      <stop offset="50%" style="stop-color:#d4845c;stop-opacity:1"></stop>
      <stop offset="100%" style="stop-color:#8b4513;stop-opacity:1"></stop>
    </linearGradient>
  </defs>
  
  
  <rect width="1000" height="1000" fill="url(#voidDark)"></rect>
  
  
  <path d="M 200 150 Q 250 120 320 140 L 350 200 Q 300 180 250 190 Z" fill="none" stroke="#3d2817" stroke-width="2" opacity="0.6"></path>
  <path d="M 750 180 Q 800 150 850 170 L 880 240 Q 820 210 770 220 Z" fill="none" stroke="#4a3520" stroke-width="2" opacity="0.5"></path>
  <path d="M 150 500 L 100 480 Q 80 500 100 540 L 160 530 Z" fill="none" stroke="#3d2817" stroke-width="2.5" opacity="0.7"></path>
  <path d="M 900 480 L 950 470 Q 970 490 950 540 L 890 530 Z" fill="none" stroke="#4a3520" stroke-width="2.5" opacity="0.6"></path>
  
  
  <g id="chamber1">
    
    <circle cx="320" cy="280" r="1.2" fill="#ff9955" opacity="0.9"></circle>
    <circle cx="310" cy="265" r="1.5" fill="#ffaa66" opacity="0.8"></circle>
    <circle cx="335" cy="270" r="1" fill="#ff7733" opacity="0.85"></circle>
    <circle cx="315" cy="295" r="1.3" fill="#ff9955" opacity="0.75"></circle>
    <circle cx="340" cy="290" r="1.1" fill="#ffbb77" opacity="0.8"></circle>
    <circle cx="300" cy="285" r="1.4" fill="#ff8844" opacity="0.9"></circle>
    <circle cx="325" cy="255" r="1.2" fill="#ff6622" opacity="0.85"></circle>
    <circle cx="345" cy="305" r="1" fill="#ffaa66" opacity="0.7"></circle>
    
    <circle cx="680" cy="320" r="1.2" fill="#ff9955" opacity="0.8"></circle>
    <circle cx="695" cy="305" r="1.4" fill="#ffaa66" opacity="0.85"></circle>
    <circle cx="660" cy="315" r="1.1" fill="#ff7733" opacity="0.9"></circle>
    <circle cx="690" cy="335" r="1.3" fill="#ff8844" opacity="0.75"></circle>
    <circle cx="715" cy="325" r="1" fill="#ffbb77" opacity="0.8"></circle>
    <circle cx="670" cy="340" r="1.5" fill="#ff6622" opacity="0.9"></circle>
    
    <circle cx="280" cy="720" r="1.3" fill="#ff9955" opacity="0.8"></circle>
    <circle cx="295" cy="705" r="1.1" fill="#ffaa66" opacity="0.9"></circle>
    <circle cx="260" cy="715" r="1.2" fill="#ff7733" opacity="0.85"></circle>
    <circle cx="305" cy="730" r="1.4" fill="#ff8844" opacity="0.8"></circle>
    <circle cx="275" cy="745" r="1" fill="#ffbb77" opacity="0.75"></circle>
    
    <circle cx="720" cy="700" r="1.2" fill="#ff9955" opacity="0.85"></circle>
    <circle cx="705" cy="720" r="1.3" fill="#ffaa66" opacity="0.8"></circle>
    <circle cx="740" cy="710" r="1.1" fill="#ff6622" opacity="0.9"></circle>
    <circle cx="715" cy="685" r="1.4" fill="#ff7733" opacity="0.75"></circle>
  </g>
  
  
  <g id="chamber2" opacity="0.85">
    <path d="M 500 350 Q 480 420 450 480" fill="none" stroke="#c74536" stroke-width="1.8" stroke-dasharray="3,2" opacity="0.7"></path>
    <path d="M 500 350 Q 520 420 550 480" fill="none" stroke="#d4845c" stroke-width="1.8" stroke-dasharray="3,2" opacity="0.65"></path>
    <path d="M 500 350 Q 550 380 600 450" fill="none" stroke="#c74536" stroke-width="1.5" stroke-dasharray="2,3" opacity="0.6"></path>
    <path d="M 500 350 Q 450 380 400 450" fill="none" stroke="#8b4513" stroke-width="1.5" stroke-dasharray="2,3" opacity="0.7"></path>
    
    
    <path d="M 500 350 Q 520 300 550 250" fill="none" stroke="#d4845c" stroke-width="1.5" opacity="0.65"></path>
    <path d="M 500 350 Q 480 300 450 250" fill="none" stroke="#c74536" stroke-width="1.5" opacity="0.7"></path>
  </g>
  
  
  <g id="chamber3">
    
    <circle cx="480" cy="380" r="1.1" fill="#ff7733" opacity="0.8"></circle>
    <circle cx="490" cy="375" r="0.9" fill="#ffaa66" opacity="0.7"></circle>
    <circle cx="485" cy="395" r="1" fill="#ff9955" opacity="0.85"></circle>
    <circle cx="510" cy="385" r="1.2" fill="#c74536" opacity="0.75"></circle>
    <circle cx="475" cy="410" r="0.95" fill="#ff8844" opacity="0.8"></circle>
    
    <circle cx="510" cy="420" r="1" fill="#ff6622" opacity="0.9"></circle>
    <circle cx="520" cy="410" r="1.1" fill="#ffbb77" opacity="0.75"></circle>
    <circle cx="500" cy="435" r="0.95" fill="#ff7733" opacity="0.8"></circle>
    <circle cx="530" cy="430" r="1.2" fill="#d4845c" opacity="0.85"></circle>
    <circle cx="490" cy="450" r="1" fill="#ff9955" opacity="0.7"></circle>
    
    <circle cx="450" cy="440" r="1.1" fill="#ff8844" opacity="0.8"></circle>
    <circle cx="440" cy="420" r="0.95" fill="#ffaa66" opacity="0.75"></circle>
    <circle cx="460" cy="465" r="1.2" fill="#c74536" opacity="0.9"></circle>
  </g>
  
  
  <circle cx="500" cy="500" r="85" fill="url(#coreBurn)" opacity="0.95"></circle>
  <circle cx="500" cy="500" r="85" fill="none" stroke="#d4845c" stroke-width="1.5" opacity="0.4"></circle>
  
  
  <g id="corePulse">
    <circle cx="500" cy="500" r="1.4" fill="#fffacd" opacity="0.95"></circle>
    <circle cx="510" cy="495" r="1.2" fill="#ffd700" opacity="0.9"></circle>
    <circle cx="490" cy="495" r="1.1" fill="#ff8c42" opacity="0.88"></circle>
    <circle cx="505" cy="510" r="1.3" fill="#ffa500" opacity="0.92"></circle>
    <circle cx="495" cy="510" r="1" fill="#ff7733" opacity="0.85"></circle>
    <circle cx="500" cy="520" r="1.2" fill="#ff6622" opacity="0.9"></circle>
    <circle cx="515" cy="500" r="1.1" fill="#ffbb77" opacity="0.87"></circle>
    <circle cx="485" cy="505" r="1.3" fill="#ffaa66" opacity="0.89"></circle>
    <circle cx="510" cy="485" r="1" fill="#fffacd" opacity="0.92"></circle>
  </g>
  
  
  <path d="M 500 500 Q 520 480 540 450 Q 560 420 580 380 Q 595 350 610 310" fill="none" stroke="#8b0000" stroke-width="0.8" opacity="0.6" stroke-dasharray="2,1"></path>
  <path d="M 500 500 Q 480 480 460 450 Q 440 420 420 380 Q 405 350 390 310" fill="none" stroke="#c74536" stroke-width="0.8" opacity="0.55" stroke-dasharray="2,1"></path>
  <path d="M 500 500 Q 520 520 540 550 Q 560 580 580 620 Q 595 650 610 690" fill="none" stroke="#8b0000" stroke-width="0.8" opacity="0.6" stroke-dasharray="2,1"></path>
  <path d="M 500 500 Q 480 520 460 550 Q 440 580 420 620 Q 405 650 390 690" fill="none" stroke="#d4845c" stroke-width="0.8" opacity="0.55" stroke-dasharray="2,1"></path>
  
  
  <ellipse cx="450" cy="380" rx="45" ry="35" fill="none" stroke="#4a3520" stroke-width="1.2" opacity="0.5" transform="rotate(-25 450 380)"></ellipse>
  <ellipse cx="550" cy="380" rx="45" ry="35" fill="none" stroke="#4a3520" stroke-width="1.2" opacity="0.5" transform="rotate(25 550 380)"></ellipse>
  <ellipse cx="450" cy="620" rx="40" ry="38" fill="none" stroke="#3d2817" stroke-width="1.2" opacity="0.45" transform="rotate(35 450 620)"></ellipse>
  <ellipse cx="550" cy="620" rx="40" ry="38" fill="none" stroke="#3d2817" stroke-width="1.2" opacity="0.45" transform="rotate(-35 550 620)"></ellipse>
  
  
  <g id="periphery" opacity="0.7">
    
    <circle cx="220" cy="240" r="0.9" fill="#ff9955" opacity="0.65"></circle>
    <circle cx="235" cy="255" r="1" fill="#ffaa66" opacity="0.6"></circle>
    <circle cx="210" cy="270" r="0.85" fill="#ff7733" opacity="0.7"></circle>
    <circle cx="245" cy="220" r="1.1" fill="#ff8844" opacity="0.65"></circle>
    <circle cx="190" cy="250" r="0.95" fill="#ffbb77" opacity="0.6"></circle>
    
    
    <circle cx="780" cy="240" r="0.9" fill="#ff9955" opacity="0.65"></circle>
    <circle cx="765" cy="255" r="1" fill="#ffaa66" opacity="0.6"></circle>
    <circle cx="790" cy="270" r="0.85" fill="#ff6622" opacity="0.7"></circle>
    <circle cx="755" cy="220" r="1.1" fill="#ff7733" opacity="0.65"></circle>
    <circle cx="810" cy="250" r="0.95" fill="#ffbb77" opacity="0.6"></circle>
    
    
    <circle cx="200" cy="780" r="0.9" fill="#ff9955" opacity="0.65"></circle>
    <circle cx="240" cy="770" r="1" fill="#ffaa66" opacity="0.6"></circle>
    <circle cx="220" cy="800" r="0.85" fill="#ff7733" opacity="0.7"></circle>
    <circle cx="180" cy="750" r="1.1" fill="#c74536" opacity="0.65"></circle>
    <circle cx="260" cy="790" r="0.95" fill="#ffbb77" opacity="0.6"></circle>
    
    
    <circle cx="800" cy="780" r="0.9" fill="#ff9955" opacity="0.65"></circle>
    <circle cx="760" cy="770" r="1" fill="#ffaa66" opacity="0.6"></circle>
    <circle cx="780" cy="800" r="0.85" fill="#ff6622" opacity="0.7"></circle>
    <circle cx="820" cy="750" r="1.1" fill="#d4845c" opacity="0.65"></circle>
    <circle cx="740" cy="790" r="0.95" fill="#ffbb77" opacity="0.6"></circle>
    
    
    <circle cx="130" cy="400" r="0.85" fill="#ff7733" opacity="0.6"></circle>
    <circle cx="140" cy="450" r="0.95" fill="#ffaa66" opacity="0.65"></circle>
    <circle cx="125" cy="500" r="1" fill="#ff9955" opacity="0.7"></circle>
    <circle cx="145" cy="550" r="0.9" fill="#ff8844" opacity="0.6"></circle>
    
    
    <circle cx="870" cy="400" r="0.85" fill="#ff7733" opacity="0.6"></circle>
    <circle cx="860" cy="450" r="0.95" fill="#ffaa66" opacity="0.65"></circle>
    <circle cx="875" cy="500" r="1" fill="#ff6622" opacity="0.7"></circle>
    <circle cx="855" cy="550" r="0.9" fill="#d4845c" opacity="0.6"></circle>
  </g>
  
  
  <g id="asymmetricVoid" opacity="0.6">
    <path d="M 350 450 Q 340 480 330 510 Q 320 540 310 570" fill="none" stroke="#8b4513" stroke-width="1" opacity="0.5"></path>
    <path d="M 650 450 Q 660 480 670 510 Q 680 540 690 570" fill="none" stroke="#8b4513" stroke-width="1" opacity="0.5"></path>
    <path d="M 420 300 Q 430 280 450 260" fill="none" stroke="#4a3520" stroke-width="0.8" opacity="0.45"></path>
    <path d="M 580 300 Q 570 280 550 260" fill="none" stroke="#4a3520" stroke-width="0.8" opacity="0.45"></path>
  </g>
  
  
  <g id="distress" opacity="0.5">
    <line x1="400" y1="450" x2="420" y2="470" stroke="#8b0000" stroke-width="0.6" stroke-dasharray="1,1"></line>
    <line x1="420" y1="450" x2="400" y2="470" stroke="#c74536" stroke-width="0.6" stroke-dasharray="1,1"></line>
    <line x1="580" y1="450" x2="600" y2="470" stroke="#8b0000" stroke-width="0.6" stroke-dasharray="1,1"></line>
    <line x1="600" y1="450" x2="580" y2="470" stroke="#d4845c" stroke-width="0.6" stroke-dasharray="1,1"></line>
    <line x1="450" y1="550" x2="430" y2="570" stroke="#8b0000" stroke-width="0.6" stroke-dasharray="1,1"></line>
    <line x1="430" y1="550" x2="450" y2="570" stroke="#c74536" stroke-width="0.6" stroke-dasharray="1,1"></line>
    <line x1="550" y1="550" x2="570" y2="570" stroke="#8b0000" stroke-width="0.6" stroke-dasharray="1,1"></line>
    <line x1="570" y1="550" x2="550" y2="570" stroke="#d4845c" stroke-width="0.6" stroke-dasharray="1,1"></line>
  </g>
</svg>