<svg viewBox="0 0 1000 1000" xmlns="http://www.w3.org/2000/svg">
  <defs>
    <linearGradient id="grad1" x1="0%" y1="0%" x2="100%" y2="100%">
      <stop offset="0%" style="stop-color:#000000;stop-opacity:1"></stop>
      <stop offset="50%" style="stop-color:#ff1744;stop-opacity:1"></stop>
      <stop offset="100%" style="stop-color:#ffffff;stop-opacity:1"></stop>
    </linearGradient>
    <radialGradient id="grad2" cx="50%" cy="50%" r="50%">
      <stop offset="0%" style="stop-color:#ffffff;stop-opacity:0.9"></stop>
      <stop offset="70%" style="stop-color:#ff1744;stop-opacity:0.7"></stop>
      <stop offset="100%" style="stop-color:#000000;stop-opacity:1"></stop>
    </radialGradient>
  </defs>
  
  
  <rect width="1000" height="1000" fill="#0a0a0a"></rect>
  <rect width="1000" height="1000" fill="url(#grad1)" opacity="0.15"></rect>
  
  
  <g opacity="0.95">
    <circle cx="180" cy="200" r="8" fill="#ff1744"></circle>
    <circle cx="165" cy="185" r="6" fill="#ffffff"></circle>
    <circle cx="195" cy="210" r="7" fill="#ff1744"></circle>
    <circle cx="150" cy="220" r="5" fill="#ffffff"></circle>
    <circle cx="210" cy="190" r="6.5" fill="#ff1744"></circle>
    <circle cx="175" cy="245" r="7" fill="#ffffff"></circle>
    <circle cx="140" cy="260" r="6" fill="#ff1744"></circle>
    <circle cx="220" cy="240" r="5.5" fill="#ffffff"></circle>
    <circle cx="190" cy="270" r="7" fill="#ff1744"></circle>
    <circle cx="155" cy="290" r="6" fill="#ffffff"></circle>
    <circle cx="225" cy="310" r="6.5" fill="#ff1744"></circle>
    <circle cx="130" cy="330" r="5" fill="#ffffff"></circle>
    <circle cx="200" cy="350" r="7" fill="#ff1744"></circle>
    <circle cx="170" cy="370" r="6" fill="#ffffff"></circle>
    <circle cx="240" cy="380" r="6.5" fill="#ff1744"></circle>
    <circle cx="145" cy="410" r="5.5" fill="#ffffff"></circle>
    <circle cx="215" cy="420" r="7" fill="#ff1744"></circle>
    <circle cx="185" cy="450" r="6" fill="#ffffff"></circle>
    <circle cx="250" cy="460" r="6.5" fill="#ff1744"></circle>
    <circle cx="160" cy="490" r="5" fill="#ffffff"></circle>
  </g>
  
  
  <g opacity="0.98">
    <circle cx="500" cy="500" r="12" fill="#ff1744"></circle>
    <circle cx="485" cy="485" r="9" fill="#ffffff"></circle>
    <circle cx="520" cy="515" r="10" fill="#000000"></circle>
    <circle cx="510" cy="480" r="8" fill="#ff1744"></circle>
    <circle cx="475" cy="510" r="9" fill="#ffffff"></circle>
    <circle cx="530" cy="490" r="10" fill="#ff1744"></circle>
    <circle cx="490" cy="530" r="7" fill="#000000"></circle>
    <circle cx="515" cy="525" r="11" fill="#ffffff"></circle>
    <circle cx="545" cy="510" r="8" fill="#ff1744"></circle>
    <circle cx="465" cy="470" r="9" fill="#ffffff"></circle>
    <circle cx="540" cy="540" r="10" fill="#000000"></circle>
    <circle cx="500" cy="550" r="8" fill="#ff1744"></circle>
    <circle cx="480" cy="455" r="7" fill="#ffffff"></circle>
    <circle cx="555" cy="480" r="9" fill="#ff1744"></circle>
    <circle cx="470" cy="530" r="10" fill="#ffffff"></circle>
    <circle cx="525" cy="560" r="8" fill="#000000"></circle>
    <circle cx="505" cy="470" r="11" fill="#ff1744"></circle>
    <circle cx="485" cy="565" r="7" fill="#ffffff"></circle>
    <circle cx="560" cy="520" r="9" fill="#ff1744"></circle>
    <circle cx="460" cy="490" r="8" fill="#000000"></circle>
  </g>
  
  
  <g opacity="0.85">
    <circle cx="820" cy="150" r="6" fill="#ffffff"></circle>
    <circle cx="850" cy="180" r="5" fill="#000000"></circle>
    <circle cx="790" cy="210" r="6.5" fill="#ffffff"></circle>
    <circle cx="880" cy="240" r="5.5" fill="#000000"></circle>
    <circle cx="810" cy="300" r="6" fill="#ffffff"></circle>
    <circle cx="870" cy="340" r="5" fill="#000000"></circle>
    <circle cx="800" cy="400" r="6.5" fill="#ffffff"></circle>
    <circle cx="890" cy="430" r="5.5" fill="#000000"></circle>
    <circle cx="825" cy="500" r="6" fill="#ffffff"></circle>
    <circle cx="855" cy="560" r="5" fill="#000000"></circle>
    <circle cx="795" cy="620" r="6.5" fill="#ffffff"></circle>
    <circle cx="875" cy="670" r="5.5" fill="#000000"></circle>
    <circle cx="815" cy="730" r="6" fill="#ffffff"></circle>
    <circle cx="860" cy="780" r="5" fill="#000000"></circle>
    <circle cx="785" cy="850" r="6.5" fill="#ffffff"></circle>
    <circle cx="895" cy="900" r="5.5" fill="#000000"></circle>
  </g>
  
  
  <g opacity="0.92">
    <circle cx="750" cy="80" r="7" fill="#ff1744"></circle>
    <circle cx="765" cy="65" r="5" fill="#ffffff"></circle>
    <circle cx="735" cy="100" r="6" fill="#ff1744"></circle>
    <circle cx="780" cy="110" r="5.5" fill="#ffffff"></circle>
    <circle cx="720" cy="125" r="6.5" fill="#ff1744"></circle>
    <circle cx="800" cy="95" r="5" fill="#000000"></circle>
  </g>
  
  
  <g opacity="0.70">
    <circle cx="120" cy="750" r="5" fill="#ff1744"></circle>
    <circle cx="105" cy="765" r="4" fill="#ffffff"></circle>
    <circle cx="135" cy="780" r="5.5" fill="#ff1744"></circle>
    <circle cx="90" cy="810" r="4" fill="#000000"></circle>
    <circle cx="150" cy="830" r="5" fill="#ffffff"></circle>
    <circle cx="75" cy="860" r="4.5" fill="#ff1744"></circle>
  </g>
  
  
  <g opacity="0.88">
    <circle cx="400" cy="40" r="6" fill="#ffffff"></circle>
    <circle cx="420" cy="50" r="5" fill="#ff1744"></circle>
    <circle cx="380" cy="60" r="5.5" fill="#000000"></circle>
    <circle cx="440" cy="70" r="6" fill="#ffffff"></circle>
    <circle cx="360" cy="75" r="5" fill="#ff1744"></circle>
    <circle cx="460" cy="85" r="5.5" fill="#000000"></circle>
    <circle cx="340" cy="95" r="6" fill="#ffffff"></circle>
  </g>
  
  
  <g opacity="0.75">
    <circle cx="600" cy="950" r="5.5" fill="#ff1744"></circle>
    <circle cx="580" cy="940" r="5" fill="#ffffff"></circle>
    <circle cx="620" cy="960" r="6" fill="#000000"></circle>
    <circle cx="560" cy="970" r="5" fill="#ff1744"></circle>
    <circle cx="640" cy="945" r="5.5" fill="#ffffff"></circle>
    <circle cx="540" cy="980" r="5" fill="#000000"></circle>
  </g>
  
  
  <g opacity="0.65">
    <circle cx="350" cy="350" r="4" fill="#ffffff"></circle>
    <circle cx="650" cy="400" r="4" fill="#ff1744"></circle>
    <circle cx="300" cy="600" r="4.5" fill="#000000"></circle>
    <circle cx="700" cy="650" r="4" fill="#ffffff"></circle>
    <circle cx="400" cy="700" r="4" fill="#ff1744"></circle>
    <circle cx="600" cy="300" r="4.5" fill="#000000"></circle>
  </g>
  
  
  <circle cx="500" cy="500" r="80" fill="none" stroke="#ff1744" stroke-width="1.5" opacity="0.4"></circle>
  <circle cx="500" cy="500" r="120" fill="none" stroke="#ffffff" stroke-width="1" opacity="0.3"></circle>
  <circle cx="500" cy="500" r="160" fill="none" stroke="#000000" stroke-width="1.5" opacity="0.3"></circle>
  <circle cx="500" cy="500" r="200" fill="none" stroke="#ff1744" stroke-width="1" opacity="0.2"></circle>
</svg>