<svg viewBox="0 0 1000 1000" xmlns="http://www.w3.org/2000/svg">
  <defs>
    <linearGradient id="accentGrad" x1="0%" y1="0%" x2="100%" y2="100%">
      <stop offset="0%" style="stop-color:#FF00FF;stop-opacity:1"></stop>
      <stop offset="100%" style="stop-color:#00FFFF;stop-opacity:1"></stop>
    </linearGradient>
  </defs>
  
  
  <rect width="1000" height="1000" fill="#FFFFFF"></rect>
  
  
  <g id="centerField">
    <circle cx="500" cy="500" r="300" fill="none" stroke="#000000" stroke-width="1.5"></circle>
    <circle cx="500" cy="500" r="290" fill="none" stroke="#000000" stroke-width="1"></circle>
    <circle cx="500" cy="500" r="280" fill="none" stroke="#000000" stroke-width="1.5"></circle>
    <circle cx="500" cy="500" r="270" fill="none" stroke="#000000" stroke-width="1"></circle>
    <circle cx="500" cy="500" r="260" fill="none" stroke="#000000" stroke-width="1.5"></circle>
    <circle cx="500" cy="500" r="250" fill="none" stroke="#000000" stroke-width="1"></circle>
    <circle cx="500" cy="500" r="240" fill="none" stroke="#000000" stroke-width="1.5"></circle>
    <circle cx="500" cy="500" r="230" fill="none" stroke="#000000" stroke-width="1"></circle>
    <circle cx="500" cy="500" r="220" fill="none" stroke="#000000" stroke-width="1.5"></circle>
    <circle cx="500" cy="500" r="210" fill="none" stroke="#000000" stroke-width="1"></circle>
    <circle cx="500" cy="500" r="200" fill="none" stroke="#000000" stroke-width="1.5"></circle>
    <circle cx="500" cy="500" r="190" fill="none" stroke="#000000" stroke-width="1"></circle>
    <circle cx="500" cy="500" r="180" fill="none" stroke="#000000" stroke-width="1.5"></circle>
    <circle cx="500" cy="500" r="170" fill="none" stroke="#000000" stroke-width="1"></circle>
    <circle cx="500" cy="500" r="160" fill="none" stroke="#000000" stroke-width="1.5"></circle>
    <circle cx="500" cy="500" r="150" fill="none" stroke="#000000" stroke-width="1"></circle>
  </g>
  
  
  <g id="radialLines" stroke="#000000" stroke-width="1.2" opacity="0.85">
    <line x1="500" y1="500" x2="500" y2="100"></line>
    <line x1="500" y1="500" x2="809.02" y2="190.98"></line>
    <line x1="500" y1="500" x2="900" y2="500"></line>
    <line x1="500" y1="500" x2="809.02" y2="809.02"></line>
    <line x1="500" y1="500" x2="500" y2="900"></line>
    <line x1="500" y1="500" x2="190.98" y2="809.02"></line>
    <line x1="500" y1="500" x2="100" y2="500"></line>
    <line x1="500" y1="500" x2="190.98" y2="190.98"></line>
    <line x1="500" y1="500" x2="653.55" y2="153.55"></line>
    <line x1="500" y1="500" x2="846.45" y2="346.45"></line>
    <line x1="500" y1="500" x2="846.45" y2="653.55"></line>
    <line x1="500" y1="500" x2="653.55" y2="846.45"></line>
    <line x1="500" y1="500" x2="346.45" y2="846.45"></line>
    <line x1="500" y1="500" x2="153.55" y2="653.55"></line>
    <line x1="500" y1="500" x2="153.55" y2="346.45"></line>
    <line x1="500" y1="500" x2="346.45" y2="153.55"></line>
  </g>
  
  
  <g id="horizLinesLeft" stroke="#000000" stroke-width="0.8" opacity="0.6">
    <line x1="100" y1="300" x2="400" y2="300"></line>
    <line x1="100" y1="330" x2="400" y2="330"></line>
    <line x1="100" y1="360" x2="400" y2="360"></line>
    <line x1="100" y1="390" x2="400" y2="390"></line>
    <line x1="100" y1="420" x2="400" y2="420"></line>
    <line x1="100" y1="450" x2="400" y2="450"></line>
    <line x1="100" y1="480" x2="400" y2="480"></line>
    <line x1="100" y1="510" x2="400" y2="510"></line>
    <line x1="100" y1="540" x2="400" y2="540"></line>
    <line x1="100" y1="570" x2="400" y2="570"></line>
    <line x1="100" y1="600" x2="400" y2="600"></line>
    <line x1="100" y1="630" x2="400" y2="630"></line>
    <line x1="100" y1="660" x2="400" y2="660"></line>
    <line x1="100" y1="690" x2="400" y2="690"></line>
    <line x1="100" y1="720" x2="400" y2="720"></line>
  </g>
  
  
  <g id="vertLinesRight" stroke="#000000" stroke-width="0.8" opacity="0.6">
    <line x1="600" y1="100" x2="600" y2="400"></line>
    <line x1="630" y1="100" x2="630" y2="400"></line>
    <line x1="660" y1="100" x2="660" y2="400"></line>
    <line x1="690" y1="100" x2="690" y2="400"></line>
    <line x1="720" y1="100" x2="720" y2="400"></line>
    <line x1="750" y1="100" x2="750" y2="400"></line>
    <line x1="780" y1="100" x2="780" y2="400"></line>
    <line x1="810" y1="100" x2="810" y2="400"></line>
    <line x1="840" y1="100" x2="840" y2="400"></line>
    <line x1="600" y1="600" x2="600" y2="900"></line>
    <line x1="630" y1="600" x2="630" y2="900"></line>
    <line x1="660" y1="600" x2="660" y2="900"></line>
    <line x1="690" y1="600" x2="690" y2="900"></line>
    <line x1="720" y1="600" x2="720" y2="900"></line>
    <line x1="750" y1="600" x2="750" y2="900"></line>
  </g>
  
  
  <g id="diagLinesBottomLeft" stroke="#000000" stroke-width="0.9" opacity="0.5">
    <line x1="150" y1="550" x2="400" y2="800"></line>
    <line x1="150" y1="580" x2="400" y2="830"></line>
    <line x1="150" y1="610" x2="400" y2="860"></line>
    <line x1="150" y1="640" x2="400" y2="890"></line>
    <line x1="180" y1="550" x2="430" y2="800"></line>
    <line x1="210" y1="550" x2="460" y2="800"></line>
    <line x1="240" y1="550" x2="490" y2="800"></line>
    <line x1="270" y1="550" x2="520" y2="800"></line>
    <line x1="300" y1="550" x2="550" y2="800"></line>
    <line x1="330" y1="550" x2="580" y2="800"></line>
    <line x1="360" y1="550" x2="610" y2="800"></line>
    <line x1="390" y1="550" x2="640" y2="800"></line>
  </g>
  
  
  <g id="diagLinesTopRight" stroke="#000000" stroke-width="0.9" opacity="0.5">
    <line x1="550" y1="150" x2="800" y2="400"></line>
    <line x1="580" y1="150" x2="830" y2="400"></line>
    <line x1="610" y1="150" x2="860" y2="400"></line>
    <line x1="640" y1="150" x2="890" y2="400"></line>
    <line x1="550" y1="180" x2="800" y2="430"></line>
    <line x1="550" y1="210" x2="800" y2="460"></line>
    <line x1="550" y1="240" x2="800" y2="490"></line>
    <line x1="550" y1="270" x2="800" y2="520"></line>
    <line x1="550" y1="300" x2="800" y2="550"></line>
    <line x1="550" y1="330" x2="800" y2="580"></line>
    <line x1="550" y1="360" x2="800" y2="610"></line>
    <line x1="550" y1="390" x2="800" y2="640"></line>
  </g>
  
  
  <circle cx="500" cy="500" r="80" fill="none" stroke="url(#accentGrad)" stroke-width="3" opacity="0.9"></circle>
  <circle cx="500" cy="500" r="70" fill="none" stroke="url(#accentGrad)" stroke-width="1.5" opacity="0.7"></circle>
  <circle cx="500" cy="500" r="60" fill="none" stroke="url(#accentGrad)" stroke-width="2" opacity="0.8"></circle>
  
  
  <g id="cornerAccents">
    
    <circle cx="150" cy="150" r="40" fill="none" stroke="#FF00FF" stroke-width="1.5" opacity="0.6"></circle>
    <circle cx="150" cy="150" r="30" fill="none" stroke="#FF00FF" stroke-width="1" opacity="0.4"></circle>
    
    <circle cx="850" cy="150" r="40" fill="none" stroke="#00FFFF" stroke-width="1.5" opacity="0.6"></circle>
    <circle cx="850" cy="150" r="30" fill="none" stroke="#00FFFF" stroke-width="1" opacity="0.4"></circle>
    
    <circle cx="850" cy="850" r="40" fill="none" stroke="#FF00FF" stroke-width="1.5" opacity="0.6"></circle>
    <circle cx="850" cy="850" r="30" fill="none" stroke="#FF00FF" stroke-width="1" opacity="0.4"></circle>
    
    <circle cx="150" cy="850" r="40" fill="none" stroke="#00FFFF" stroke-width="1.5" opacity="0.6"></circle>
    <circle cx="150" cy="850" r="30" fill="none" stroke="#00FFFF" stroke-width="1" opacity="0.4"></circle>
  </g>
  
  
  <g id="detailGrid" stroke="#000000" stroke-width="0.5" opacity="0.3">
    <line x1="100" y1="200" x2="200" y2="200"></line>
    <line x1="800" y1="200" x2="900" y2="200"></line>
    <line x1="100" y1="800" x2="200" y2="800"></line>
    <line x1="800" y1="800" x2="900" y2="800"></line>
    <line x1="200" y1="100" x2="200" y2="200"></line>
    <line x1="200" y1="800" x2="200" y2="900"></line>
    <line x1="800" y1="100" x2="800" y2="200"></line>
    <line x1="800" y1="800" x2="800" y2="900"></line>
  </g>
</svg>