<svg viewBox="0 0 1000 1000" xmlns="http://www.w3.org/2000/svg">
  <defs>
    <linearGradient id="grad1" x1="0%" y1="0%" x2="100%" y2="100%">
      <stop offset="0%" style="stop-color:#d4a574;stop-opacity:1"></stop>
      <stop offset="100%" style="stop-color:#8b6f47;stop-opacity:1"></stop>
    </linearGradient>
    <linearGradient id="grad2" x1="0%" y1="0%" x2="0%" y2="100%">
      <stop offset="0%" style="stop-color:#2d5f6f;stop-opacity:1"></stop>
      <stop offset="100%" style="stop-color:#1a3a47;stop-opacity:1"></stop>
    </linearGradient>
    <radialGradient id="grad3" cx="50%" cy="50%" r="50%">
      <stop offset="0%" style="stop-color:#c9714d;stop-opacity:0.8"></stop>
      <stop offset="100%" style="stop-color:#7a4a35;stop-opacity:1"></stop>
    </radialGradient>
    <linearGradient id="grad4" x1="100%" y1="0%" x2="0%" y2="100%">
      <stop offset="0%" style="stop-color:#e8c4a0;stop-opacity:1"></stop>
      <stop offset="100%" style="stop-color:#a68c70;stop-opacity:1"></stop>
    </linearGradient>
  </defs>

  
  <rect width="1000" height="1000" fill="#f5f1ed"></rect>

  
  <ellipse cx="150" cy="200" rx="120" ry="140" fill="#d4a574" opacity="0.6"></ellipse>
  <circle cx="850" cy="250" r="95" fill="#c9714d" opacity="0.5"></circle>
  
  
  <path d="M 300 100 Q 380 80 420 150 Q 400 200 320 210 Q 260 180 300 100" fill="#2d5f6f" opacity="0.7"></path>
  <ellipse cx="600" cy="180" rx="85" ry="110" fill="#3d7a8f" opacity="0.6" transform="rotate(-25 600 180)"></ellipse>
  
  
  <circle cx="450" cy="320" r="65" fill="#a04d3d" opacity="0.65"></circle>
  <circle cx="200" cy="520" r="78" fill="#8b4a39" opacity="0.55"></circle>
  
  
  <ellipse cx="700" cy="400" rx="110" ry="95" fill="#d4a574" opacity="0.5" transform="rotate(35 700 400)"></ellipse>
  <path d="M 50 400 Q 80 380 130 390 Q 140 450 100 480 Q 60 470 50 400" fill="#2d5f6f" opacity="0.6"></path>
  
  
  <circle cx="550" cy="520" r="88" fill="#6b8f9f" opacity="0.55"></circle>
  <ellipse cx="320" cy="650" rx="95" ry="75" fill="#c9714d" opacity="0.6" transform="rotate(-15 320 650)"></ellipse>
  
  
  <polygon points="900,500 950,480 960,550 920,560" fill="#a04d3d" opacity="0.65"></polygon>
  <circle cx="150" cy="750" r="70" fill="#d4a574" opacity="0.5"></circle>
  
  
  <path d="M 400 600 Q 480 580 520 640 Q 500 700 420 710 Q 360 680 400 600" fill="#3d7a8f" opacity="0.65"></path>
  <ellipse cx="750" cy="680" rx="100" ry="85" fill="#8b4a39" opacity="0.55" transform="rotate(25 750 680)"></ellipse>
  
  
  <circle cx="600" cy="300" r="60" fill="none" stroke="#2d5f6f" stroke-width="3" opacity="0.6"></circle>
  <circle cx="250" cy="350" r="55" fill="none" stroke="#c9714d" stroke-width="2.5" opacity="0.5"></circle>
  
  
  <ellipse cx="100" cy="600" rx="65" ry="90" fill="#e8c4a0" opacity="0.4" transform="rotate(-40 100 600)"></ellipse>
  <circle cx="800" cy="750" r="80" fill="#6b8f9f" opacity="0.5"></circle>
  
  
  <path d="M 500 150 L 560 120 L 600 180 L 540 200 Z" fill="#a04d3d" opacity="0.6"></path>
  <ellipse cx="280" cy="450" rx="75" ry="65" fill="#d4a574" opacity="0.55" transform="rotate(45 280 450)"></ellipse>
  
  
  <circle cx="400" cy="200" r="50" fill="#3d7a8f" opacity="0.4"></circle>
  <polygon points="750,300 800,280 820,340 780,350" fill="#e8c4a0" opacity="0.6"></polygon>
  
  
  <path d="M 150 100 Q 250 150 320 120" fill="none" stroke="#2d5f6f" stroke-width="2" opacity="0.5"></path>
  <path d="M 900 100 Q 800 180 750 150" fill="none" stroke="#3d7a8f" stroke-width="2.5" opacity="0.45"></path>
  
  
  <ellipse cx="620" cy="500" rx="70" ry="80" fill="#c9714d" opacity="0.5" transform="rotate(-20 620 500)"></ellipse>
  <circle cx="350" cy="750" r="65" fill="#8b4a39" opacity="0.6"></circle>
  
  
  <path d="M 50 700 Q 120 680 150 740 Q 130 800 70 810 Q 40 770 50 700" fill="#6b8f9f" opacity="0.55"></path>
  <ellipse cx="500" cy="750" rx="90" ry="75" fill="#a04d3d" opacity="0.5" transform="rotate(15 500 750)"></ellipse>
  
  
  <circle cx="200" cy="200" r="45" fill="none" stroke="#a04d3d" stroke-width="2" opacity="0.6"></circle>
  <path d="M 600 600 Q 680 620 700 680" fill="none" stroke="#d4a574" stroke-width="2.5" opacity="0.5"></path>
  
  
  <polygon points="300,800 350,780 380,850 330,870" fill="#3d7a8f" opacity="0.6"></polygon>
  <circle cx="900" cy="850" r="75" fill="#d4a574" opacity="0.55"></circle>
  
  
  <ellipse cx="100" cy="300" rx="60" ry="80" fill="#c9714d" opacity="0.45" transform="rotate(30 100 300)"></ellipse>
  <circle cx="700" cy="550" r="70" fill="#e8c4a0" opacity="0.5"></circle>
  
  
  <path d="M 350 500 L 420 480 L 430 550" fill="none" stroke="#2d5f6f" stroke-width="2" opacity="0.4"></path>
  <path d="M 800 400 Q 850 380 900 420" fill="none" stroke="#8b4a39" stroke-width="2" opacity="0.5"></path>
  
  
  <polygon points="450,450 500,430 520,490 470,500" fill="#8b6f47" opacity="0.6"></polygon>
  <ellipse cx="250" cy="850" rx="85" ry="70" fill="#3d7a8f" opacity="0.5" transform="rotate(-30 250 850)"></ellipse>
  
  
  <circle cx="550" cy="250" r="55" fill="#a04d3d" opacity="0.5"></circle>
  <circle cx="650" cy="150" r="50" fill="#6b8f9f" opacity="0.55"></circle>
  
  
  <path d="M 100 850 Q 180 820 220 880" fill="none" stroke="#a04d3d" stroke-width="2.5" opacity="0.45"></path>
  <circle cx="400" cy="850" r="60" fill="none" stroke="#d4a574" stroke-width="2" opacity="0.5"></circle>
  
  
  <ellipse cx="800" cy="600" rx="95" ry="75" fill="#c9714d" opacity="0.5" transform="rotate(40 800 600)"></ellipse>
  <path d="M 500 400 Q 580 420 600 480 Q 550 510 480 490 Z" fill="#2d5f6f" opacity="0.5"></path>
  
  
  <path d="M 250 600 Q 350 620 400 650" fill="none" stroke="#3d7a8f" stroke-width="2" opacity="0.45"></path>
  <path d="M 700 750 Q 650 800 600 850" fill="none" stroke="#c9714d" stroke-width="2.5" opacity="0.5"></path>
  
  
  <circle cx="300" cy="100" r="45" fill="#8b4a39" opacity="0.5"></circle>
  <ellipse cx="900" cy="650" rx="85" ry="95" fill="#6b8f9f" opacity="0.5" transform="rotate(-25 900 650)"></ellipse>
  
  
  <circle cx="150" cy="500" r="40" fill="#e8c4a0" opacity="0.45"></circle>
  <circle cx="750" cy="450" r="50" fill="#a04d3d" opacity="0.55"></circle>
  
  
  <line x1="200" y1="150" x2="300" y2="250" stroke="#2d5f6f" stroke-width="1.5" opacity="0.4"></line>
  <line x1="700" y1="200" x2="800" y2="300" stroke="#c9714d" stroke-width="1.5" opacity="0.4"></line>
  
  
  <path d="M 600 700 Q 650 680 700 720 Q 680 770 620 780 Z" fill="#8b6f47" opacity="0.55"></path>
  <ellipse cx="420" cy="550" rx="70" ry="60" fill="#3d7a8f" opacity="0.45" transform="rotate(55 420 550)"></ellipse>
  
  
  <circle cx="550" cy="850" r="65" fill="#d4a574" opacity="0.5"></circle>
  <polygon points="850,700 900,680 930,750 890,770" fill="#2d5f6f" opacity="0.55"></polygon>
</svg>