<svg viewBox="0 0 1000 1000" xmlns="http://www.w3.org/2000/svg">
  <defs>
    <linearGradient id="grad1" x1="0%" y1="0%" x2="100%" y2="100%">
      <stop offset="0%" style="stop-color:#2a1810;stop-opacity:1"></stop>
      <stop offset="100%" style="stop-color:#1a0f0a;stop-opacity:1"></stop>
    </linearGradient>
    <radialGradient id="grad2" cx="50%" cy="50%" r="50%">
      <stop offset="0%" style="stop-color:#d4a574;stop-opacity:1"></stop>
      <stop offset="100%" style="stop-color:#8b6f47;stop-opacity:1"></stop>
    </radialGradient>
    <radialGradient id="grad3" cx="50%" cy="50%" r="50%">
      <stop offset="0%" style="stop-color:#e8c4a0;stop-opacity:0.8"></stop>
      <stop offset="100%" style="stop-color:#a67c52;stop-opacity:0.4"></stop>
    </radialGradient>
    <radialGradient id="grad4" cx="50%" cy="50%" r="50%">
      <stop offset="0%" style="stop-color:#c9704e;stop-opacity:1"></stop>
      <stop offset="100%" style="stop-color:#6b3f2a;stop-opacity:1"></stop>
    </radialGradient>
  </defs>

  
  <rect width="1000" height="1000" fill="url(#grad1)"></rect>

  
  <circle cx="500" cy="500" r="420" fill="none" stroke="#3d2817" stroke-width="2" opacity="0.6"></circle>
  <circle cx="500" cy="500" r="400" fill="none" stroke="#4a3420" stroke-width="1" opacity="0.4"></circle>

  
  <circle cx="280" cy="200" r="3" fill="#d4a574" opacity="0.7"></circle>
  <circle cx="320" cy="180" r="2" fill="#c9704e" opacity="0.6"></circle>
  <circle cx="350" cy="220" r="2.5" fill="#e8c4a0" opacity="0.5"></circle>
  <circle cx="400" cy="150" r="2" fill="#d4a574" opacity="0.6"></circle>
  <circle cx="450" cy="170" r="3" fill="#a67c52" opacity="0.7"></circle>
  <circle cx="500" cy="140" r="2.5" fill="#c9704e" opacity="0.5"></circle>
  <circle cx="550" cy="165" r="2" fill="#d4a574" opacity="0.6"></circle>
  <circle cx="600" cy="185" r="3" fill="#e8c4a0" opacity="0.7"></circle>
  <circle cx="650" cy="210" r="2" fill="#a67c52" opacity="0.5"></circle>
  <circle cx="700" cy="195" r="2.5" fill="#c9704e" opacity="0.6"></circle>
  <circle cx="750" cy="170" r="2" fill="#d4a574" opacity="0.7"></circle>
  <circle cx="780" cy="220" r="3" fill="#e8c4a0" opacity="0.6"></circle>

  
  <circle cx="250" cy="800" r="2.5" fill="#c9704e" opacity="0.6"></circle>
  <circle cx="320" cy="820" r="2" fill="#d4a574" opacity="0.7"></circle>
  <circle cx="380" cy="850" r="3" fill="#e8c4a0" opacity="0.5"></circle>
  <circle cx="450" cy="870" r="2" fill="#a67c52" opacity="0.6"></circle>
  <circle cx="520" cy="890" r="2.5" fill="#c9704e" opacity="0.7"></circle>
  <circle cx="580" cy="875" r="2" fill="#d4a574" opacity="0.5"></circle>
  <circle cx="650" cy="830" r="3" fill="#e8c4a0" opacity="0.6"></circle>
  <circle cx="720" cy="810" r="2" fill="#a67c52" opacity="0.7"></circle>
  <circle cx="780" cy="840" r="2.5" fill="#c9704e" opacity="0.6"></circle>

  
  <circle cx="120" cy="400" r="2" fill="#d4a574" opacity="0.6"></circle>
  <circle cx="140" cy="450" r="2.5" fill="#c9704e" opacity="0.7"></circle>
  <circle cx="160" cy="500" r="2" fill="#e8c4a0" opacity="0.5"></circle>
  <circle cx="145" cy="550" r="3" fill="#a67c52" opacity="0.6"></circle>
  <circle cx="130" cy="600" r="2" fill="#d4a574" opacity="0.7"></circle>

  <circle cx="880" cy="400" r="2.5" fill="#c9704e" opacity="0.6"></circle>
  <circle cx="860" cy="450" r="2" fill="#d4a574" opacity="0.7"></circle>
  <circle cx="840" cy="500" r="3" fill="#e8c4a0" opacity="0.5"></circle>
  <circle cx="855" cy="550" r="2" fill="#a67c52" opacity="0.6"></circle>
  <circle cx="870" cy="600" r="2.5" fill="#c9704e" opacity="0.7"></circle>

  
  
  
  <g opacity="0.95">
    <ellipse cx="320" cy="280" rx="85" ry="100" fill="url(#grad3)" stroke="#8b6f47" stroke-width="2"></ellipse>
    <circle cx="320" cy="280" r="8" fill="#e8c4a0" opacity="0.8"></circle>
    <circle cx="310" cy="265" r="3" fill="#d4a574" opacity="0.7"></circle>
    <circle cx="335" cy="270" r="2.5" fill="#c9704e" opacity="0.6"></circle>
    <circle cx="315" cy="295" r="2" fill="#a67c52" opacity="0.5"></circle>
    <circle cx="340" cy="290" r="3" fill="#d4a574" opacity="0.7"></circle>
    <circle cx="305" cy="310" r="2" fill="#c9704e" opacity="0.6"></circle>
    <circle cx="330" cy="315" r="2.5" fill="#e8c4a0" opacity="0.6"></circle>
    <circle cx="320" cy="260" r="1.5" fill="#a67c52" opacity="0.5"></circle>
    <circle cx="325" cy="305" r="1.5" fill="#d4a574" opacity="0.5"></circle>
  </g>

  
  <g opacity="0.95">
    <ellipse cx="680" cy="295" rx="90" ry="105" fill="url(#grad3)" stroke="#8b6f47" stroke-width="2"></ellipse>
    <circle cx="680" cy="295" r="8" fill="#e8c4a0" opacity="0.8"></circle>
    <circle cx="665" cy="275" r="3" fill="#d4a574" opacity="0.7"></circle>
    <circle cx="695" cy="280" r="2.5" fill="#c9704e" opacity="0.6"></circle>
    <circle cx="670" cy="310" r="2" fill="#a67c52" opacity="0.5"></circle>
    <circle cx="700" cy="305" r="3" fill="#d4a574" opacity="0.7"></circle>
    <circle cx="660" cy="325" r="2" fill="#c9704e" opacity="0.6"></circle>
    <circle cx="690" cy="330" r="2.5" fill="#e8c4a0" opacity="0.6"></circle>
    <circle cx="680" cy="270" r="1.5" fill="#a67c52" opacity="0.5"></circle>
    <circle cx="685" cy="320" r="1.5" fill="#d4a574" opacity="0.5"></circle>
  </g>

  
  <g opacity="0.95">
    <ellipse cx="310" cy="720" rx="88" ry="102" fill="url(#grad3)" stroke="#8b6f47" stroke-width="2"></ellipse>
    <circle cx="310" cy="720" r="8" fill="#e8c4a0" opacity="0.8"></circle>
    <circle cx="298" cy="700" r="3" fill="#d4a574" opacity="0.7"></circle>
    <circle cx="328" cy="710" r="2.5" fill="#c9704e" opacity="0.6"></circle>
    <circle cx="305" cy="735" r="2" fill="#a67c52" opacity="0.5"></circle>
    <circle cx="330" cy="740" r="3" fill="#d4a574" opacity="0.7"></circle>
    <circle cx="295" cy="755" r="2" fill="#c9704e" opacity="0.6"></circle>
    <circle cx="320" cy="760" r="2.5" fill="#e8c4a0" opacity="0.6"></circle>
    <circle cx="310" cy="695" r="1.5" fill="#a67c52" opacity="0.5"></circle>
    <circle cx="315" cy="750" r="1.5" fill="#d4a574" opacity="0.5"></circle>
  </g>

  
  <g opacity="0.95">
    <ellipse cx="690" cy="705" rx="86" ry="104" fill="url(#grad3)" stroke="#8b6f47" stroke-width="2"></ellipse>
    <circle cx="690" cy="705" r="8" fill="#e8c4a0" opacity="0.8"></circle>
    <circle cx="678" cy="685" r="3" fill="#d4a574" opacity="0.7"></circle>
    <circle cx="708" cy="695" r="2.5" fill="#c9704e" opacity="0.6"></circle>
    <circle cx="685" cy="720" r="2" fill="#a67c52" opacity="0.5"></circle>
    <circle cx="710" cy="725" r="3" fill="#d4a574" opacity="0.7"></circle>
    <circle cx="675" cy="740" r="2" fill="#c9704e" opacity="0.6"></circle>
    <circle cx="700" cy="745" r="2.5" fill="#e8c4a0" opacity="0.6"></circle>
    <circle cx="690" cy="680" r="1.5" fill="#a67c52" opacity="0.5"></circle>
    <circle cx="695" cy="735" r="1.5" fill="#d4a574" opacity="0.5"></circle>
  </g>

  
  <circle cx="400" cy="350" r="2" fill="#d4a574" opacity="0.6"></circle>
  <circle cx="420" cy="360" r="2.5" fill="#c9704e" opacity="0.7"></circle>
  <circle cx="440" cy="375" r="2" fill="#e8c4a0" opacity="0.5"></circle>
  <circle cx="460" cy="385" r="1.5" fill="#a67c52" opacity="0.6"></circle>

  <circle cx="600" cy="365" r="2" fill="#d4a574" opacity="0.6"></circle>
  <circle cx="580" cy="375" r="2.5" fill="#c9704e" opacity="0.7"></circle>
  <circle cx="560" cy="390" r="2" fill="#e8c4a0" opacity="0.5"></circle>
  <circle cx="540" cy="400" r="1.5" fill="#a67c52" opacity="0.6"></circle>

  <circle cx="400" cy="650" r="2" fill="#d4a574" opacity="0.6"></circle>
  <circle cx="420" cy="640" r="2.5" fill="#c9704e" opacity="0.7"></circle>
  <circle cx="440" cy="625" r="2" fill="#e8c4a0" opacity="0.5"></circle>
  <circle cx="460" cy="615" r="1.5" fill="#a67c52" opacity="0.6"></circle>

  <circle cx="600" cy="635" r="2" fill="#d4a574" opacity="0.6"></circle>
  <circle cx="580" cy="625" r="2.5" fill="#c9704e" opacity="0.7"></circle>
  <circle cx="560" cy="610" r="2" fill="#e8c4a0" opacity="0.5"></circle>
  <circle cx="540" cy="600" r="1.5" fill="#a67c52" opacity="0.6"></circle>

  
  <g>
    <circle cx="500" cy="500" r="95" fill="url(#grad4)" opacity="0.9"></circle>
    <circle cx="500" cy="500" r="85" fill="url(#grad2)" opacity="0.85"></circle>
    
    
    <circle cx="480" cy="485" r="2.5" fill="#e8c4a0" opacity="0.8"></circle>
    <circle cx="510" cy="490" r="2" fill="#d4a574" opacity="0.75"></circle>
    <circle cx="495" cy="510" r="2.5" fill="#c9704e" opacity="0.7"></circle>
    <circle cx="520" cy="520" r="2" fill="#a67c52" opacity="0.65"></circle>
    <circle cx="485" cy="530" r="1.5" fill="#e8c4a0" opacity="0.7"></circle>
    <circle cx="505" cy="475" r="2" fill="#d4a574" opacity="0.7"></circle>
    <circle cx="530" cy="495" r="2.5" fill="#c9704e" opacity="0.65"></circle>
    <circle cx="475" cy="515" r="1.5" fill="#a67c52" opacity="0.6"></circle>
    <circle cx="500" cy="540" r="2" fill="#e8c4a0" opacity="0.65"></circle>
    <circle cx="490" cy="460" r="1.5" fill="#d4a574" opacity="0.65"></circle>
    <circle cx="515" cy="505" r="2.5" fill="#c9704e" opacity="0.6"></circle>
    <circle cx="470" cy="490" r="2" fill="#a67c52" opacity="0.6"></circle>
    
    
    <circle cx="500" cy="500" r="30" fill="#e8c4a0" opacity="0.4"></circle>
    <circle cx="500" cy="500" r="20" fill="#d4a574" opacity="0.3"></circle>
  </g>

  
  <line x1="320" y1="280" x2="420" y2="380" stroke="#8b6f47" stroke-width="1" opacity="0.4"></line>
  <line x1="680" y1="295" x2="580" y2="395" stroke="#8b6f47" stroke-width="1" opacity="0.4"></line>
  <line x1="310" y1="720" x2="410" y2="620" stroke="#8b6f47" stroke-width="1" opacity="0.4"></line>
  <line x1="690" y1="705" x2="590" y2="605" stroke="#8b6f47" stroke-width="1" opacity="0.4"></line>

  
  <path d="M 500 500 Q 480 470 490 450 Q 500 430 510 440" stroke="#d4a574" stroke-width="1.5" fill="none" opacity="0.5"></path>
  <path d="M 500 500 Q 530 480 550 490 Q 560 510 540 520" stroke="#c9704e" stroke-width="1.5" fill="none" opacity="0.5"></path>
  <path d="M 500 500 Q 470 530 460 550 Q 450 540 470 525" stroke="#e8c4a0" stroke-width="1.5" fill="none" opacity="0.4"></path>
  <path d="M 500 500 Q 530 520 550 510 Q 560 490 545 480" stroke="#a67c52" stroke-width="1.5" fill="none" opacity="0.4"></path>

  
  <ellipse cx="320" cy="280" rx="60" ry="70" fill="none" stroke="#3d2817" stroke-width="0.5" opacity="0.3"></ellipse>
  <ellipse cx="680" cy="295" rx="65" ry="75" fill="none" stroke="#3d2817" stroke-width="0.5" opacity="0.3"></ellipse>
  <ellipse cx="310" cy="720" rx="62" ry="72" fill="none" stroke="#3d2817" stroke-width="0.5" opacity="0.3"></ellipse>
  <ellipse cx="690" cy="705" rx="61" ry="74" fill="none" stroke="#3d2817" stroke-width="0.5" opacity="0.3"></ellipse>

</svg>