<svg viewBox="0 0 1000 1000" xmlns="http://www.w3.org/2000/svg">
  <defs>
    <radialGradient id="bgGrad" cx="50%" cy="50%" r="60%">
      <stop offset="0%" style="stop-color:#faf8f3;stop-opacity:1"></stop>
      <stop offset="100%" style="stop-color:#e8dcc8;stop-opacity:1"></stop>
    </radialGradient>
    <radialGradient id="coreGlow" cx="40%" cy="40%" r="70%">
      <stop offset="0%" style="stop-color:#ffd4e5;stop-opacity:0.9"></stop>
      <stop offset="100%" style="stop-color:#f5a8c8;stop-opacity:0.6"></stop>
    </radialGradient>
    <radialGradient id="petalGrad1" cx="30%" cy="30%" r="80%">
      <stop offset="0%" style="stop-color:#ffe8b3;stop-opacity:1"></stop>
      <stop offset="100%" style="stop-color:#ffc97d;stop-opacity:0.7"></stop>
    </radialGradient>
    <radialGradient id="petalGrad2" cx="40%" cy="40%" r="75%">
      <stop offset="0%" style="stop-color:#e5d4f1;stop-opacity:1"></stop>
      <stop offset="100%" style="stop-color:#d0a8e8;stop-opacity:0.6"></stop>
    </radialGradient>
    <radialGradient id="petalGrad3" cx="35%" cy="35%" r="78%">
      <stop offset="0%" style="stop-color:#c8e8e5;stop-opacity:1"></stop>
      <stop offset="100%" style="stop-color:#9dd9d3;stop-opacity:0.5"></stop>
    </radialGradient>
    <linearGradient id="spiralGrad" x1="0%" y1="0%" x2="100%" y2="100%">
      <stop offset="0%" style="stop-color:#f5a8c8;stop-opacity:0.8"></stop>
      <stop offset="100%" style="stop-color:#d0a8e8;stop-opacity:0.4"></stop>
    </linearGradient>
  </defs>

  
  <rect width="1000" height="1000" fill="url(#bgGrad)"></rect>

  
  <path d="M 500 500 Q 450 480 420 520 T 380 620 T 420 720" stroke="url(#spiralGrad)" stroke-width="4" fill="none" opacity="0.6" stroke-linecap="round"></path>
  <path d="M 500 500 Q 550 480 580 520 T 620 620 T 580 720" stroke="url(#spiralGrad)" stroke-width="4" fill="none" opacity="0.6" stroke-linecap="round"></path>
  <path d="M 500 500 Q 520 450 480 420 T 380 380 T 280 420" stroke="url(#spiralGrad)" stroke-width="4" fill="none" opacity="0.6" stroke-linecap="round"></path>
  <path d="M 500 500 Q 480 550 520 580 T 620 620 T 720 580" stroke="url(#spiralGrad)" stroke-width="4" fill="none" opacity="0.5" stroke-linecap="round"></path>

  
  <ellipse cx="680" cy="280" rx="45" ry="58" fill="url(#petalGrad1)" opacity="0.85" transform="rotate(-25 680 280)"></ellipse>
  <ellipse cx="750" cy="450" rx="38" ry="52" fill="url(#petalGrad2)" opacity="0.8" transform="rotate(35 750 450)"></ellipse>
  <ellipse cx="650" cy="680" rx="42" ry="55" fill="url(#petalGrad3)" opacity="0.78" transform="rotate(-50 650 680)"></ellipse>
  <ellipse cx="320" cy="720" rx="40" ry="50" fill="url(#petalGrad1)" opacity="0.82" transform="rotate(60 320 720)"></ellipse>
  <ellipse cx="220" cy="480" rx="44" ry="56" fill="url(#petalGrad2)" opacity="0.75" transform="rotate(-35 220 480)"></ellipse>
  <ellipse cx="300" cy="260" rx="38" ry="48" fill="url(#petalGrad3)" opacity="0.8" transform="rotate(45 300 260)"></ellipse>

  
  <ellipse cx="750" cy="250" rx="32" ry="42" fill="url(#petalGrad2)" opacity="0.6" transform="rotate(-15 750 250)"></ellipse>
  <ellipse cx="180" cy="350" rx="35" ry="46" fill="url(#petalGrad3)" opacity="0.65" transform="rotate(25 180 350)"></ellipse>
  <ellipse cx="730" cy="650" rx="30" ry="40" fill="url(#petalGrad1)" opacity="0.7" transform="rotate(-60 730 650)"></ellipse>
  <ellipse cx="240" cy="650" rx="36" ry="48" fill="url(#petalGrad2)" opacity="0.68" transform="rotate(50 240 650)"></ellipse>

  
  <g id="innerRing">
    <ellipse cx="500" cy="350" rx="55" ry="70" fill="url(#petalGrad1)" opacity="0.72" transform="rotate(0 500 500)"></ellipse>
    <ellipse cx="606" cy="394" rx="55" ry="70" fill="url(#petalGrad2)" opacity="0.72" transform="rotate(60 500 500)"></ellipse>
    <ellipse cx="606" cy="606" rx="55" ry="70" fill="url(#petalGrad3)" opacity="0.72" transform="rotate(120 500 500)"></ellipse>
    <ellipse cx="500" cy="650" rx="55" ry="70" fill="url(#petalGrad1)" opacity="0.72" transform="rotate(180 500 500)"></ellipse>
    <ellipse cx="394" cy="606" rx="55" ry="70" fill="url(#petalGrad2)" opacity="0.72" transform="rotate(240 500 500)"></ellipse>
    <ellipse cx="394" cy="394" rx="55" ry="70" fill="url(#petalGrad3)" opacity="0.72" transform="rotate(300 500 500)"></ellipse>
  </g>

  
  <g id="secondRing" opacity="0.65">
    <ellipse cx="500" cy="300" rx="40" ry="52" fill="url(#petalGrad3)" opacity="0.8" transform="rotate(30 500 500)"></ellipse>
    <ellipse cx="596" cy="342" rx="40" ry="52" fill="url(#petalGrad1)" opacity="0.8" transform="rotate(90 500 500)"></ellipse>
    <ellipse cx="596" cy="658" rx="40" ry="52" fill="url(#petalGrad2)" opacity="0.8" transform="rotate(150 500 500)"></ellipse>
    <ellipse cx="500" cy="700" rx="40" ry="52" fill="url(#petalGrad3)" opacity="0.8" transform="rotate(210 500 500)"></ellipse>
    <ellipse cx="404" cy="658" rx="40" ry="52" fill="url(#petalGrad1)" opacity="0.8" transform="rotate(270 500 500)"></ellipse>
    <ellipse cx="404" cy="342" rx="40" ry="52" fill="url(#petalGrad2)" opacity="0.8" transform="rotate(330 500 500)"></ellipse>
  </g>

  
  <path d="M 500 500 L 540 510 Q 560 515 575 535 Q 580 555 570 570" stroke="#f5a8c8" stroke-width="2.5" fill="none" opacity="0.5" stroke-linecap="round"></path>
  <path d="M 500 500 L 460 490 Q 440 485 425 465 Q 420 445 430 430" stroke="#d0a8e8" stroke-width="2.5" fill="none" opacity="0.5" stroke-linecap="round"></path>
  <path d="M 500 500 L 515 455 Q 525 435 545 430 Q 565 428 575 445" stroke="#9dd9d3" stroke-width="2.5" fill="none" opacity="0.5" stroke-linecap="round"></path>
  <path d="M 500 500 L 485 545 Q 475 565 455 570 Q 435 572 425 555" stroke="#ffc97d" stroke-width="2.5" fill="none" opacity="0.5" stroke-linecap="round"></path>

  
  <circle cx="500" cy="500" r="95" fill="url(#coreGlow)" opacity="0.85"></circle>
  <circle cx="500" cy="500" r="75" fill="#ffd4e5" opacity="0.4"></circle>
  <circle cx="500" cy="500" r="55" fill="#ffe8f0" opacity="0.6"></circle>
  <circle cx="500" cy="500" r="35" fill="#fff5fa" opacity="0.8"></circle>

  
  <circle cx="500" cy="500" r="90" fill="none" stroke="#f5a8c8" stroke-width="1.2" opacity="0.4"></circle>
  <circle cx="500" cy="500" r="70" fill="none" stroke="#d0a8e8" stroke-width="1" opacity="0.35"></circle>
  <circle cx="500" cy="500" r="50" fill="none" stroke="#9dd9d3" stroke-width="0.8" opacity="0.3"></circle>

  
  <circle cx="350" cy="380" r="6" fill="#f5a8c8" opacity="0.5"></circle>
  <circle cx="650" cy="580" r="7" fill="#d0a8e8" opacity="0.45"></circle>
  <circle cx="720" cy="350" r="5" fill="#9dd9d3" opacity="0.55"></circle>
  <circle cx="280" cy="620" r="6.5" fill="#ffc97d" opacity="0.5"></circle>
  <circle cx="600" cy="280" r="5.5" fill="#f5a8c8" opacity="0.4"></circle>
  <circle cx="380" cy="750" r="6" fill="#d0a8e8" opacity="0.48"></circle>

  
  <path d="M 500 350 Q 520 345 530 365 Q 535 385 520 395" stroke="#f5a8c8" stroke-width="1.5" fill="none" opacity="0.6" stroke-linecap="round"></path>
  <path d="M 650 450 Q 670 440 680 460 Q 685 480 670 490" stroke="#d0a8e8" stroke-width="1.5" fill="none" opacity="0.6" stroke-linecap="round"></path>
  <path d="M 500 650 Q 520 655 530 635 Q 535 615 520 605" stroke="#9dd9d3" stroke-width="1.5" fill="none" opacity="0.6" stroke-linecap="round"></path>
  <path d="M 350 500 Q 330 510 320 490 Q 315 470 330 460" stroke="#ffc97d" stroke-width="1.5" fill="none" opacity="0.6" stroke-linecap="round"></path>
  <path d="M 600 300 Q 615 295 625 310 Q 625 330 610 335" stroke="#f5a8c8" stroke-width="1.3" fill="none" opacity="0.5" stroke-linecap="round"></path>
  <path d="M 420 700 Q 405 705 400 685 Q 405 665 420 665" stroke="#d0a8e8" stroke-width="1.3" fill="none" opacity="0.5" stroke-linecap="round"></path>
  <path d="M 750 550 Q 765 545 775 560 Q 775 580 760 585" stroke="#9dd9d3" stroke-width="1.3" fill="none" opacity="0.5" stroke-linecap="round"></path>
  <path d="M 280 450 Q 265 460 260 440 Q 265 420 280 420" stroke="#ffc97d" stroke-width="1.3" fill="none" opacity="0.5" stroke-linecap="round"></path>
</svg>