<svg viewBox="0 0 1000 1000" xmlns="http://www.w3.org/2000/svg">
  <defs>
    <radialGradient id="deepCore" cx="50%" cy="50%" r="45%">
      <stop offset="0%" style="stop-color:#8B1538;stop-opacity:0.9"></stop>
      <stop offset="40%" style="stop-color:#4A0E2C;stop-opacity:0.95"></stop>
      <stop offset="100%" style="stop-color:#1a0a15;stop-opacity:1"></stop>
    </radialGradient>
    <radialGradient id="purpleVein" cx="55%" cy="45%" r="50%">
      <stop offset="0%" style="stop-color:#D4A5E8;stop-opacity:0.3"></stop>
      <stop offset="60%" style="stop-color:#6B2E5F;stop-opacity:0.5"></stop>
      <stop offset="100%" style="stop-color:#2A1333;stop-opacity:0.8"></stop>
    </radialGradient>
    <linearGradient id="lightChannel" x1="0%" y1="0%" x2="100%" y2="100%">
      <stop offset="0%" style="stop-color:#F5E6F0;stop-opacity:0.4"></stop>
      <stop offset="50%" style="stop-color:#E8C8E0;stop-opacity:0.2"></stop>
      <stop offset="100%" style="stop-color:#4A0E2C;stop-opacity:0.6"></stop>
    </linearGradient>
  </defs>

  
  <rect width="1000" height="1000" fill="#0F0812"></rect>

  
  <circle cx="500" cy="500" r="480" fill="url(#deepCore)"></circle>

  
  <circle cx="500" cy="500" r="420" fill="url(#purpleVein)"></circle>

  
  <rect width="1000" height="1000" fill="url(#lightChannel)"></rect>

  
  <ellipse cx="380" cy="420" rx="45" ry="65" fill="#1a0a15" opacity="0.7"></ellipse>
  <circle cx="375" cy="410" r="12" fill="#2A1333" opacity="0.8"></circle>
  <circle cx="375" cy="410" r="6" fill="#8B1538" opacity="0.4"></circle>

  
  <ellipse cx="620" cy="420" rx="48" ry="68" fill="#1a0a15" opacity="0.65"></ellipse>
  <circle cx="628" cy="408" r="14" fill="#2A1333" opacity="0.75"></circle>
  <circle cx="628" cy="408" r="7" fill="#6B2E5F" opacity="0.5"></circle>

  
  <path d="M 400 380 Q 500 350 600 380 L 605 420 Q 500 430 395 420 Z" fill="#4A0E2C" opacity="0.6"></path>

  
  <circle cx="500" cy="500" r="8" fill="#8B1538"></circle>
  <circle cx="520" cy="480" r="6" fill="#A01F4A"></circle>
  <circle cx="480" cy="520" r="7" fill="#8B1538"></circle>
  <circle cx="450" cy="490" r="5" fill="#6B1538"></circle>
  <circle cx="550" cy="510" r="6" fill="#9B2548"></circle>
  <circle cx="490" cy="450" r="5" fill="#7A0E2C"></circle>
  <circle cx="510" cy="550" r="6" fill="#8B1538"></circle>

  
  
  <circle cx="420" cy="380" r="4" fill="#E8C8E0" opacity="0.6"></circle>
  <circle cx="410" cy="360" r="3" fill="#D4A5E8" opacity="0.5"></circle>
  <circle cx="405" cy="330" r="3" fill="#C8A0E0" opacity="0.4"></circle>
  <circle cx="415" cy="350" r="2" fill="#F5E6F0" opacity="0.7"></circle>
  <circle cx="425" cy="370" r="3" fill="#D4A5E8" opacity="0.5"></circle>
  <circle cx="440" cy="360" r="2" fill="#E8C8E0" opacity="0.6"></circle>
  <circle cx="430" cy="340" r="2" fill="#F5E6F0" opacity="0.5"></circle>

  
  <circle cx="580" cy="375" r="4" fill="#E8C8E0" opacity="0.6"></circle>
  <circle cx="595" cy="350" r="3" fill="#D4A5E8" opacity="0.5"></circle>
  <circle cx="610" cy="320" r="3" fill="#C8A0E0" opacity="0.4"></circle>
  <circle cx="590" cy="345" r="2" fill="#F5E6F0" opacity="0.7"></circle>
  <circle cx="575" cy="360" r="3" fill="#D4A5E8" opacity="0.5"></circle>
  <circle cx="560" cy="350" r="2" fill="#E8C8E0" opacity="0.6"></circle>
  <circle cx="570" cy="330" r="2" fill="#F5E6F0" opacity="0.5"></circle>

  
  <circle cx="410" cy="620" r="4" fill="#E8C8E0" opacity="0.6"></circle>
  <circle cx="395" cy="650" r="3" fill="#D4A5E8" opacity="0.5"></circle>
  <circle cx="380" cy="680" r="3" fill="#C8A0E0" opacity="0.4"></circle>
  <circle cx="405" cy="655" r="2" fill="#F5E6F0" opacity="0.7"></circle>
  <circle cx="420" cy="630" r="3" fill="#D4A5E8" opacity="0.5"></circle>
  <circle cx="435" cy="640" r="2" fill="#E8C8E0" opacity="0.6"></circle>
  <circle cx="425" cy="670" r="2" fill="#F5E6F0" opacity="0.5"></circle>

  
  <circle cx="590" cy="625" r="4" fill="#E8C8E0" opacity="0.6"></circle>
  <circle cx="605" cy="655" r="3" fill="#D4A5E8" opacity="0.5"></circle>
  <circle cx="620" cy="685" r="3" fill="#C8A0E0" opacity="0.4"></circle>
  <circle cx="600" cy="660" r="2" fill="#F5E6F0" opacity="0.7"></circle>
  <circle cx="585" cy="635" r="3" fill="#D4A5E8" opacity="0.5"></circle>
  <circle cx="570" cy="645" r="2" fill="#E8C8E0" opacity="0.6"></circle>
  <circle cx="580" cy="675" r="2" fill="#F5E6F0" opacity="0.5"></circle>

  
  
  <circle cx="250" cy="500" r="3" fill="#A01F4A" opacity="0.7"></circle>
  <circle cx="270" cy="480" r="2" fill="#D4A5E8" opacity="0.4"></circle>
  <circle cx="280" cy="520" r="2" fill="#E8C8E0" opacity="0.5"></circle>
  <circle cx="260" cy="530" r="3" fill="#8B1538" opacity="0.6"></circle>
  <circle cx="240" cy="470" r="2" fill="#C8A0E0" opacity="0.4"></circle>
  <circle cx="255" cy="550" r="2" fill="#F5E6F0" opacity="0.5"></circle>
  <circle cx="275" cy="510" r="2" fill="#6B2E5F" opacity="0.5"></circle>

  
  <circle cx="750" cy="500" r="3" fill="#A01F4A" opacity="0.7"></circle>
  <circle cx="730" cy="480" r="2" fill="#D4A5E8" opacity="0.4"></circle>
  <circle cx="720" cy="520" r="2" fill="#E8C8E0" opacity="0.5"></circle>
  <circle cx="740" cy="530" r="3" fill="#8B1538" opacity="0.6"></circle>
  <circle cx="760" cy="470" r="2" fill="#C8A0E0" opacity="0.4"></circle>
  <circle cx="745" cy="550" r="2" fill="#F5E6F0" opacity="0.5"></circle>
  <circle cx="725" cy="510" r="2" fill="#6B2E5F" opacity="0.5"></circle>

  
  <circle cx="500" cy="250" r="3" fill="#A01F4A" opacity="0.7"></circle>
  <circle cx="480" cy="270" r="2" fill="#D4A5E8" opacity="0.4"></circle>
  <circle cx="520" cy="280" r="2" fill="#E8C8E0" opacity="0.5"></circle>
  <circle cx="530" cy="260" r="3" fill="#8B1538" opacity="0.6"></circle>
  <circle cx="470" cy="240" r="2" fill="#C8A0E0" opacity="0.4"></circle>
  <circle cx="550" cy="255" r="2" fill="#F5E6F0" opacity="0.5"></circle>
  <circle cx="510" cy="275" r="2" fill="#6B2E5F" opacity="0.5"></circle>

  
  <circle cx="500" cy="750" r="3" fill="#A01F4A" opacity="0.7"></circle>
  <circle cx="480" cy="730" r="2" fill="#D4A5E8" opacity="0.4"></circle>
  <circle cx="520" cy="720" r="2" fill="#E8C8E0" opacity="0.5"></circle>
  <circle cx="530" cy="740" r="3" fill="#8B1538" opacity="0.6"></circle>
  <circle cx="470" cy="760" r="2" fill="#C8A0E0" opacity="0.4"></circle>
  <circle cx="550" cy="745" r="2" fill="#F5E6F0" opacity="0.5"></circle>
  <circle cx="510" cy="725" r="2" fill="#6B2E5F" opacity="0.5"></circle>

  
  
  <circle cx="350" cy="350" r="3" fill="#8B1538" opacity="0.5"></circle>
  <circle cx="360" cy="365" r="2" fill="#D4A5E8" opacity="0.4"></circle>
  <circle cx="370" cy="380" r="2" fill="#E8C8E0" opacity="0.4"></circle>
  <circle cx="380" cy="395" r="2" fill="#6B2E5F" opacity="0.4"></circle>
  <circle cx="390" cy="410" r="3" fill="#A01F4A" opacity="0.5"></circle>

  
  <circle cx="650" cy="350" r="3" fill="#8B1538" opacity="0.5"></circle>
  <circle cx="640" cy="365" r="2" fill="#D4A5E8" opacity="0.4"></circle>
  <circle cx="630" cy="380" r="2" fill="#E8C8E0" opacity="0.4"></circle>
  <circle cx="620" cy="395" r="2" fill="#6B2E5F" opacity="0.4"></circle>
  <circle cx="610" cy="410" r="3" fill="#A01F4A" opacity="0.5"></circle>

  
  <circle cx="350" cy="650" r="3" fill="#8B1538" opacity="0.5"></circle>
  <circle cx="360" cy="635" r="2" fill="#D4A5E8" opacity="0.4"></circle>
  <circle cx="370" cy="620" r="2" fill="#E8C8E0" opacity="0.4"></circle>
  <circle cx="380" cy="605" r="2" fill="#6B2E5F" opacity="0.4"></circle>
  <circle cx="390" cy="590" r="3" fill="#A01F4A" opacity="0.5"></circle>

  
  <circle cx="650" cy="650" r="3" fill="#8B1538" opacity="0.5"></circle>
  <circle cx="640" cy="635" r="2" fill="#D4A5E8" opacity="0.4"></circle>
  <circle cx="630" cy="620" r="2" fill="#E8C8E0" opacity="0.4"></circle>
  <circle cx="620" cy="605" r="2" fill="#6B2E5F" opacity="0.4"></circle>
  <circle cx="610" cy="590" r="3" fill="#A01F4A" opacity="0.5"></circle>

  
  <circle cx="480" cy="470" r="2" fill="#E8C8E0" opacity="0.5"></circle>
  <circle cx="510" cy="475" r="2" fill="#D4A5E8" opacity="0.4"></circle>
  <circle cx="505" cy="445" r="2" fill="#F5E6F0" opacity="0.6"></circle>
  <circle cx="475" cy="510" r="2" fill="#C8A0E0" opacity="0.4"></circle>
  <circle cx="530" cy="505" r="2" fill="#E8C8E0" opacity="0.5"></circle>
  <circle cx="495" cy="535" r="2" fill="#D4A5E8" opacity="0.4"></circle>

  
  <path d="M 200 600 Q 300 580 400 595 T 600 590 T 800 605" stroke="#2A1333" stroke-width="1" fill="none" opacity="0.4"></path>
  <path d="M 180 650 Q 350 640 500 655 T 850 640" stroke="#4A0E2C" stroke-width="0.5" fill="none" opacity="0.3"></path>

  
  <ellipse cx="300" cy="300" rx="40" ry="50" fill="#0F0812" opacity="0.5"></ellipse>
  <ellipse cx="700" cy="300" rx="45" ry="55" fill="#0F0812" opacity="0.4"></ellipse>
  <ellipse cx="650" cy="750" rx="35" ry="45" fill="#0F0812" opacity="0.45"></ellipse>

  
  <circle cx="320" cy="250" r="2" fill="#8B1538" opacity="0.7"></circle>
  <circle cx="680" cy="260" r="2" fill="#A01F4A" opacity="0.7"></circle>
  <circle cx="300" cy="750" r="2" fill="#6B1538" opacity="0.6"></circle>
  <circle cx="750" cy="780" r="2" fill="#8B1538" opacity="0.7"></circle>
</svg>