<svg viewBox="0 0 1000 1000" xmlns="http://www.w3.org/2000/svg">
  <defs>
    <radialGradient id="grad1" cx="40%" cy="40%">
      <stop offset="0%" style="stop-color:#f5e6d3;stop-opacity:1"></stop>
      <stop offset="100%" style="stop-color:#2c2416;stop-opacity:1"></stop>
    </radialGradient>
    <radialGradient id="grad2" cx="50%" cy="50%">
      <stop offset="0%" style="stop-color:#e8d4c4;stop-opacity:1"></stop>
      <stop offset="100%" style="stop-color:#4a3f38;stop-opacity:1"></stop>
    </radialGradient>
    <linearGradient id="grad3" x1="0%" y1="0%" x2="100%" y2="100%">
      <stop offset="0%" style="stop-color:#d4a574;stop-opacity:0.8"></stop>
      <stop offset="100%" style="stop-color:#6b5b52;stop-opacity:0.6"></stop>
    </linearGradient>
  </defs>

  
  <rect width="1000" height="1000" fill="#faf7f2"></rect>
  
  
  <circle cx="420" cy="480" r="380" fill="url(#grad1)" opacity="0.4"></circle>
  <circle cx="580" cy="520" r="360" fill="url(#grad2)" opacity="0.3"></circle>

  
  <g id="main-spiral">
    
    <circle cx="520" cy="350" r="2" fill="#3d3530"></circle>
    <circle cx="525" cy="348" r="2.5" fill="#5a4f47"></circle>
    <circle cx="530" cy="347" r="2" fill="#3d3530"></circle>
    <circle cx="540" cy="346" r="2.2" fill="#6b5b52"></circle>
    <circle cx="550" cy="348" r="1.8" fill="#4a3f38"></circle>
    <circle cx="560" cy="352" r="2.4" fill="#5a4f47"></circle>
    <circle cx="568" cy="358" r="2" fill="#3d3530"></circle>
    <circle cx="575" cy="366" r="2.3" fill="#6b5b52"></circle>
    <circle cx="580" cy="376" r="2.1" fill="#4a3f38"></circle>
    <circle cx="582" cy="388" r="2.2" fill="#5a4f47"></circle>
    <circle cx="582" cy="400" r="2" fill="#3d3530"></circle>
    <circle cx="580" cy="412" r="2.4" fill="#6b5b52"></circle>
    <circle cx="575" cy="423" r="2.1" fill="#5a4f47"></circle>
    <circle cx="568" cy="432" r="2.2" fill="#4a3f38"></circle>
    <circle cx="558" cy="438" r="2" fill="#3d3530"></circle>
    <circle cx="548" cy="442" r="2.3" fill="#6b5b52"></circle>
    <circle cx="538" cy="443" r="2.1" fill="#5a4f47"></circle>
    <circle cx="528" cy="442" r="2.2" fill="#4a3f38"></circle>
    
    
    <circle cx="480" cy="360" r="2" fill="#6b5b52"></circle>
    <circle cx="475" cy="370" r="2.2" fill="#5a4f47"></circle>
    <circle cx="472" cy="382" r="2.1" fill="#3d3530"></circle>
    <circle cx="472" cy="394" r="2.3" fill="#4a3f38"></circle>
    <circle cx="475" cy="405" r="2" fill="#6b5b52"></circle>
    <circle cx="482" cy="414" r="2.2" fill="#5a4f47"></circle>
    <circle cx="492" cy="419" r="2.1" fill="#3d3530"></circle>
    <circle cx="503" cy="420" r="2.4" fill="#4a3f38"></circle>
    <circle cx="512" cy="417" r="2" fill="#6b5b52"></circle>
    <circle cx="520" cy="410" r="2.3" fill="#5a4f47"></circle>
    
    
    <circle cx="540" cy="500" r="2.1" fill="#4a3f38"></circle>
    <circle cx="545" cy="515" r="2.2" fill="#3d3530"></circle>
    <circle cx="548" cy="530" r="2" fill="#6b5b52"></circle>
    <circle cx="548" cy="545" r="2.3" fill="#5a4f47"></circle>
    <circle cx="545" cy="558" r="2.1" fill="#4a3f38"></circle>
    <circle cx="540" cy="569" r="2.2" fill="#3d3530"></circle>
    <circle cx="532" cy="576" r="2" fill="#6b5b52"></circle>
    <circle cx="522" cy="578" r="2.4" fill="#5a4f47"></circle>
    <circle cx="512" cy="576" r="2.1" fill="#4a3f38"></circle>
  </g>

  
  <ellipse cx="500" cy="420" rx="45" ry="55" fill="none" stroke="#d4a574" stroke-width="1.2" opacity="0.6"></ellipse>
  <ellipse cx="520" cy="480" rx="38" ry="48" fill="none" stroke="#a89080" stroke-width="1" opacity="0.5"></ellipse>
  <ellipse cx="485" cy="520" rx="42" ry="50" fill="none" stroke="#d4a574" stroke-width="1.2" opacity="0.5"></ellipse>
  
  
  <circle cx="500" cy="420" r="3" fill="#6b5b52" opacity="0.7"></circle>
  <circle cx="520" cy="480" r="2.5" fill="#5a4f47" opacity="0.6"></circle>
  <circle cx="485" cy="520" r="2.8" fill="#4a3f38" opacity="0.7"></circle>

  
  <g id="secondary-detail" opacity="0.65">
    
    <circle cx="450" cy="460" r="1.5" fill="#d4a574"></circle>
    <circle cx="440" cy="470" r="1.3" fill="#c99560"></circle>
    <circle cx="432" cy="482" r="1.4" fill="#d4a574"></circle>
    <circle cx="428" cy="495" r="1.5" fill="#b8865a"></circle>
    
    <circle cx="560" cy="440" r="1.4" fill="#c99560"></circle>
    <circle cx="575" cy="450" r="1.5" fill="#d4a574"></circle>
    <circle cx="588" cy="465" r="1.3" fill="#b8865a"></circle>
    <circle cx="598" cy="482" r="1.4" fill="#c99560"></circle>
    
    <circle cx="510" cy="550" r="1.3" fill="#d4a574"></circle>
    <circle cx="520" cy="565" r="1.5" fill="#c99560"></circle>
    <circle cx="530" cy="578" r="1.4" fill="#b8865a"></circle>
    <circle cx="542" cy="588" r="1.3" fill="#d4a574"></circle>
  </g>

  
  <path d="M 480 400 Q 470 410 475 425 Q 480 440 490 438 Q 495 435 490 420 Q 488 410 480 400" fill="none" stroke="#d4a574" stroke-width="0.8" opacity="0.4"></path>
  <path d="M 545 460 Q 555 470 565 475 Q 570 480 568 490 Q 560 495 550 490 Q 545 485 545 460" fill="none" stroke="#a89080" stroke-width="0.9" opacity="0.4"></path>
  <path d="M 505 540 Q 495 550 490 565 Q 488 575 500 580 Q 510 578 510 565 Q 508 550 505 540" fill="none" stroke="#d4a574" stroke-width="0.8" opacity="0.35"></path>

  
  <g id="extended-pods">
    <circle cx="350" cy="420" r="1.8" fill="#5a4f47" opacity="0.6"></circle>
    <circle cx="360" cy="415" r="1.6" fill="#6b5b52" opacity="0.5"></circle>
    <circle cx="370" cy="412" r="1.7" fill="#4a3f38" opacity="0.6"></circle>
    <circle cx="380" cy="410" r="1.5" fill="#5a4f47" opacity="0.5"></circle>
    
    <circle cx="650" cy="480" r="1.7" fill="#6b5b52" opacity="0.6"></circle>
    <circle cx="665" cy="490" r="1.8" fill="#4a3f38" opacity="0.5"></circle>
    <circle cx="675" cy="505" r="1.6" fill="#5a4f47" opacity="0.6"></circle>
    <circle cx="682" cy="520" r="1.7" fill="#6b5b52" opacity="0.5"></circle>
    
    <circle cx="460" cy="600" r="1.6" fill="#5a4f47" opacity="0.5"></circle>
    <circle cx="475" cy="615" r="1.7" fill="#4a3f38" opacity="0.6"></circle>
    <circle cx="490" cy="625" r="1.8" fill="#6b5b52" opacity="0.5"></circle>
    <circle cx="505" cy="632" r="1.6" fill="#5a4f47" opacity="0.5"></circle>
  </g>

  
  <circle cx="420" cy="380" r="25" fill="none" stroke="#d4a574" stroke-width="0.6" opacity="0.35" stroke-dasharray="3,2"></circle>
  <circle cx="600" cy="520" r="30" fill="none" stroke="#a89080" stroke-width="0.7" opacity="0.3" stroke-dasharray="2,3"></circle>
  <circle cx="480" cy="580" r="22" fill="none" stroke="#d4a574" stroke-width="0.6" opacity="0.3" stroke-dasharray="4,2"></circle>

  
  <g id="core" opacity="0.8">
    <circle cx="510" cy="480" r="8" fill="#3d3530" opacity="0.4"></circle>
    <circle cx="505" cy="475" r="2" fill="#6b5b52"></circle>
    <circle cx="515" cy="475" r="2" fill="#5a4f47"></circle>
    <circle cx="512" cy="485" r="1.8" fill="#4a3f38"></circle>
    <circle cx="508" cy="485" r="1.9" fill="#6b5b52"></circle>
    <circle cx="510" cy="480" r="1.2" fill="#2c2416"></circle>
  </g>

  
  <path d="M 520 350 Q 535 345 550 355 Q 560 365 555 378" fill="none" stroke="#d4a574" stroke-width="1.2" opacity="0.5"></path>
  <path d="M 480 400 Q 465 395 455 410 Q 450 425 465 432" fill="none" stroke="#a89080" stroke-width="1" opacity="0.45"></path>
  <path d="M 540 520 Q 560 530 575 545 Q 580 560 570 572" fill="none" stroke="#d4a574" stroke-width="1.1" opacity="0.48"></path>
  
  
  <circle cx="420" cy="350" r="0.8" fill="#6b5b52" opacity="0.4"></circle>
  <circle cx="650" cy="400" r="0.9" fill="#5a4f47" opacity="0.35"></circle>
  <circle cx="380" cy="550" r="0.7" fill="#4a3f38" opacity="0.4"></circle>
  <circle cx="680" cy="580" r="0.8" fill="#6b5b52" opacity="0.3"></circle>
  <circle cx="420" cy="680" r="0.9" fill="#5a4f47" opacity="0.35"></circle>

  
  <g id="resonance" opacity="0.4">
    <line x1="500" y1="300" x2="500" y2="660" stroke="#d4a574" stroke-width="0.5"></line>
    <line x1="350" y1="480" x2="650" y2="480" stroke="#a89080" stroke-width="0.5"></line>
  </g>
</svg>