<svg viewBox="0 0 1000 1000" xmlns="http://www.w3.org/2000/svg">
  <defs>
    <linearGradient id="grad1" x1="0%" y1="0%" x2="100%" y2="100%">
      <stop offset="0%" style="stop-color:#000000;stop-opacity:1"></stop>
      <stop offset="100%" style="stop-color:#1a1a1a;stop-opacity:1"></stop>
    </linearGradient>
    <radialGradient id="pulseGrad" cx="50%" cy="50%" r="50%">
      <stop offset="0%" style="stop-color:#ff0000;stop-opacity:0.9"></stop>
      <stop offset="100%" style="stop-color:#000000;stop-opacity:1"></stop>
    </radialGradient>
  </defs>

  
  <rect width="1000" height="1000" fill="url(#grad1)"></rect>

  
  
  
  <g id="leftSwell">
    
    <circle cx="200" cy="180" r="28" fill="#ff0000" opacity="0.95"></circle>
    <circle cx="150" cy="240" r="32" fill="#ff0000" opacity="0.92"></circle>
    <circle cx="280" cy="220" r="26" fill="#ff0000" opacity="0.88"></circle>
    <circle cx="120" cy="140" r="30" fill="#ff0000" opacity="0.90"></circle>
    <circle cx="240" cy="100" r="25" fill="#ff0000" opacity="0.85"></circle>
    
    
    <circle cx="180" cy="320" r="18" fill="#ff0000" opacity="0.78"></circle>
    <circle cx="100" cy="280" r="20" fill="#ff0000" opacity="0.82"></circle>
    <circle cx="300" cy="300" r="17" fill="#ff0000" opacity="0.75"></circle>
    <circle cx="140" cy="380" r="19" fill="#ff0000" opacity="0.80"></circle>
    <circle cx="260" cy="360" r="16" fill="#ff0000" opacity="0.72"></circle>
    <circle cx="80" cy="420" r="21" fill="#ff0000" opacity="0.83"></circle>
    <circle cx="220" cy="440" r="18" fill="#ff0000" opacity="0.76"></circle>
    
    
    <circle cx="60" cy="550" r="12" fill="#ffffff" opacity="0.70"></circle>
    <circle cx="160" cy="520" r="11" fill="#ffffff" opacity="0.68"></circle>
    <circle cx="280" cy="540" r="10" fill="#ffffff" opacity="0.65"></circle>
    <circle cx="120" cy="620" r="13" fill="#ffffff" opacity="0.72"></circle>
    <circle cx="200" cy="600" r="9" fill="#ffffff" opacity="0.62"></circle>
  </g>

  
  <g id="rightAscent">
    <circle cx="750" cy="850" r="24" fill="#ffffff" opacity="0.85"></circle>
    <circle cx="820" cy="780" r="22" fill="#ffffff" opacity="0.82"></circle>
    <circle cx="700" cy="750" r="20" fill="#ffffff" opacity="0.78"></circle>
    <circle cx="880" cy="700" r="18" fill="#ffffff" opacity="0.75"></circle>
    <circle cx="650" cy="680" r="19" fill="#ffffff" opacity="0.80"></circle>
    <circle cx="800" cy="600" r="16" fill="#ffffff" opacity="0.70"></circle>
    <circle cx="900" cy="620" r="17" fill="#ffffff" opacity="0.73"></circle>
    <circle cx="720" cy="540" r="15" fill="#ffffff" opacity="0.68"></circle>
    <circle cx="850" cy="480" r="14" fill="#ffffff" opacity="0.65"></circle>
  </g>

  
  <g id="centerTension">
    
    <circle cx="380" cy="400" r="24" fill="#ff0000" opacity="0.70"></circle>
    <circle cx="450" cy="380" r="20" fill="#ff0000" opacity="0.62"></circle>
    <circle cx="350" cy="480" r="22" fill="#ff0000" opacity="0.65"></circle>
    <circle cx="420" cy="520" r="18" fill="#ff0000" opacity="0.58"></circle>
    
    
    <circle cx="500" cy="420" r="16" fill="#ffffff" opacity="0.72"></circle>
    <circle cx="560" cy="450" r="14" fill="#ffffff" opacity="0.68"></circle>
    <circle cx="480" cy="500" r="15" fill="#ffffff" opacity="0.70"></circle>
    <circle cx="540" cy="520" r="13" fill="#ffffff" opacity="0.65"></circle>
  </g>

  
  <g id="upperRight">
    <circle cx="850" cy="180" r="26" fill="#ffffff" opacity="0.88"></circle>
    <circle cx="920" cy="250" r="23" fill="#ffffff" opacity="0.85"></circle>
    <circle cx="790" cy="220" r="20" fill="#ffffff" opacity="0.80"></circle>
    <circle cx="880" cy="120" r="25" fill="#ffffff" opacity="0.90"></circle>
    <circle cx="950" cy="150" r="21" fill="#ffffff" opacity="0.82"></circle>
  </g>

  
  <g id="lowerAnchor">
    <circle cx="120" cy="800" r="28" fill="#ff0000" opacity="0.88"></circle>
    <circle cx="200" cy="850" r="26" fill="#ff0000" opacity="0.85"></circle>
    <circle cx="80" cy="900" r="24" fill="#ff0000" opacity="0.82"></circle>
    <circle cx="240" cy="920" r="22" fill="#ff0000" opacity="0.80"></circle>
    <circle cx="160" cy="950" r="20" fill="#ff0000" opacity="0.78"></circle>
  </g>

  
  <g id="topHorizon">
    <circle cx="300" cy="40" r="18" fill="#ffffff" opacity="0.75"></circle>
    <circle cx="400" cy="60" r="16" fill="#ffffff" opacity="0.72"></circle>
    <circle cx="500" cy="35" r="17" fill="#ffffff" opacity="0.74"></circle>
    <circle cx="600" cy="50" r="15" fill="#ffffff" opacity="0.70"></circle>
    <circle cx="700" cy="45" r="16" fill="#ffffff" opacity="0.71"></circle>
  </g>

  
  <g id="scatteredAccents">
    <circle cx="650" cy="300" r="15" fill="#ff0000" opacity="0.60"></circle>
    <circle cx="750" cy="400" r="13" fill="#ff0000" opacity="0.55"></circle>
    <circle cx="600" cy="550" r="14" fill="#ff0000" opacity="0.58"></circle>
    <circle cx="820" cy="500" r="12" fill="#ff0000" opacity="0.52"></circle>
  </g>

  
  <g id="rightEdge">
    <circle cx="950" cy="350" r="14" fill="#ffffff" opacity="0.68"></circle>
    <circle cx="980" cy="500" r="12" fill="#ffffff" opacity="0.65"></circle>
    <circle cx="960" cy="650" r="13" fill="#ffffff" opacity="0.67"></circle>
  </g>

  
  <g id="bottomFade">
    <circle cx="400" cy="920" r="16" fill="#ffffff" opacity="0.70"></circle>
    <circle cx="500" cy="950" r="14" fill="#ffffff" opacity="0.65"></circle>
    <circle cx="600" cy="930" r="15" fill="#ffffff" opacity="0.68"></circle>
  </g>

  
  <line x1="200" y1="180" x2="850" y2="180" stroke="#ffffff" stroke-width="1.5" opacity="0.40"></line>
  <line x1="150" y1="240" x2="900" y2="250" stroke="#ffffff" stroke-width="1.2" opacity="0.35"></line>
  <line x1="120" y1="800" x2="950" y2="350" stroke="#ff0000" stroke-width="1" opacity="0.30"></line>

</svg>