<svg viewBox="0 0 1000 1000" xmlns="http://www.w3.org/2000/svg">
  <defs>
    <radialGradient id="coreGradient" cx="50%" cy="50%" r="50%">
      <stop offset="0%" style="stop-color:#e8d4c4;stop-opacity:0.9"></stop>
      <stop offset="70%" style="stop-color:#a89080;stop-opacity:0.6"></stop>
      <stop offset="100%" style="stop-color:#3d2f28;stop-opacity:0.3"></stop>
    </radialGradient>
    <radialGradient id="petalGradient" cx="40%" cy="40%" r="60%">
      <stop offset="0%" style="stop-color:#f5e6d3;stop-opacity:1"></stop>
      <stop offset="100%" style="stop-color:#6b5a52;stop-opacity:0.4"></stop>
    </radialGradient>
    <linearGradient id="voidGradient" x1="0%" y1="0%" x2="100%" y2="100%">
      <stop offset="0%" style="stop-color:#2a1f18;stop-opacity:0.8"></stop>
      <stop offset="50%" style="stop-color:#5a4a42;stop-opacity:0.5"></stop>
      <stop offset="100%" style="stop-color:#c4b5aa;stop-opacity:0.3"></stop>
    </linearGradient>
  </defs>

  
  <rect width="1000" height="1000" fill="#1a1410"></rect>

  
  <circle cx="500" cy="500" r="480" fill="none" stroke="#4a3a32" stroke-width="2" opacity="0.5"></circle>
  
  
  <g id="mainChamber">
    
    <ellipse cx="500" cy="220" rx="95" ry="140" fill="url(#petalGradient)" opacity="0.7"></ellipse>
    <ellipse cx="750" cy="310" rx="110" ry="130" fill="url(#petalGradient)" opacity="0.65"></ellipse>
    <ellipse cx="780" cy="590" rx="100" ry="135" fill="url(#petalGradient)" opacity="0.7"></ellipse>
    <ellipse cx="580" cy="800" rx="120" ry="125" fill="url(#petalGradient)" opacity="0.68"></ellipse>
    <ellipse cx="280" cy="760" rx="105" ry="140" fill="url(#petalGradient)" opacity="0.72"></ellipse>
    <ellipse cx="200" cy="480" rx="115" ry="130" fill="url(#petalGradient)" opacity="0.66"></ellipse>
    <ellipse cx="320" cy="240" rx="100" ry="125" fill="url(#petalGradient)" opacity="0.69"></ellipse>
  </g>

  
  <circle cx="500" cy="500" r="120" fill="url(#voidGradient)" opacity="0.85"></circle>
  <circle cx="500" cy="500" r="118" fill="none" stroke="#f5e6d3" stroke-width="1.5" opacity="0.4" stroke-dasharray="5,8"></circle>

  
  <g id="spiralFracture" opacity="0.7">
    
    <path d="M 500 380 Q 520 360 540 380 Q 560 400 540 420 Q 520 440 500 420 Q 480 400 500 380" fill="none" stroke="#d4c5ba" stroke-width="1.2" opacity="0.6"></path>
    <path d="M 500 350 Q 530 330 560 350 Q 590 370 560 400 Q 530 430 500 420" fill="none" stroke="#d4c5ba" stroke-width="1" opacity="0.4" stroke-dasharray="3,4"></path>
    <path d="M 500 300 Q 560 270 620 300 Q 680 330 650 400" fill="none" stroke="#b5a5a0" stroke-width="0.8" opacity="0.3"></path>
  </g>

  
  <g id="dotMatrix1">
    
    <circle cx="500" cy="280" r="2.5" fill="#f5e6d3" opacity="0.9"></circle>
    <circle cx="535" cy="295" r="2" fill="#e8d4c4" opacity="0.8"></circle>
    <circle cx="560" cy="330" r="2.5" fill="#f5e6d3" opacity="0.85"></circle>
    <circle cx="575" cy="375" r="2" fill="#d4c5ba" opacity="0.7"></circle>
    <circle cx="580" cy="420" r="2.5" fill="#f5e6d3" opacity="0.8"></circle>
    <circle cx="570" cy="465" r="2" fill="#c4b5aa" opacity="0.6"></circle>
    
    <circle cx="540" cy="500" r="1.5" fill="#a89080" opacity="0.5"></circle>
    <circle cx="500" cy="510" r="2.5" fill="#f5e6d3" opacity="0.75"></circle>
  </g>

  
  <g id="dotMatrix2">
    <circle cx="500" cy="720" r="2.5" fill="#f5e6d3" opacity="0.88"></circle>
    <circle cx="465" cy="705" r="2" fill="#e8d4c4" opacity="0.75"></circle>
    <circle cx="440" cy="670" r="2.5" fill="#f5e6d3" opacity="0.82"></circle>
    <circle cx="425" cy="625" r="2" fill="#d4c5ba" opacity="0.65"></circle>
    <circle cx="420" cy="580" r="2.5" fill="#f5e6d3" opacity="0.78"></circle>
    <circle cx="430" cy="535" r="2" fill="#c4b5aa" opacity="0.55"></circle>
    
    <circle cx="460" cy="500" r="1.5" fill="#a89080" opacity="0.45"></circle>
  </g>

  
  <g id="dotMatrix3">
    <circle cx="720" cy="500" r="2" fill="#f5e6d3" opacity="0.85"></circle>
    <circle cx="705" cy="465" r="2.2" fill="#e8d4c4" opacity="0.78"></circle>
    <circle cx="680" cy="440" r="1.8" fill="#f5e6d3" opacity="0.8"></circle>
    <circle cx="650" cy="425" r="2.1" fill="#d4c5ba" opacity="0.62"></circle>
    <circle cx="620" cy="420" r="1.9" fill="#c4b5aa" opacity="0.5"></circle>
    
    <circle cx="590" cy="430" r="1.2" fill="#8a7a72" opacity="0.35"></circle>
    <circle cx="560" cy="450" r="1.5" fill="#a89080" opacity="0.4"></circle>
  </g>

  
  <g id="dotMatrix4">
    <circle cx="280" cy="500" r="2.1" fill="#f5e6d3" opacity="0.87"></circle>
    <circle cx="295" cy="535" r="1.9" fill="#e8d4c4" opacity="0.76"></circle>
    <circle cx="320" cy="560" r="2.2" fill="#f5e6d3" opacity="0.82"></circle>
    <circle cx="350" cy="575" r="1.8" fill="#d4c5ba" opacity="0.6"></circle>
    <circle cx="380" cy="580" r="2" fill="#c4b5aa" opacity="0.48"></circle>
    
    <circle cx="410" cy="570" r="1.3" fill="#8a7a72" opacity="0.32"></circle>
  </g>

  
  <g id="petalDetail1" opacity="0.8">
    <circle cx="320" cy="240" r="3" fill="#f5e6d3" opacity="0.9"></circle>
    <circle cx="310" cy="260" r="2.5" fill="#e8d4c4" opacity="0.7"></circle>
    <circle cx="295" cy="275" r="2" fill="#f5e6d3" opacity="0.6"></circle>
    <circle cx="340" cy="255" r="2.2" fill="#d4c5ba" opacity="0.65"></circle>
    <circle cx="355" cy="240" r="2.8" fill="#f5e6d3" opacity="0.75"></circle>
    
    <path d="M 300 200 Q 320 220 330 250 Q 325 280 310 290" fill="none" stroke="#f5e6d3" stroke-width="0.8" opacity="0.5" stroke-dasharray="4,6"></path>
  </g>

  
  <g id="petalDetail2" opacity="0.75">
    <circle cx="750" cy="310" r="3.2" fill="#f5e6d3" opacity="0.88"></circle>
    <circle cx="765" cy="295" r="2.3" fill="#e8d4c4" opacity="0.68"></circle>
    <circle cx="780" cy="275" r="2.5" fill="#f5e6d3" opacity="0.7"></circle>
    <circle cx="740" cy="285" r="2" fill="#d4c5ba" opacity="0.58"></circle>
    <circle cx="725" cy="330" r="2.6" fill="#f5e6d3" opacity="0.72"></circle>
    
    <path d="M 760 250 L 750 270 L 765 280 L 755 300 L 770 310" fill="none" stroke="#c4b5aa" stroke-width="0.7" opacity="0.4"></path>
  </g>

  
  <g id="lowerChamber" opacity="0.8">
    <circle cx="580" cy="800" r="3.5" fill="#f5e6d3" opacity="0.92"></circle>
    <circle cx="565" cy="815" r="2.8" fill="#e8d4c4" opacity="0.75"></circle>
    <circle cx="545" cy="820" r="2.4" fill="#f5e6d3" opacity="0.68"></circle>
    <circle cx="600" cy="825" r="2.6" fill="#d4c5ba" opacity="0.62"></circle>
    <circle cx="620" cy="805" r="3" fill="#f5e6d3" opacity="0.8"></circle>
    <circle cx="590" cy="850" r="2.2" fill="#c4b5aa" opacity="0.55"></circle>
    
    <ellipse cx="575" cy="835" rx="8" ry="12" fill="none" stroke="#f5e6d3" stroke-width="0.6" opacity="0.35" stroke-dasharray="2,3"></ellipse>
  </g>

  
  <circle cx="500" cy="500" r="380" fill="none" stroke="#d4c5ba" stroke-width="1" opacity="0.25"></circle>
  <circle cx="500" cy="500" r="280" fill="none" stroke="#b5a5a0" stroke-width="0.8" opacity="0.2"></circle>
  <circle cx="500" cy="500" r="180" fill="none" stroke="#d4c5ba" stroke-width="0.6" opacity="0.15"></circle>

  
  <line x1="500" y1="500" x2="500" y2="100" stroke="#8a7a72" stroke-width="0.5" opacity="0.25" stroke-dasharray="8,12"></line>
  <line x1="500" y1="500" x2="850" y2="500" stroke="#8a7a72" stroke-width="0.5" opacity="0.25" stroke-dasharray="8,12"></line>
  <line x1="500" y1="500" x2="500" y2="900" stroke="#8a7a72" stroke-width="0.5" opacity="0.2" stroke-dasharray="6,10"></line>
  <line x1="500" y1="500" x2="150" y2="500" stroke="#8a7a72" stroke-width="0.5" opacity="0.2" stroke-dasharray="6,10"></line>
  <line x1="500" y1="500" x2="750" y2="250" stroke="#a89080" stroke-width="0.4" opacity="0.15" stroke-dasharray="10,14"></line>
  <line x1="500" y1="500" x2="250" y2="750" stroke="#a89080" stroke-width="0.4" opacity="0.15" stroke-dasharray="10,14"></line>

  
  <circle cx="500" cy="500" r="4" fill="#f5e6d3" opacity="0.6"></circle>
  <circle cx="500" cy="500" r="3.5" fill="#e8d4c4" opacity="0.4"></circle>
  <circle cx="500" cy="500" r="3" fill="#f5e6d3" opacity="0.2"></circle>

  
  <ellipse cx="520" cy="520" rx="35" ry="50" fill="#1a1410" opacity="0.3"></ellipse>
  <path d="M 530 480 Q 545 510 535 550 Q 520 560 510 540 Q 515 500 530 480" fill="#2a1f18" opacity="0.25"></path>

  
  <path d="M 480 450 Q 490 470 495 500 Q 492 530 485 550" fill="none" stroke="#f5e6d3" stroke-width="0.5" opacity="0.35" stroke-dasharray="3,5"></path>
  <path d="M 520 450 Q 525 480 523 510 Q 520 540 515 560" fill="none" stroke="#e8d4c4" stroke-width="0.4" opacity="0.25" stroke-dasharray="4,6"></path>
</svg>