<svg viewBox="0 0 1000 1000" xmlns="http://www.w3.org/2000/svg">
  <defs>
    <radialGradient id="grad1" cx="50%" cy="50%" r="50%">
      <stop offset="0%" style="stop-color:#f4e4c1;stop-opacity:1"></stop>
      <stop offset="100%" style="stop-color:#2a2a2a;stop-opacity:1"></stop>
    </radialGradient>
    <radialGradient id="grad2" cx="50%" cy="50%" r="50%">
      <stop offset="0%" style="stop-color:#d4956a;stop-opacity:1"></stop>
      <stop offset="100%" style="stop-color:#1a1a1a;stop-opacity:1"></stop>
    </radialGradient>
    <linearGradient id="grad3" x1="0%" y1="0%" x2="100%" y2="100%">
      <stop offset="0%" style="stop-color:#8b4513;stop-opacity:0.6"></stop>
      <stop offset="100%" style="stop-color:#3d2817;stop-opacity:1"></stop>
    </linearGradient>
  </defs>

  
  <rect width="1000" height="1000" fill="#1a1410"></rect>

  
  <circle cx="500" cy="500" r="420" fill="none" stroke="#5a4a3a" stroke-width="2" opacity="0.4"></circle>
  <circle cx="500" cy="500" r="380" fill="none" stroke="#6b5a4a" stroke-width="1.5" opacity="0.3"></circle>
  <circle cx="500" cy="500" r="340" fill="none" stroke="#7a6a5a" stroke-width="1" opacity="0.3"></circle>
  <circle cx="500" cy="500" r="300" fill="none" stroke="#8a7a6a" stroke-width="1.5" opacity="0.4"></circle>
  <circle cx="500" cy="500" r="260" fill="none" stroke="#9a8a7a" stroke-width="2" opacity="0.5"></circle>

  
  <g opacity="0.7">
    <path d="M 500 500 Q 520 490 540 510 Q 560 530 540 550 Q 520 570 500 560 Q 480 550 490 530 Q 510 510 500 500" fill="none" stroke="#c4956a" stroke-width="1.5"></path>
    <path d="M 500 500 Q 530 480 560 500 Q 590 520 560 560 Q 530 590 500 570 Q 470 550 480 520 Q 520 490 500 500" fill="none" stroke="#b4856a" stroke-width="1"></path>
    <path d="M 500 500 Q 550 470 590 510 Q 630 550 580 600 Q 530 640 480 600 Q 450 560 480 520 Q 540 470 500 500" fill="none" stroke="#a4756a" stroke-width="1" opacity="0.6"></path>
  </g>

  
  <g fill="#a4513d" opacity="0.8">
    <circle cx="450" cy="420" r="3"></circle>
    <circle cx="460" cy="415" r="2.5"></circle>
    <circle cx="470" cy="425" r="2"></circle>
    <circle cx="480" cy="418" r="2.5"></circle>
    <circle cx="490" cy="430" r="2"></circle>
    <circle cx="500" cy="425" r="3"></circle>
    <circle cx="510" cy="435" r="2"></circle>
    <circle cx="520" cy="428" r="2.5"></circle>
    <circle cx="530" cy="440" r="2"></circle>
    <circle cx="540" cy="433" r="2.5"></circle>
    <circle cx="550" cy="445" r="3"></circle>
  </g>

  
  <g fill="#d4a574" opacity="0.7">
    <circle cx="440" cy="480" r="2.5"></circle>
    <circle cx="455" cy="485" r="2"></circle>
    <circle cx="468" cy="478" r="2.5"></circle>
    <circle cx="480" cy="492" r="2"></circle>
    <circle cx="495" cy="485" r="3"></circle>
    <circle cx="510" cy="495" r="2"></circle>
    <circle cx="525" cy="488" r="2.5"></circle>
    <circle cx="538" cy="500" r="2"></circle>
    <circle cx="552" cy="495" r="2.5"></circle>
    <circle cx="565" cy="505" r="2"></circle>
  </g>

  
  <g fill="#8a5a4a" opacity="0.6">
    <circle cx="460" cy="545" r="2"></circle>
    <circle cx="475" cy="550" r="2.5"></circle>
    <circle cx="490" cy="545" r="2"></circle>
    <circle cx="505" cy="555" r="2.5"></circle>
    <circle cx="520" cy="550" r="2"></circle>
    <circle cx="535" cy="560" r="2.5"></circle>
    <circle cx="550" cy="555" r="2"></circle>
  </g>

  
  <g opacity="0.5">
    <ellipse cx="420" cy="500" rx="35" ry="55" fill="none" stroke="#c4956a" stroke-width="2"></ellipse>
    <ellipse cx="580" cy="500" rx="35" ry="55" fill="none" stroke="#c4956a" stroke-width="2"></ellipse>
    <ellipse cx="500" cy="380" rx="55" ry="35" fill="none" stroke="#b4856a" stroke-width="2"></ellipse>
    <ellipse cx="500" cy="620" rx="55" ry="35" fill="none" stroke="#b4856a" stroke-width="2"></ellipse>
  </g>

  
  <g opacity="0.6" fill="url(#grad3)">
    <polygon points="500,300 580,380 500,420 420,380" stroke="#d4956a" stroke-width="1.5" fill="none"></polygon>
    <polygon points="500,700 580,620 500,580 420,620" stroke="#d4956a" stroke-width="1.5" fill="none"></polygon>
    <polygon points="300,500 380,420 420,500 380,580" stroke="#a4756a" stroke-width="1.5" fill="none"></polygon>
    <polygon points="700,500 620,420 580,500 620,580" stroke="#a4756a" stroke-width="1.5" fill="none"></polygon>
  </g>

  
  <g stroke="#8a6a5a" stroke-width="1" opacity="0.7" fill="none">
    <line x1="500" y1="250" x2="500" y2="280"></line>
    <line x1="500" y1="720" x2="500" y2="750"></line>
    <line x1="250" y1="500" x2="280" y2="500"></line>
    <line x1="720" y1="500" x2="750" y2="500"></line>
    <line x1="320" y1="320" x2="340" y2="340"></line>
    <line x1="680" y1="680" x2="660" y2="660"></line>
    <line x1="680" y1="320" x2="660" y2="340"></line>
    <line x1="320" y1="680" x2="340" y2="660"></line>
  </g>

  
  <g fill="#e8c4a0" opacity="0.5">
    <circle cx="350" cy="400" r="1.5"></circle>
    <circle cx="365" cy="410" r="1.5"></circle>
    <circle cx="380" cy="405" r="1.5"></circle>
    <circle cx="650" cy="400" r="1.5"></circle>
    <circle cx="635" cy="410" r="1.5"></circle>
    <circle cx="620" cy="405" r="1.5"></circle>
    <circle cx="400" cy="350" r="1.5"></circle>
    <circle cx="415" cy="365" r="1.5"></circle>
    <circle cx="410" cy="380" r="1.5"></circle>
    <circle cx="600" cy="350" r="1.5"></circle>
    <circle cx="585" cy="365" r="1.5"></circle>
    <circle cx="590" cy="380" r="1.5"></circle>
  </g>

  
  <g opacity="0.4" stroke="#7a5a4a" stroke-width="1" fill="none">
    <path d="M 350 500 Q 375 495 400 500 Q 425 505 450 500"></path>
    <path d="M 550 500 Q 575 495 600 500 Q 625 505 650 500"></path>
    <path d="M 500 350 Q 495 375 500 400 Q 505 425 500 450"></path>
    <path d="M 500 550 Q 495 575 500 600 Q 505 625 500 650"></path>
  </g>

  
  <circle cx="500" cy="500" r="120" fill="none" stroke="#c4956a" stroke-width="2.5" opacity="0.6"></circle>
  <circle cx="500" cy="500" r="100" fill="none" stroke="#a4756a" stroke-width="1.5" opacity="0.5"></circle>
  <circle cx="500" cy="500" r="80" fill="none" stroke="#8a5a4a" stroke-width="1" opacity="0.4"></circle>

  
  <g fill="#6a4a3a" opacity="0.3">
    <circle cx="470" cy="470" r="1"></circle>
    <circle cx="485" cy="475" r="1"></circle>
    <circle cx="500" cy="480" r="1"></circle>
    <circle cx="515" cy="475" r="1"></circle>
    <circle cx="530" cy="470" r="1"></circle>
    <circle cx="470" cy="530" r="1"></circle>
    <circle cx="485" cy="525" r="1"></circle>
    <circle cx="500" cy="520" r="1"></circle>
    <circle cx="515" cy="525" r="1"></circle>
    <circle cx="530" cy="530" r="1"></circle>
  </g>

  
  <g opacity="0.35">
    <circle cx="500" cy="500" r="50" fill="none" stroke="#d4a574" stroke-width="1.5"></circle>
    <circle cx="500" cy="500" r="40" fill="none" stroke="#c4956a" stroke-width="1"></circle>
    <circle cx="500" cy="500" r="30" fill="none" stroke="#a4756a" stroke-width="1"></circle>
    <circle cx="500" cy="500" r="20" fill="none" stroke="#8a5a4a" stroke-width="0.5"></circle>
  </g>

  
  <g opacity="0.4" stroke="#9a7a6a" stroke-width="0.8" fill="none">
    <path d="M 600 400 Q 620 390 640 410 Q 660 430 640 450 Q 620 470 600 460"></path>
    <path d="M 400 400 Q 380 390 360 410 Q 340 430 360 450 Q 380 470 400 460"></path>
    <path d="M 600 600 Q 620 610 640 590 Q 660 570 640 550 Q 620 530 600 540"></path>
    <path d="M 400 600 Q 380 610 360 590 Q 340 570 360 550 Q 380 530 400 540"></path>
  </g>

  
  <g fill="#e8d4b8" opacity="0.25">
    <circle cx="450" cy="350" r="2"></circle>
    <circle cx="550" cy="350" r="2"></circle>
    <circle cx="450" cy="650" r="2"></circle>
    <circle cx="550" cy="650" r="2"></circle>
    <circle cx="350" cy="450" r="2"></circle>
    <circle cx="650" cy="450" r="2"></circle>
    <circle cx="350" cy="550" r="2"></circle>
    <circle cx="650" cy="550" r="2"></circle>
  </g>
</svg>