<svg viewBox="0 0 1000 1000" xmlns="http://www.w3.org/2000/svg">
  <defs>
    <linearGradient id="grad1" x1="0%" y1="0%" x2="100%" y2="100%">
      <stop offset="0%" style="stop-color:#8B7355;stop-opacity:1"></stop>
      <stop offset="50%" style="stop-color:#A0826D;stop-opacity:1"></stop>
      <stop offset="100%" style="stop-color:#6B5344;stop-opacity:1"></stop>
    </linearGradient>
    <linearGradient id="grad2" x1="0%" y1="100%" x2="100%" y2="0%">
      <stop offset="0%" style="stop-color:#C9A876;stop-opacity:1"></stop>
      <stop offset="100%" style="stop-color:#9D8B7E;stop-opacity:1"></stop>
    </linearGradient>
    <linearGradient id="grad3" x1="0%" y1="0%" x2="100%" y2="100%">
      <stop offset="0%" style="stop-color:#4A4A4A;stop-opacity:1"></stop>
      <stop offset="100%" style="stop-color:#2D2D2D;stop-opacity:0.8"></stop>
    </linearGradient>
    <radialGradient id="grad4" cx="40%" cy="40%">
      <stop offset="0%" style="stop-color:#D4AF8F;stop-opacity:1"></stop>
      <stop offset="100%" style="stop-color:#8B7355;stop-opacity:0.6"></stop>
    </radialGradient>
    <linearGradient id="grad5" x1="100%" y1="0%" x2="0%" y2="100%">
      <stop offset="0%" style="stop-color:#7A6B5D;stop-opacity:1"></stop>
      <stop offset="100%" style="stop-color:#9D8B7E;stop-opacity:0.7"></stop>
    </linearGradient>
  </defs>
  
  
  <rect width="1000" height="1000" fill="#F5F1E8"></rect>
  
  
  <path d="M 0 0 L 1000 1000" stroke="#4A4A4A" stroke-width="8" opacity="0.4"></path>
  
  
  <rect x="80" y="60" width="280" height="180" fill="url(#grad1)" stroke="#3D3D3D" stroke-width="2"></rect>
  <rect x="100" y="85" width="240" height="140" fill="#A0826D" opacity="0.6" stroke="none"></rect>
  
  
  <circle cx="150" cy="140" r="95" fill="url(#grad4)" stroke="#2D2D2D" stroke-width="3" opacity="0.85"></circle>
  <circle cx="165" cy="160" r="60" fill="#8B7355" opacity="0.5"></circle>
  
  
  <rect x="350" y="300" width="320" height="200" fill="url(#grad2)" stroke="#4A4A4A" stroke-width="2"></rect>
  <rect x="380" y="320" width="280" height="160" fill="#C9A876" opacity="0.4" stroke="none"></rect>
  <rect x="410" y="340" width="240" height="120" fill="url(#grad3)" opacity="0.6" stroke="#2D2D2D" stroke-width="1"></rect>
  
  
  <circle cx="500" cy="350" r="75" fill="none" stroke="#3D3D3D" stroke-width="4"></circle>
  <circle cx="510" cy="360" r="50" fill="#9D8B7E" opacity="0.7"></circle>
  
  
  <rect x="650" y="520" width="300" height="380" fill="url(#grad5)" stroke="#2D2D2D" stroke-width="3"></rect>
  <rect x="670" y="540" width="260" height="340" fill="#8B7355" opacity="0.5"></rect>
  
  
  <circle cx="700" cy="580" r="110" fill="url(#grad1)" stroke="#4A4A4A" stroke-width="2" opacity="0.8"></circle>
  <circle cx="730" cy="610" r="75" fill="#A0826D" opacity="0.6"></circle>
  <circle cx="800" cy="690" r="85" fill="url(#grad4)" opacity="0.7" stroke="#3D3D3D" stroke-width="2"></circle>
  
  
  <rect x="450" y="150" width="200" height="40" fill="#7A6B5D" stroke="#2D2D2D" stroke-width="2" opacity="0.8" transform="rotate(-25 550 170)"></rect>
  <rect x="520" y="680" width="180" height="35" fill="#9D8B7E" stroke="#4A4A4A" stroke-width="2" opacity="0.7" transform="rotate(35 610 697)"></rect>
  
  
  <rect x="220" y="450" width="140" height="80" fill="#C9A876" stroke="#3D3D3D" stroke-width="2" opacity="0.75"></rect>
  <rect x="240" y="470" width="100" height="50" fill="#8B7355" opacity="0.5"></rect>
  
  
  <circle cx="300" cy="500" r="55" fill="none" stroke="#7A6B5D" stroke-width="3" opacity="0.6"></circle>
  <circle cx="310" cy="510" r="35" fill="#D4AF8F" opacity="0.5"></circle>
  
  
  <rect x="750" y="80" width="200" height="140" fill="url(#grad2)" stroke="#2D2D2D" stroke-width="2"></rect>
  <rect x="770" y="100" width="160" height="100" fill="#A0826D" opacity="0.5"></rect>
  <circle cx="850" cy="130" r="50" fill="#9D8B7E" opacity="0.6" stroke="#3D3D3D" stroke-width="1"></circle>
  
  
  <rect x="0" y="700" width="1000" height="120" fill="url(#grad5)" opacity="0.4" stroke="none"></rect>
  
  
  <circle cx="200" cy="750" r="60" fill="#8B7355" stroke="#4A4A4A" stroke-width="2" opacity="0.7"></circle>
  <circle cx="320" cy="850" r="70" fill="url(#grad1)" stroke="#2D2D2D" stroke-width="2"></circle>
  <circle cx="450" cy="920" r="45" fill="#C9A876" opacity="0.6"></circle>
  
  
  <line x1="600" y1="0" x2="620" y2="1000" stroke="#4A4A4A" stroke-width="3" opacity="0.3"></line>
  
  
  <rect x="50" y="850" width="110" height="100" fill="#9D8B7E" stroke="#3D3D3D" stroke-width="2" opacity="0.6"></rect>
  <circle cx="105" cy="900" r="40" fill="url(#grad4)" opacity="0.5"></circle>
  
  
  <ellipse cx="550" cy="520" rx="120" ry="90" fill="#7A6B5D" opacity="0.3" stroke="none"></ellipse>
  
  
  <rect x="920" y="200" width="60" height="85" fill="#A0826D" stroke="#4A4A4A" stroke-width="1" opacity="0.7"></rect>
  <rect x="880" y="350" width="75" height="55" fill="#C9A876" stroke="#3D3D3D" stroke-width="2" opacity="0.65"></rect>
  
  
  <circle cx="400" cy="100" r="65" fill="url(#grad2)" opacity="0.6" stroke="#2D2D2D" stroke-width="2"></circle>
  <circle cx="420" cy="115" r="40" fill="#9D8B7E" opacity="0.5"></circle>
  
  
  <circle cx="250" cy="600" r="80" fill="url(#grad1)" stroke="#4A4A4A" stroke-width="2" opacity="0.75"></circle>
  <circle cx="270" cy="620" r="55" fill="#8B7355" opacity="0.5"></circle>
</svg>