<svg viewBox="0 0 1000 1000" xmlns="http://www.w3.org/2000/svg">
  <defs>
    <radialGradient id="glow1" cx="50%" cy="50%" r="50%">
      <stop offset="0%" style="stop-color:#f5e6d3;stop-opacity:1"></stop>
      <stop offset="100%" style="stop-color:#2a2a2a;stop-opacity:0.1"></stop>
    </radialGradient>
    <radialGradient id="glow2" cx="50%" cy="50%" r="50%">
      <stop offset="0%" style="stop-color:#d4c5b9;stop-opacity:0.8"></stop>
      <stop offset="100%" style="stop-color:#1a1a1a;stop-opacity:0.3"></stop>
    </radialGradient>
    <linearGradient id="shimmer" x1="0%" y1="0%" x2="100%" y2="100%">
      <stop offset="0%" style="stop-color:#e8dcc8;stop-opacity:0.6"></stop>
      <stop offset="50%" style="stop-color:#c9b8a8;stop-opacity:0.4"></stop>
      <stop offset="100%" style="stop-color:#3d3d3d;stop-opacity:0.2"></stop>
    </linearGradient>
  </defs>

  
  <rect width="1000" height="1000" fill="#1f1f1f"></rect>

  
  <circle cx="500" cy="500" r="380" fill="none" stroke="#4a4a4a" stroke-width="1.5" opacity="0.4"></circle>
  
  
  <g stroke="#8b8b7a" stroke-width="1.2" fill="none">
    <circle cx="500" cy="500" r="360" opacity="0.3"></circle>
  </g>

  
  <g id="petal1">
    <ellipse cx="500" cy="280" rx="45" ry="65" fill="#2a2a2a" opacity="0.7"></ellipse>
    <circle cx="500" cy="250" r="2" fill="#e8dcc8"></circle>
    <circle cx="505" cy="260" r="1.8" fill="#d4c5b9"></circle>
    <circle cx="510" cy="275" r="1.5" fill="#e8dcc8" opacity="0.7"></circle>
    <circle cx="495" cy="265" r="1.6" fill="#d4c5b9" opacity="0.8"></circle>
    <circle cx="500" cy="290" r="1.4" fill="#b8a89a"></circle>
    <circle cx="515" cy="285" r="1.7" fill="#e8dcc8" opacity="0.6"></circle>
    <circle cx="485" cy="280" r="1.5" fill="#d4c5b9"></circle>
  </g>

  
  <g id="petal2">
    <ellipse cx="680" cy="340" rx="55" ry="60" fill="#2a2a2a" opacity="0.7" transform="rotate(45 680 340)"></ellipse>
    <circle cx="700" cy="330" r="2" fill="#e8dcc8"></circle>
    <circle cx="710" cy="345" r="1.8" fill="#d4c5b9" opacity="0.8"></circle>
    <circle cx="715" cy="360" r="1.5" fill="#e8dcc8" opacity="0.6"></circle>
    <circle cx="690" cy="355" r="1.6" fill="#d4c5b9"></circle>
    <circle cx="685" cy="325" r="1.4" fill="#b8a89a"></circle>
    <circle cx="720" cy="340" r="1.7" fill="#e8dcc8" opacity="0.7"></circle>
    <circle cx="675" cy="350" r="1.5" fill="#d4c5b9" opacity="0.7"></circle>
  </g>

  
  <g id="petal3">
    <ellipse cx="720" cy="500" rx="65" ry="50" fill="#2a2a2a" opacity="0.7"></ellipse>
    <circle cx="755" cy="505" r="2" fill="#e8dcc8"></circle>
    <circle cx="745" cy="515" r="1.8" fill="#d4c5b9" opacity="0.8"></circle>
    <circle cx="740" cy="530" r="1.5" fill="#e8dcc8" opacity="0.6"></circle>
    <circle cx="765" cy="490" r="1.6" fill="#d4c5b9"></circle>
    <circle cx="730" cy="485" r="1.4" fill="#b8a89a"></circle>
    <circle cx="755" cy="470" r="1.7" fill="#e8dcc8" opacity="0.7"></circle>
    <circle cx="720" cy="520" r="1.5" fill="#d4c5b9" opacity="0.7"></circle>
  </g>

  
  <g id="petal4">
    <ellipse cx="680" cy="660" rx="55" ry="60" fill="#2a2a2a" opacity="0.7" transform="rotate(-45 680 660)"></ellipse>
    <circle cx="700" cy="670" r="2" fill="#e8dcc8"></circle>
    <circle cx="710" cy="655" r="1.8" fill="#d4c5b9" opacity="0.8"></circle>
    <circle cx="715" cy="640" r="1.5" fill="#e8dcc8" opacity="0.6"></circle>
    <circle cx="690" cy="645" r="1.6" fill="#d4c5b9"></circle>
    <circle cx="685" cy="675" r="1.4" fill="#b8a89a"></circle>
    <circle cx="720" cy="660" r="1.7" fill="#e8dcc8" opacity="0.7"></circle>
    <circle cx="675" cy="650" r="1.5" fill="#d4c5b9" opacity="0.7"></circle>
  </g>

  
  <g id="petal5">
    <ellipse cx="500" cy="720" rx="45" ry="65" fill="#2a2a2a" opacity="0.7"></ellipse>
    <circle cx="500" cy="750" r="2" fill="#e8dcc8"></circle>
    <circle cx="505" cy="740" r="1.8" fill="#d4c5b9"></circle>
    <circle cx="510" cy="725" r="1.5" fill="#e8dcc8" opacity="0.7"></circle>
    <circle cx="495" cy="735" r="1.6" fill="#d4c5b9" opacity="0.8"></circle>
    <circle cx="500" cy="710" r="1.4" fill="#b8a89a"></circle>
    <circle cx="515" cy="715" r="1.7" fill="#e8dcc8" opacity="0.6"></circle>
    <circle cx="485" cy="720" r="1.5" fill="#d4c5b9"></circle>
  </g>

  
  <g id="petal6">
    <ellipse cx="320" cy="660" rx="55" ry="60" fill="#2a2a2a" opacity="0.7" transform="rotate(45 320 660)"></ellipse>
    <circle cx="300" cy="670" r="2" fill="#e8dcc8"></circle>
    <circle cx="290" cy="655" r="1.8" fill="#d4c5b9" opacity="0.8"></circle>
    <circle cx="285" cy="640" r="1.5" fill="#e8dcc8" opacity="0.6"></circle>
    <circle cx="310" cy="645" r="1.6" fill="#d4c5b9"></circle>
    <circle cx="315" cy="675" r="1.4" fill="#b8a89a"></circle>
    <circle cx="280" cy="660" r="1.7" fill="#e8dcc8" opacity="0.7"></circle>
    <circle cx="325" cy="650" r="1.5" fill="#d4c5b9" opacity="0.7"></circle>
  </g>

  
  <g id="petal7">
    <ellipse cx="280" cy="500" rx="65" ry="50" fill="#2a2a2a" opacity="0.7"></ellipse>
    <circle cx="245" cy="505" r="2" fill="#e8dcc8"></circle>
    <circle cx="255" cy="515" r="1.8" fill="#d4c5b9" opacity="0.8"></circle>
    <circle cx="260" cy="530" r="1.5" fill="#e8dcc8" opacity="0.6"></circle>
    <circle cx="235" cy="490" r="1.6" fill="#d4c5b9"></circle>
    <circle cx="270" cy="485" r="1.4" fill="#b8a89a"></circle>
    <circle cx="245" cy="470" r="1.7" fill="#e8dcc8" opacity="0.7"></circle>
    <circle cx="280" cy="520" r="1.5" fill="#d4c5b9" opacity="0.7"></circle>
  </g>

  
  <g id="petal8">
    <ellipse cx="320" cy="340" rx="55" ry="60" fill="#2a2a2a" opacity="0.7" transform="rotate(-45 320 340)"></ellipse>
    <circle cx="300" cy="330" r="2" fill="#e8dcc8"></circle>
    <circle cx="290" cy="345" r="1.8" fill="#d4c5b9" opacity="0.8"></circle>
    <circle cx="285" cy="360" r="1.5" fill="#e8dcc8" opacity="0.6"></circle>
    <circle cx="310" cy="355" r="1.6" fill="#d4c5b9"></circle>
    <circle cx="315" cy="325" r="1.4" fill="#b8a89a"></circle>
    <circle cx="280" cy="340" r="1.7" fill="#e8dcc8" opacity="0.7"></circle>
    <circle cx="325" cy="350" r="1.5" fill="#d4c5b9" opacity="0.7"></circle>
  </g>

  
  <circle cx="500" cy="500" r="240" fill="none" stroke="#5a5a4a" stroke-width="1" opacity="0.3"></circle>
  <circle cx="500" cy="500" r="180" fill="none" stroke="#6a6a5a" stroke-width="1.2" opacity="0.35"></circle>

  
  <circle cx="500" cy="500" r="3" fill="#e8dcc8" opacity="0.8"></circle>
  <circle cx="502" cy="498" r="2.2" fill="#d4c5b9" opacity="0.6"></circle>
  <circle cx="497" cy="503" r="1.8" fill="#b8a89a" opacity="0.5"></circle>
  <circle cx="505" cy="505" r="1.5" fill="#e8dcc8" opacity="0.4"></circle>

  
  <g opacity="0.6">
    <circle cx="500" cy="420" r="1.2" fill="#d4c5b9"></circle>
    <circle cx="510" cy="425" r="1" fill="#e8dcc8" opacity="0.7"></circle>
    <circle cx="520" cy="430" r="1.3" fill="#b8a89a"></circle>
    <circle cx="490" cy="415" r="1.1" fill="#d4c5b9"></circle>
    <circle cx="530" cy="440" r="0.9" fill="#e8dcc8" opacity="0.5"></circle>
    <circle cx="485" cy="425" r="1.2" fill="#b8a89a" opacity="0.6"></circle>
  </g>

  
  <g opacity="0.5">
    <circle cx="580" cy="500" r="1.2" fill="#d4c5b9"></circle>
    <circle cx="575" cy="510" r="1" fill="#e8dcc8" opacity="0.7"></circle>
    <circle cx="570" cy="520" r="1.3" fill="#b8a89a"></circle>
    <circle cx="590" cy="490" r="1.1" fill="#d4c5b9"></circle>
    <circle cx="560" cy="530" r="0.9" fill="#e8dcc8" opacity="0.5"></circle>
    <circle cx="595" cy="510" r="1.2" fill="#b8a89a" opacity="0.6"></circle>
  </g>

  
  <g opacity="0.5">
    <circle cx="500" cy="580" r="1.2" fill="#d4c5b9"></circle>
    <circle cx="490" cy="575" r="1" fill="#e8dcc8" opacity="0.7"></circle>
    <circle cx="480" cy="570" r="1.3" fill="#b8a89a"></circle>
    <circle cx="510" cy="585" r="1.1" fill="#d4c5b9"></circle>
    <circle cx="470" cy="560" r="0.9" fill="#e8dcc8" opacity="0.5"></circle>
    <circle cx="515" cy="575" r="1.2" fill="#b8a89a" opacity="0.6"></circle>
  </g>

  
  <g opacity="0.6">
    <circle cx="420" cy="500" r="1.2" fill="#d4c5b9"></circle>
    <circle cx="425" cy="510" r="1" fill="#e8dcc8" opacity="0.7"></circle>
    <circle cx="430" cy="520" r="1.3" fill="#b8a89a"></circle>
    <circle cx="410" cy="490" r="1.1" fill="#d4c5b9"></circle>
    <circle cx="440" cy="530" r="0.9" fill="#e8dcc8" opacity="0.5"></circle>
    <circle cx="405" cy="510" r="1.2" fill="#b8a89a" opacity="0.6"></circle>
  </g>

  
  <line x1="500" y1="500" x2="500" y2="120" stroke="#4a4a3a" stroke-width="0.8" opacity="0.25"></line>
  <line x1="500" y1="500" x2="735" y2="265" stroke="#4a4a3a" stroke-width="0.8" opacity="0.25"></line>
  <line x1="500" y1="500" x2="880" y2="500" stroke="#4a4a3a" stroke-width="0.8" opacity="0.25"></line>
  <line x1="500" y1="500" x2="735" y2="735" stroke="#4a4a3a" stroke-width="0.8" opacity="0.25"></line>
  <line x1="500" y1="500" x2="500" y2="880" stroke="#4a4a3a" stroke-width="0.8" opacity="0.25"></line>
  <line x1="500" y1="500" x2="265" y2="735" stroke="#4a4a3a" stroke-width="0.8" opacity="0.25"></line>
  <line x1="500" y1="500" x2="120" y2="500" stroke="#4a4a3a" stroke-width="0.8" opacity="0.25"></line>
  <line x1="500" y1="500" x2="265" y2="265" stroke="#4a4a3a" stroke-width="0.8" opacity="0.25"></line>

  
  <circle cx="500" cy="380" r="1.5" fill="#e8dcc8" opacity="0.7"></circle>
  <circle cx="580" cy="420" r="1.2" fill="#d4c5b9" opacity="0.6"></circle>
  <circle cx="620" cy="380" r="1.3" fill="#b8a89a" opacity="0.5"></circle>
  <circle cx="620" cy="620" r="1.5" fill="#e8dcc8" opacity="0.6"></circle>
  <circle cx="580" cy="580" r="1.2" fill="#d4c5b9" opacity="0.5"></circle>
  <circle cx="500" cy="620" r="1.3" fill="#b8a89a" opacity="0.6"></circle>
  <circle cx="420" cy="580" r="1.5" fill="#e8dcc8" opacity="0.5"></circle>
  <circle cx="380" cy="620" r="1.2" fill="#d4c5b9" opacity="0.6"></circle>
  <circle cx="380" cy="380" r="1.3" fill="#b8a89a" opacity="0.5"></circle>
  <circle cx="420" cy="420" r="1.5" fill="#e8dcc8" opacity="0.6"></circle>

  
  <circle cx="500" cy="500" r="350" fill="url(#glow1)" opacity="0.15"></circle>
  <circle cx="500" cy="500" r="200" fill="url(#glow2)" opacity="0.08"></circle>

  
  <path d="M 350 350 Q 400 380 450 400 T 550 450 T 650 500 T 650 650 Q 600 680 550 650 T 450 600 T 350 550" stroke="url(#shimmer)" stroke-width="0.5" fill="none" opacity="0.3"></path>

  
  <circle cx="500" cy="500" r="120" fill="none" stroke="#7a7a6a" stroke-width="0.6" opacity="0.2"></circle>
  <circle cx="500" cy="500" r="80" fill="none" stroke="#8a8a7a" stroke-width="0.5" opacity="0.15"></circle>
  <circle cx="500" cy="500" r="40" fill="none" stroke="#9a9a8a" stroke-width="0.4" opacity="0.1"></circle>
</svg>