<svg viewBox="0 0 1000 1000" xmlns="http://www.w3.org/2000/svg">
  <defs>
    <linearGradient id="redBleed" x1="0%" y1="0%" x2="100%" y2="100%">
      <stop offset="0%" style="stop-color:#2a2a2a;stop-opacity:1"></stop>
      <stop offset="40%" style="stop-color:#8b4513;stop-opacity:1"></stop>
      <stop offset="70%" style="stop-color:#d32f2f;stop-opacity:1"></stop>
      <stop offset="100%" style="stop-color:#8b0000;stop-opacity:1"></stop>
    </linearGradient>
  </defs>
  
  
  <rect width="1000" height="1000" fill="#e8dcc8"></rect>
  
  
  <g id="cellGrid">
    
    <rect x="20" y="20" width="180" height="180" fill="#a89968" stroke="#7a6e52" stroke-width="2"></rect>
    <rect x="220" y="20" width="180" height="180" fill="#9b8f5f" stroke="#6b6645" stroke-width="2"></rect>
    <rect x="420" y="20" width="180" height="180" fill="#a89968" stroke="#7a6e52" stroke-width="2"></rect>
    <rect x="620" y="20" width="180" height="180" fill="#8a7e4f" stroke="#5a5635" stroke-width="2"></rect>
    <rect x="800" y="20" width="180" height="180" fill="#9b8f5f" stroke="#6b6645" stroke-width="2"></rect>
    
    
    <rect x="20" y="220" width="180" height="180" fill="#9b8f5f" stroke="#6b6645" stroke-width="2"></rect>
    <rect x="220" y="220" width="180" height="180" fill="#a89968" stroke="#7a6e52" stroke-width="2"></rect>
    <rect x="420" y="220" width="180" height="180" fill="#8a7e4f" stroke="#5a5635" stroke-width="2"></rect>
    <rect x="620" y="220" width="180" height="180" fill="#a89968" stroke="#7a6e52" stroke-width="2"></rect>
    <rect x="800" y="220" width="180" height="180" fill="#9b8f5f" stroke="#6b6645" stroke-width="2"></rect>
    
    
    <rect x="20" y="420" width="180" height="180" fill="#8a7e4f" stroke="#5a5635" stroke-width="2"></rect>
    <rect x="220" y="420" width="180" height="180" fill="#9b8f5f" stroke="#6b6645" stroke-width="2"></rect>
    <rect x="420" y="420" width="180" height="180" fill="#a89968" stroke="#7a6e52" stroke-width="2"></rect>
    <rect x="620" y="420" width="180" height="180" fill="#8a7e4f" stroke="#5a5635" stroke-width="2"></rect>
    <rect x="800" y="420" width="180" height="180" fill="#a89968" stroke="#7a6e52" stroke-width="2"></rect>
    
    
    <rect x="20" y="620" width="180" height="180" fill="#a89968" stroke="#7a6e52" stroke-width="2"></rect>
    <rect x="220" y="620" width="180" height="180" fill="#8a7e4f" stroke="#5a5635" stroke-width="2"></rect>
    <rect x="420" y="620" width="180" height="180" fill="#9b8f5f" stroke="#6b6645" stroke-width="2"></rect>
    <rect x="620" y="620" width="180" height="180" fill="#a89968" stroke="#7a6e52" stroke-width="2"></rect>
    <rect x="800" y="620" width="180" height="180" fill="#8a7e4f" stroke="#5a5635" stroke-width="2"></rect>
    
    
    <rect x="20" y="800" width="180" height="180" fill="#9b8f5f" stroke="#6b6645" stroke-width="2"></rect>
    <rect x="220" y="800" width="180" height="180" fill="#a89968" stroke="#7a6e52" stroke-width="2"></rect>
    <rect x="420" y="800" width="180" height="180" fill="#8a7e4f" stroke="#5a5635" stroke-width="2"></rect>
    <rect x="620" y="800" width="180" height="180" fill="#9b8f5f" stroke="#6b6645" stroke-width="2"></rect>
    <rect x="800" y="800" width="180" height="180" fill="#a89968" stroke="#7a6e52" stroke-width="2"></rect>
  </g>
  
  
  <g id="dotFields" fill="#5a5635" opacity="0.7">
    
    <circle cx="45" cy="45" r="3"></circle>
    <circle cx="85" cy="65" r="2.5"></circle>
    <circle cx="125" cy="55" r="3"></circle>
    <circle cx="65" cy="105" r="2.5"></circle>
    <circle cx="155" cy="115" r="3"></circle>
    <circle cx="105" cy="155" r="2.5"></circle>
    <circle cx="45" cy="175" r="3"></circle>
    <circle cx="165" cy="75" r="2.5"></circle>
    <circle cx="75" cy="185" r="2.5"></circle>
    
    
    <circle cx="245" cy="55" r="3"></circle>
    <circle cx="285" cy="75" r="2.5"></circle>
    <circle cx="325" cy="45" r="3"></circle>
    <circle cx="265" cy="115" r="2.5"></circle>
    <circle cx="355" cy="125" r="3"></circle>
    <circle cx="305" cy="165" r="2.5"></circle>
    <circle cx="245" cy="185" r="3"></circle>
    <circle cx="365" cy="85" r="2.5"></circle>
    <circle cx="275" cy="195" r="2.5"></circle>
    
    
    <circle cx="445" cy="55" r="3"></circle>
    <circle cx="485" cy="75" r="2.5"></circle>
    <circle cx="525" cy="45" r="3"></circle>
    <circle cx="465" cy="115" r="2.5"></circle>
    <circle cx="555" cy="125" r="3"></circle>
    <circle cx="505" cy="165" r="2.5"></circle>
    <circle cx="445" cy="185" r="3"></circle>
    <circle cx="565" cy="85" r="2.5"></circle>
    <circle cx="475" cy="195" r="2.5"></circle>
    
    
    <circle cx="645" cy="55" r="3"></circle>
    <circle cx="685" cy="75" r="2.5"></circle>
    <circle cx="725" cy="45" r="3"></circle>
    <circle cx="665" cy="115" r="2.5"></circle>
    <circle cx="755" cy="125" r="3"></circle>
    <circle cx="705" cy="165" r="2.5"></circle>
    <circle cx="645" cy="185" r="3"></circle>
    <circle cx="765" cy="85" r="2.5"></circle>
    <circle cx="675" cy="195" r="2.5"></circle>
    
    
    <circle cx="825" cy="55" r="3"></circle>
    <circle cx="865" cy="75" r="2.5"></circle>
    <circle cx="905" cy="45" r="3"></circle>
    <circle cx="845" cy="115" r="2.5"></circle>
    <circle cx="935" cy="125" r="3"></circle>
    <circle cx="885" cy="165" r="2.5"></circle>
    <circle cx="825" cy="185" r="3"></circle>
    <circle cx="945" cy="85" r="2.5"></circle>
    <circle cx="855" cy="195" r="2.5"></circle>
    
    
    <circle cx="45" cy="245" r="3"></circle>
    <circle cx="85" cy="265" r="2.5"></circle>
    <circle cx="125" cy="255" r="3"></circle>
    <circle cx="65" cy="305" r="2.5"></circle>
    <circle cx="155" cy="315" r="3"></circle>
    <circle cx="105" cy="355" r="2.5"></circle>
    <circle cx="45" cy="375" r="3"></circle>
    <circle cx="165" cy="275" r="2.5"></circle>
    <circle cx="75" cy="385" r="2.5"></circle>
    
    
    <circle cx="245" cy="255" r="3"></circle>
    <circle cx="285" cy="275" r="2.5"></circle>
    <circle cx="325" cy="245" r="3"></circle>
    <circle cx="265" cy="315" r="2.5"></circle>
    <circle cx="355" cy="325" r="3"></circle>
    <circle cx="305" cy="365" r="2.5"></circle>
    <circle cx="245" cy="385" r="3"></circle>
    <circle cx="365" cy="285" r="2.5"></circle>
    <circle cx="275" cy="395" r="2.5"></circle>
    
    
    <circle cx="445" cy="255" r="3"></circle>
    <circle cx="485" cy="275" r="2.5"></circle>
    <circle cx="525" cy="245" r="3"></circle>
    <circle cx="465" cy="315" r="2.5"></circle>
    <circle cx="555" cy="325" r="3"></circle>
    <circle cx="505" cy="365" r="2.5"></circle>
    <circle cx="445" cy="385" r="3"></circle>
    <circle cx="565" cy="285" r="2.5"></circle>
    <circle cx="475" cy="395" r="2.5"></circle>
    
    
    <circle cx="645" cy="255" r="3"></circle>
    <circle cx="685" cy="275" r="2.5"></circle>
    <circle cx="725" cy="245" r="3"></circle>
    <circle cx="665" cy="315" r="2.5"></circle>
    <circle cx="755" cy="325" r="3"></circle>
    <circle cx="705" cy="365" r="2.5"></circle>
    <circle cx="645" cy="385" r="3"></circle>
    <circle cx="765" cy="285" r="2.5"></circle>
    <circle cx="675" cy="395" r="2.5"></circle>
    
    
    <circle cx="825" cy="255" r="3"></circle>
    <circle cx="865" cy="275" r="2.5"></circle>
    <circle cx="905" cy="245" r="3"></circle>
    <circle cx="845" cy="315" r="2.5"></circle>
    <circle cx="935" cy="325" r="3"></circle>
    <circle cx="885" cy="365" r="2.5"></circle>
    <circle cx="825" cy="385" r="3"></circle>
    <circle cx="945" cy="285" r="2.5"></circle>
    <circle cx="855" cy="395" r="2.5"></circle>
  </g>
  
  
  <path d="M 200 0 L 1000 800 L 1000 1000 L 0 1000 Z" fill="url(#redBleed)" opacity="0.85"></path>
  
  
  <g id="chaosDots" fill="#d32f2f" opacity="0.6">
    <circle cx="350" cy="250" r="4"></circle>
    <circle cx="420" cy="380" r="3.5"></circle>
    <circle cx="520" cy="450" r="4.5"></circle>
    <circle cx="650" cy="520" r="3.5"></circle>
    <circle cx="750" cy="600" r="4"></circle>
    <circle cx="850" cy="680" r="4.5"></circle>
    <circle cx="920" cy="750" r="3.5"></circle>
    <circle cx="450" cy="550" r="4"></circle>
    <circle cx="700" cy="380" r="3.5"></circle>
    <circle cx="800" cy="700" r="4"></circle>
  </g>
  
  
  <g id="breathingLines" stroke="#2a2a2a" stroke-width="1" opacity="0.3">
    <path d="M 300 150 Q 350 160 400 150"></path>
    <path d="M 600 500 Q 650 510 700 500"></path>
    <path d="M 200 700 Q 250 720 300 700"></path>
    <path d="M 750 250 Q 800 260 850 250"></path>
    <path d="M 400 850 Q 450 860 500 850"></path>
  </g>
</svg>