<svg viewBox="0 0 1000 1000" xmlns="http://www.w3.org/2000/svg">
  <defs>
    <linearGradient id="voidGrad" x1="0%" y1="0%" x2="100%" y2="100%">
      <stop offset="0%" style="stop-color:#0a0a0a;stop-opacity:1"></stop>
      <stop offset="100%" style="stop-color:#1a0f0f;stop-opacity:1"></stop>
    </linearGradient>
    <radialGradient id="rustCore" cx="50%" cy="50%" r="50%">
      <stop offset="0%" style="stop-color:#d4a574;stop-opacity:1"></stop>
      <stop offset="40%" style="stop-color:#8b5a3c;stop-opacity:1"></stop>
      <stop offset="100%" style="stop-color:#2a1810;stop-opacity:1"></stop>
    </radialGradient>
    <radialGradient id="amberHalo" cx="45%" cy="45%" r="65%">
      <stop offset="0%" style="stop-color:#c9814d;stop-opacity:0.8"></stop>
      <stop offset="60%" style="stop-color:#6b3e1f;stop-opacity:0.3"></stop>
      <stop offset="100%" style="stop-color:#1a0a05;stop-opacity:0"></stop>
    </radialGradient>
  </defs>
  
  
  <rect width="1000" height="1000" fill="url(#voidGrad)"></rect>
  
  
  <g opacity="0.6">
    <path d="M 150 200 Q 180 150 220 180 Q 210 220 180 240 Q 140 220 150 200" fill="none" stroke="#4a3020" stroke-width="2"></path>
    <path d="M 140 280 L 120 350 L 160 370 L 180 300 Z" fill="#3d2817" opacity="0.4"></path>
    <circle cx="130" cy="320" r="8" fill="#c9814d" opacity="0.7"></circle>
    <circle cx="155" cy="340" r="6" fill="#8b5a3c" opacity="0.6"></circle>
    <circle cx="145" cy="290" r="5" fill="#d4a574" opacity="0.5"></circle>
  </g>
  
  
  <g opacity="0.55">
    <path d="M 820 180 Q 850 140 880 200 Q 860 260 820 270 Q 780 240 820 180" fill="none" stroke="#4a3020" stroke-width="2.5"></path>
    <polygon points="850,150 900,140 920,220 880,240" fill="#2a1810" opacity="0.3"></polygon>
    <circle cx="870" cy="180" r="7" fill="#c9814d" opacity="0.6"></circle>
    <circle cx="895" cy="210" r="6" fill="#a67c52" opacity="0.5"></circle>
    <circle cx="860" cy="230" r="5" fill="#8b5a3c" opacity="0.4"></circle>
  </g>
  
  
  <circle cx="500" cy="500" r="180" fill="url(#rustCore)"></circle>
  <circle cx="500" cy="500" r="180" fill="none" stroke="#6b3e1f" stroke-width="3" opacity="0.7"></circle>
  
  
  <path d="M 500 320 Q 480 280 520 250 Q 560 280 540 320 Z" fill="#0a0a0a" opacity="0.8"></path>
  <path d="M 680 500 Q 720 480 750 520 Q 720 560 680 540 Z" fill="#0a0a0a" opacity="0.75"></path>
  <path d="M 500 680 Q 520 720 480 750 Q 440 720 460 680 Z" fill="#0a0a0a" opacity="0.8"></path>
  <path d="M 320 500 Q 280 520 250 480 Q 280 440 320 460 Z" fill="#0a0a0a" opacity="0.78"></path>
  
  
  <g id="dotMatrix1">
    <circle cx="420" cy="380" r="3" fill="#d4a574" opacity="0.9"></circle>
    <circle cx="435" cy="395" r="2.5" fill="#c9814d" opacity="0.8"></circle>
    <circle cx="450" cy="410" r="2" fill="#a67c52" opacity="0.7"></circle>
    <circle cx="465" cy="425" r="2.5" fill="#8b5a3c" opacity="0.6"></circle>
    <circle cx="480" cy="440" r="3" fill="#6b3e1f" opacity="0.5"></circle>
  </g>
  
  <g id="dotMatrix2">
    <circle cx="580" cy="420" r="2.5" fill="#d4a574" opacity="0.85"></circle>
    <circle cx="600" cy="410" r="2" fill="#c9814d" opacity="0.75"></circle>
    <circle cx="620" cy="395" r="3" fill="#a67c52" opacity="0.65"></circle>
    <circle cx="635" cy="375" r="2.5" fill="#8b5a3c" opacity="0.55"></circle>
  </g>
  
  
  <path d="M 350 450 L 300 470 L 290 510 L 310 530 L 360 480 Z" fill="#1a0f0f" opacity="0.6"></path>
  <path d="M 650 520 L 700 500 L 710 470 L 690 450 L 640 490 Z" fill="#1a0f0f" opacity="0.65"></path>
  
  
  <g opacity="0.7">
    <line x1="400" y1="300" x2="420" y2="280" stroke="#8b5a3c" stroke-width="1.5"></line>
    <line x1="420" y1="280" x2="445" y2="295" stroke="#a67c52" stroke-width="1.5"></line>
    <line x1="445" y1="295" x2="430" y2="320" stroke="#8b5a3c" stroke-width="1.5"></line>
    <circle cx="420" cy="298" r="2" fill="#c9814d" opacity="0.8"></circle>
  </g>
  
  <g opacity="0.65">
    <line x1="600" y1="280" x2="630" y2="260" stroke="#8b5a3c" stroke-width="1.5"></line>
    <line x1="630" y1="260" x2="655" y2="280" stroke="#a67c52" stroke-width="1.5"></line>
    <line x1="655" y1="280" x2="635" y2="310" stroke="#8b5a3c" stroke-width="1.5"></line>
    <circle cx="630" cy="283" r="2" fill="#d4a574" opacity="0.75"></circle>
  </g>
  
  
  <g opacity="0.68">
    <line x1="380" y1="650" x2="360" y2="690" stroke="#8b5a3c" stroke-width="1.5"></line>
    <line x1="360" y1="690" x2="390" y2="715" stroke="#a67c52" stroke-width="1.5"></line>
    <line x1="390" y1="715" x2="415" y2="690" stroke="#8b5a3c" stroke-width="1.5"></line>
    <circle cx="380" cy="698" r="2" fill="#c9814d" opacity="0.7"></circle>
  </g>
  
  
  <circle cx="250" cy="150" r="2.5" fill="#d4a574" opacity="0.6"></circle>
  <circle cx="320" cy="140" r="2" fill="#c9814d" opacity="0.5"></circle>
  <circle cx="280" cy="190" r="3" fill="#a67c52" opacity="0.55"></circle>
  <circle cx="200" cy="220" r="2" fill="#8b5a3c" opacity="0.45"></circle>
  
  <circle cx="750" cy="160" r="2.5" fill="#d4a574" opacity="0.58"></circle>
  <circle cx="810" cy="155" r="2" fill="#c9814d" opacity="0.48"></circle>
  <circle cx="780" cy="210" r="3" fill="#a67c52" opacity="0.52"></circle>
  <circle cx="850" cy="250" r="2" fill="#8b5a3c" opacity="0.42"></circle>
  
  <circle cx="150" cy="550" r="2.5" fill="#d4a574" opacity="0.62"></circle>
  <circle cx="180" cy="600" r="2" fill="#c9814d" opacity="0.52"></circle>
  <circle cx="220" cy="580" r="3" fill="#a67c52" opacity="0.58"></circle>
  <circle cx="140" cy="650" r="2" fill="#8b5a3c" opacity="0.48"></circle>
  
  <circle cx="850" cy="580" r="2.5" fill="#d4a574" opacity="0.6"></circle>
  <circle cx="820" cy="630" r="2" fill="#c9814d" opacity="0.5"></circle>
  <circle cx="880" cy="610" r="3" fill="#a67c52" opacity="0.56"></circle>
  <circle cx="860" cy="680" r="2" fill="#8b5a3c" opacity="0.46"></circle>
  
  <circle cx="300" cy="800" r="2.5" fill="#d4a574" opacity="0.64"></circle>
  <circle cx="360" cy="820" r="2" fill="#c9814d" opacity="0.54"></circle>
  <circle cx="330" cy="860" r="3" fill="#a67c52" opacity="0.6"></circle>
  <circle cx="270" cy="840" r="2" fill="#8b5a3c" opacity="0.5"></circle>
  
  <circle cx="700" cy="810" r="2.5" fill="#d4a574" opacity="0.62"></circle>
  <circle cx="760" cy="800" r="2" fill="#c9814d" opacity="0.52"></circle>
  <circle cx="740" cy="860" r="3" fill="#a67c52" opacity="0.58"></circle>
  <circle cx="680" cy="840" r="2" fill="#8b5a3c" opacity="0.48"></circle>
  
  
  <g opacity="0.5">
    <path d="M 470 500 Q 480 480 490 485 Q 495 495 490 505 Q 480 510 470 500" fill="none" stroke="#6b3e1f" stroke-width="1"></path>
    <circle cx="480" cy="495" r="1.5" fill="#c9814d" opacity="0.7"></circle>
  </g>
  
  <g opacity="0.48">
    <path d="M 530 500 Q 540 475 550 480 Q 555 495 550 510 Q 540 515 530 500" fill="none" stroke="#6b3e1f" stroke-width="1"></path>
    <circle cx="540" cy="495" r="1.5" fill="#d4a574" opacity="0.65"></circle>
  </g>
  
  <g opacity="0.52">
    <path d="M 500 470 Q 515 465 520 475 Q 520 485 510 490 Q 500 485 500 470" fill="none" stroke="#6b3e1f" stroke-width="1"></path>
    <circle cx="510" cy="480" r="1.5" fill="#a67c52" opacity="0.68"></circle>
  </g>
  
  <g opacity="0.5">
    <path d="M 500 530 Q 515 535 520 525 Q 520 515 510 510 Q 500 515 500 530" fill="none" stroke="#6b3e1f" stroke-width="1"></path>
    <circle cx="510" cy="520" r="1.5" fill="#8b5a3c" opacity="0.65"></circle>
  </g>
  
  
  <g opacity="0.6">
    <path d="M 400 550 L 380 570 L 390 585 L 410 575 Z" fill="#4a3020" opacity="0.4"></path>
    <path d="M 410 575 L 425 590 L 435 580 L 420 565 Z" fill="#3d2817" opacity="0.35"></path>
    <circle cx="405" cy="575" r="2" fill="#c9814d" opacity="0.6"></circle>
  </g>
  
  <g opacity="0.58">
    <path d="M 600 550 L 620 570 L 610 585 L 590 575 Z" fill="#4a3020" opacity="0.38"></path>
    <path d="M 590 575 L 575 590 L 565 580 L 580 565 Z" fill="#3d2817" opacity="0.33"></path>
    <circle cx="595" cy="575" r="2" fill="#d4a574" opacity="0.58"></circle>
  </g>
  
  
  <circle cx="500" cy="500" r="220" fill="url(#amberHalo)"></circle>
  
  
  <circle cx="100" cy="350" r="1.5" fill="#c9814d" opacity="0.35"></circle>
  <circle cx="900" cy="320" r="1.5" fill="#a67c52" opacity="0.32"></circle>
  <circle cx="120" cy="750" r="1.5" fill="#d4a574" opacity="0.38"></circle>
  <circle cx="880" cy="780" r="1.5" fill="#8b5a3c" opacity="0.3"></circle>
  <circle cx="150" cy="100" r="1.5" fill="#c9814d" opacity="0.33"></circle>
  <circle cx="850" cy="50" r="1.5" fill="#a67c52" opacity="0.3"></circle>
  
  
  <line x1="450" y1="350" x2="445" y2="335" stroke="#6b3e1f" stroke-width="1" opacity="0.45"></line>
  <line x1="550" y1="355" x2="555" y2="338" stroke="#6b3e1f" stroke-width="1" opacity="0.43"></line>
  <line x1="480" y1="650" x2="475" y2="668" stroke="#6b3e1f" stroke-width="1" opacity="0.44"></line>
  <line x1="520" y1="655" x2="525" y2="672" stroke="#6b3e1f" stroke-width="1" opacity="0.42"></line>
</svg>